<svg width="10" height="10" viewBox="0 0 10 10" fill="none" xmlns="http://www.w3.org/2000/svg">
<path d="M9.10714 4.10714H6.07143C5.97281 4.10714 5.89286 4.02719 5.89286 3.92857V0.892857C5.89286 0.39978 5.49308 0 5 0C4.50692 0 4.10714 0.39978 4.10714 0.892857V3.92857C4.10714 4.02719 4.02719 4.10714 3.92857 4.10714H0.892857C0.39978 4.10714 0 4.50692 0 5C0 5.49308 0.39978 5.89286 0.892857 5.89286H3.92857C4.02719 5.89286 4.10714 5.97281 4.10714 6.07143V9.10714C4.10714 9.60022 4.50692 10 5 10C5.49308 10 5.89286 9.60022 5.89286 9.10714V6.07143C5.89286 5.97281 5.97281 5.89286 6.07143 5.89286H9.10714C9.60022 5.89286 10 5.49308 10 5C10 4.50692 9.60022 4.10714 9.10714 4.10714Z" fill="#A485FD"/>
</svg>
