<svg width="12" height="10" viewBox="0 0 12 10" fill="none" xmlns="http://www.w3.org/2000/svg">
<path d="M10.1771 3.47929H9.8127V3.11578C9.8127 2.61378 9.40393 2.20535 8.90151 2.20535H8.53707V1.84184C8.53707 1.33984 8.1283 0.931494 7.62588 0.931494H2.83949V0.759847C2.83949 0.34084 2.49831 0 2.07905 0H0.760439C0.341178 0 0 0.34084 0 0.759847V6.54186C0 7.04385 0.408771 7.45229 0.91119 7.45229H1.27555V7.81571C1.27555 8.31771 1.68432 8.72614 2.18674 8.72614H2.55118V9.08957C2.55118 9.59157 2.95995 10 3.46229 10H10.1771C10.6795 10 11.0883 9.59157 11.0883 9.08957V4.38964C11.0883 3.88764 10.6795 3.47929 10.1771 3.47929ZM8.53707 2.85505H8.90151C9.04566 2.85505 9.16292 2.97205 9.16292 3.11578V3.47929H8.53707V2.85505ZM0.649702 0.759847C0.649702 0.699107 0.69936 0.649702 0.760439 0.649702H2.07905C2.14004 0.649702 2.18978 0.699107 2.18978 0.759847V1.25634C2.18978 1.43577 2.33521 1.5812 2.51464 1.5812H7.62588C7.77012 1.5812 7.88737 1.69811 7.88737 1.84184V2.20535H0.649702V0.759847ZM0.91119 6.80259C0.766953 6.80259 0.649702 6.68559 0.649702 6.54186V2.85505H7.88737V6.54186C7.88737 6.68559 7.77012 6.80259 7.62588 6.80259H0.91119ZM2.18674 8.07644C2.04259 8.07644 1.92533 7.95953 1.92533 7.81571V7.45229H7.62596C8.12838 7.45229 8.53707 7.04385 8.53707 6.54186V4.12899H9.163V7.81571C9.163 7.95953 9.04566 8.07644 8.90151 8.07644H2.18674ZM10.4385 9.08966C10.4385 9.23339 10.3213 9.3503 10.1771 9.3503H3.46237C3.31822 9.3503 3.20088 9.23339 3.20088 9.08966V8.72614H8.90151C9.40393 8.72614 9.8127 8.3178 9.8127 7.81571V5.40285H10.4385V9.08966ZM10.4385 4.75315H9.8127V4.12899H10.1771C10.3213 4.12899 10.4385 4.24591 10.4385 4.38964V4.75315Z" fill="black"/>
</svg>
