<svg width="10" height="10" viewBox="0 0 10 10" fill="none" xmlns="http://www.w3.org/2000/svg">
<g clip-path="url(#clip0)">
<path d="M1.99976 1H0.999756V2H1.99976V1Z" fill="black"/>
<path d="M7.00024 0V0.5H6.50024V1H7.00024V3H7.50024V3.5H7.00024V4H7.50024H8.00024V3H9.50024V3.5H10.0002V3V0H7.00024ZM9.50024 2.5H7.50024V0.5H9.50024V2.5Z" fill="black"/>
<path d="M9.00049 1H8.00049V2H9.00049V1Z" fill="black"/>
<path d="M1.99976 8H0.999756V9H1.99976V8Z" fill="black"/>
<path d="M7.49951 7H6.99951V7.5H7.49951V7Z" fill="black"/>
<path d="M4.99951 9.5H4.49951V10H4.99951V9.5Z" fill="black"/>
<path d="M5.5 7.5H5V8H5.5V7.5Z" fill="black"/>
<path d="M5.5 8.5H5V9H5.5V8.5Z" fill="black"/>
<path d="M9.99954 6H9.49951V6.5H9.99954V6Z" fill="black"/>
<path d="M0.5 6H0V6.5H0.5V6Z" fill="black"/>
<path d="M0.5 3.5H0V4H0.5V3.5Z" fill="black"/>
<path d="M5.49951 0.5V1H4.49951V1.5H5.99951V1V0.5H5.49951Z" fill="black"/>
<path d="M9.49976 4V4.5H8.49976V5H6.99976V4.5H6.49976V5H5.49976V5.5H6.99976V5.99999H5.99976H5.49976V5.5H4.99976V5.99999H4.49976V5.5H3.99976V5.99999H3.49976V6.49999H4.49976V6.99999H4.99976V6.49999H5.99976V6.99999H5.49976V7.49999H5.99976V8.49999H6.49976V8.99998H6.99976V8.49999H8.49976V7.49999H8.99976V6.99999H8.49976V5.99999H7.49976V5.5H8.49976V5.99999H8.99976V5.5H9.49976V5H9.99976V4.5V4H9.49976ZM7.99976 6.49999V7.99999H6.49976V6.49999H7.99976Z" fill="black"/>
<path d="M6.50049 3H6.00049V3.5H5.50049V4V4.5H6.00049V4H6.50049V3.5H7.00049V3H6.50049Z" fill="black"/>
<path d="M6.50049 9.5H5.50049V10H6.50049V9.5Z" fill="black"/>
<path d="M4.50024 0.5H4.00024V1H4.50024V0.5Z" fill="black"/>
<path d="M8.50049 4H8.00049V4.5H8.50049V4Z" fill="black"/>
<path d="M8.99976 3.5H8.49976V4H8.99976V3.5Z" fill="black"/>
<path d="M2.4995 6H1.99951V6.5H2.4995V6Z" fill="black"/>
<path d="M3 9.5V7.5H3.5V7V6.5H3V7H1.5V6.5H1H0.5V7H0V10H3H4V9.5H3ZM2.5 9.5H0.5V7.5H2.5V9.5Z" fill="black"/>
<path d="M3.50049 3H3.00049V3.5H3.50049V3Z" fill="black"/>
<path d="M3.5 0H3H0V3H0.5V3.5H1V3H1.5V3.5H2V3H3V2H3.5V1.5H3V0.5H3.5H4V0H3.5ZM2.5 2.5H0.5V0.5H2.5V2.5Z" fill="black"/>
<path d="M6.49976 1.5H5.99976V2H6.49976V1.5Z" fill="black"/>
<path d="M5.5 0H5V0.5H5.5V0Z" fill="black"/>
<path d="M6 3V2.5H5.5V2H5V2.5H4V2H3.5V2.5V3H4V4H2.5V3.5H2V4H0.5V4.5H1.5V5H0V5.5H1.5V6H2V5.5H2.5V6H3V5.5H4V5H3.5V4.5H4H4.5V5H5H5.5V4.5H5V4H4.5V3H6ZM3 5H2V4.5H3V5Z" fill="black"/>
<path d="M4.49977 8V7.5V7H3.99976V7.5H3.49976V8H3.99976V8.5H3.49976V9H4.49977V8.5H4.99977V8H4.49977Z" fill="black"/>
<path d="M8.99953 9V8.5H8.49953V9H6.99951V9.5H7.99952V10H8.49953V9.5H9.49954V10H9.99954V9.5V9H8.99953Z" fill="black"/>
<path d="M9.50024 7V7.5H9.00024V8H10.0002V7.5V7H9.50024Z" fill="black"/>
</g>
<defs>
<clipPath id="clip0">
<path d="M0 0H10V10H0V0Z" fill="white"/>
</clipPath>
</defs>
</svg>
