<svg width="20" height="17" viewBox="0 0 20 17" fill="none" xmlns="http://www.w3.org/2000/svg">
<path d="M18.8758 6.73756L18.907 6.74439H5.52391L9.73106 2.52797C9.93708 2.32211 10.0501 2.04325 10.0501 1.75057C10.0501 1.45789 9.93708 1.18098 9.73106 0.974634L9.07643 0.319675C8.87057 0.113821 8.59626 0 8.30374 0C8.01106 0 7.73659 0.113008 7.53074 0.318862L0.318866 7.53008C0.112199 7.73675 -0.000808652 8.01203 4.35632e-06 8.30488C-0.000808652 8.59935 0.112199 8.8748 0.318866 9.08114L7.53074 16.293C7.73659 16.4987 8.0109 16.6119 8.30374 16.6119C8.59626 16.6119 8.87057 16.4985 9.07643 16.293L9.73106 15.638C9.93708 15.4325 10.0501 15.158 10.0501 14.8654C10.0501 14.5728 9.93708 14.3128 9.73106 14.1072L5.47643 9.86716H18.8907C19.4935 9.86716 20 9.34764 20 8.7452V7.81886C20 7.21642 19.4785 6.73756 18.8758 6.73756Z" fill="#6200EE"/>
</svg>
