<svg width="8" height="11" viewBox="0 0 8 11" fill="none" xmlns="http://www.w3.org/2000/svg">
<path d="M6.49967 5.09789C7.13711 4.73859 7.48163 4.01931 7.36286 3.29775C7.2153 2.18376 5.88736 1.7632 4.83971 1.6747V0H3.80685V1.65995H3.11337V0H2.08051V1.65995H0V2.72972H0.774648C1.12141 2.72972 1.29108 2.833 1.29108 3.11334V7.70958C1.29108 8.0932 1.09925 8.21127 0.892679 8.21127H0.103286V9.30315H2.11V11H3.15023V9.30315H3.84371V11H4.85446V9.30315H5.07578C7.20052 9.30315 7.90878 8.26291 7.90878 6.84643C7.8918 6.01124 7.31267 5.29266 6.49967 5.09789ZM3.11334 2.7961H3.85108C4.36752 2.7961 5.38563 2.88465 5.38563 3.72568C5.42104 4.27458 5.02339 4.7556 4.47817 4.82493H3.11334V2.7961ZM4.25686 8.10794V8.10057H3.11334V5.88729H4.44131C4.75117 5.88729 5.91681 5.99057 5.91681 6.81686C5.91681 7.64315 5.36352 8.10794 4.25686 8.10794Z" fill="white"/>
</svg>
