<svg width="9" height="10" viewBox="0 0 9 10" fill="none" xmlns="http://www.w3.org/2000/svg">
<path d="M1.53846 5C1.53846 5.21247 1.36631 5.38462 1.15385 5.38462H0.384615C0.172149 5.38462 0 5.21247 0 5C0 4.78753 0.172149 4.61538 0.384615 4.61538H1.15385C1.36633 4.61538 1.53846 4.78753 1.53846 5ZM1.53846 2.53846C1.53846 2.326 1.36631 2.15385 1.15385 2.15385H0.384615C0.172149 2.15385 0 2.326 0 2.53846C0 2.75093 0.172149 2.92308 0.384615 2.92308H1.15385C1.36633 2.92308 1.53846 2.75093 1.53846 2.53846ZM1.53846 7.46156C1.53846 7.24905 1.36631 7.07695 1.15385 7.07695H0.384615C0.172149 7.07695 0 7.24905 0 7.46156C0 7.67403 0.172149 7.84618 0.384615 7.84618H1.15385C1.36633 7.84618 1.53846 7.674 1.53846 7.46156ZM8.30769 1.23077V8.76923C8.30769 9.44894 7.75663 10 7.07697 10H1.69235C1.01267 10 0.461584 9.44894 0.461584 8.76923V8.15385H1.15389C1.53559 8.15385 1.8462 7.84321 1.8462 7.46154C1.8462 7.07984 1.53559 6.76919 1.15389 6.76919H0.461538V5.69226H1.15385C1.53554 5.69226 1.84615 5.38165 1.84615 4.99995C1.84615 4.61826 1.53554 4.30765 1.15385 4.30765H0.461538V3.23072H1.15385C1.53554 3.23072 1.84615 2.92011 1.84615 2.53842C1.84615 2.15672 1.53554 1.84611 1.15385 1.84611H0.461538V1.23077C0.461538 0.551086 1.01262 0 1.69231 0H7.07692C7.75661 0 8.30769 0.551063 8.30769 1.23077ZM3.42862 3.6483C3.42862 4.30369 3.96 4.83507 4.61538 4.83507C5.27079 4.83507 5.80215 4.30369 5.80215 3.6483C5.80215 2.99292 5.27079 2.46152 4.61538 2.46152C3.96002 2.46154 3.42862 2.99292 3.42862 3.6483ZM6.46154 6.54937C6.46154 5.82122 5.87109 5.23075 5.14292 5.23075H4.08801C3.35971 5.23075 2.76923 5.82124 2.76923 6.54937V7.07692H6.46154V6.54937Z" fill="black"/>
</svg>
