<svg width="13" height="17" viewBox="0 0 13 17" fill="none" xmlns="http://www.w3.org/2000/svg">
<path d="M10.8786 0.498047H1.581C0.708581 0.498047 0 1.20663 0 2.07904V15.4192C0 16.2916 0.708581 17.0002 1.581 17.0002H10.8786C11.751 17.0002 12.4596 16.2916 12.4596 15.4192V2.07904C12.4555 1.20663 11.7469 0.498047 10.8786 0.498047ZM11.3496 15.4151C11.3496 15.6772 11.1366 15.8902 10.8745 15.8902H1.5769C1.31477 15.8902 1.10178 15.6772 1.10178 15.4151V2.07904C1.10178 1.81691 1.31477 1.60392 1.5769 1.60392H10.8745C11.1366 1.60392 11.3496 1.81691 11.3496 2.07904V15.4151Z" fill="white"/>
</svg>
