<svg width="9" height="10" viewBox="0 0 9 10" fill="none" xmlns="http://www.w3.org/2000/svg">
<path d="M5.43928 1.74902H0.790498C0.35429 1.74902 0 2.10331 0 2.53952V9.2096C0 9.64581 0.35429 10.0001 0.790498 10.0001H5.43928C5.87549 10.0001 6.22978 9.64581 6.22978 9.2096V2.53952C6.22773 2.10331 5.87344 1.74902 5.43928 1.74902ZM5.67479 9.20755C5.67479 9.33862 5.5683 9.44511 5.43723 9.44511H0.78845C0.657383 9.44511 0.550891 9.33862 0.550891 9.20755V2.53952C0.550891 2.40845 0.657383 2.30196 0.78845 2.30196H5.43723C5.5683 2.30196 5.67479 2.40845 5.67479 2.53952V9.20755Z" fill="black"/>
<path d="M7.21687 0H2.56809C2.13188 0 1.77759 0.35429 1.77759 0.790498C1.77759 0.944092 1.90046 1.06697 2.05406 1.06697C2.20765 1.06697 2.33053 0.944092 2.33053 0.790498C2.33053 0.659431 2.43702 0.552939 2.56809 0.552939H7.21687C7.34793 0.552939 7.45443 0.659431 7.45443 0.790498V7.46058C7.45443 7.59164 7.34793 7.69814 7.21687 7.69814C7.06327 7.69814 6.9404 7.82101 6.9404 7.97461C6.9404 8.1282 7.06327 8.25107 7.21687 8.25107C7.65307 8.25107 8.00736 7.89678 8.00736 7.46058V0.790498C8.00736 0.35429 7.65307 0 7.21687 0Z" fill="black"/>
</svg>
