<svg width="6" height="10" viewBox="0 0 6 10" fill="none" xmlns="http://www.w3.org/2000/svg">
<path d="M5.73343 6.4837C5.73343 7.57387 4.96106 8.50531 3.55148 8.75044V10H2.35037V8.83714C1.5286 8.79985 0.732318 8.57862 0.266602 8.3099L0.634457 6.87546C1.14926 7.15788 1.87222 7.41513 2.66914 7.41513C3.36755 7.41513 3.8457 7.14482 3.8457 6.65487C3.8457 6.18916 3.45362 5.89334 2.5461 5.58764C1.23533 5.14615 0.339918 4.5338 0.339918 3.34577C0.339918 2.26642 1.10017 1.42201 2.41158 1.16381V0H3.61237V1.07838C4.43351 1.11504 4.98593 1.28622 5.3898 1.48258L5.03438 2.86857C4.71657 2.73342 4.15236 2.45067 3.26969 2.45067C2.47278 2.45067 2.21554 2.79366 2.21554 3.13729C2.21554 3.54149 2.64459 3.79841 3.686 4.19145C5.14563 4.70562 5.73343 5.37981 5.73343 6.4837Z" fill="black"/>
</svg>
