<svg width="10" height="10" viewBox="0 0 10 10" fill="none" xmlns="http://www.w3.org/2000/svg">
<path d="M0.817426 8.12015H0.921567C1.37284 8.11969 1.73853 7.75408 1.73915 7.30272V3.14855C1.73992 2.50716 2.2597 1.98738 2.90109 1.98661H7.2998V1.95728C7.29934 1.50608 6.93373 1.14024 6.48245 1.13962H4.62492C4.507 1.13962 4.3944 1.08998 4.31496 1.00285L3.64124 0.266087C3.4863 0.0967518 3.2674 0.000307882 3.03787 0H0.817426C0.366225 0.000461823 0.000538798 0.366225 0 0.817349V7.30272C0.000538798 7.754 0.366225 8.11961 0.817426 8.12015Z" fill="black"/>
<path d="M2.08364 3.14848V7.30265C2.08387 7.609 1.96264 7.90287 1.74658 8.12008H5.10573V4.78841C5.10603 4.55758 5.29315 4.37046 5.52406 4.37016H8.0286C8.25951 4.37046 8.44663 4.55758 8.44694 4.78841V5.22791H8.51367V3.14848C8.51305 2.69713 8.14737 2.33152 7.69594 2.33105H2.90114C2.44986 2.33159 2.08425 2.6972 2.08364 3.14848Z" fill="black"/>
<path d="M8.20087 4.78839C8.20087 4.69326 8.12382 4.61621 8.02861 4.61621H5.52407C5.42901 4.61621 5.35181 4.69326 5.35181 4.78839V9.82773C5.35181 9.92278 5.42901 9.99991 5.52407 9.99991C5.6192 9.99991 5.69625 9.92278 5.69625 9.82773V7.07673H6.85527V7.70673C6.85527 7.80179 6.93232 7.87891 7.02745 7.87891H9.63321C9.69694 7.87891 9.75536 7.84374 9.78523 7.78762C9.81517 7.73151 9.8117 7.66332 9.77614 7.61059L9.17069 6.70996L9.77922 5.73759C9.81247 5.68448 9.81424 5.61752 9.78392 5.56272C9.75351 5.50791 9.69586 5.47389 9.63321 5.47389H8.20087V4.78839Z" fill="black"/>
</svg>
