<svg width="10" height="10" viewBox="0 0 10 10" fill="none" xmlns="http://www.w3.org/2000/svg">
<path d="M9.54548 1.77443V1.3637C9.54548 0.988703 9.23867 0.681885 8.86367 0.681885H5.45459V1.59098H8.86367C9.11196 1.59098 9.34474 1.658 9.54548 1.77443Z" fill="black"/>
<path d="M7.74023 4.79866C8.42009 4.79866 9.04675 5.03059 9.54545 5.41936V2.95455C9.54545 2.57955 9.23864 2.27273 8.86364 2.27273H4.77273V0.681818C4.77273 0.306818 4.46591 0 4.09091 0H0.681818C0.306818 0 0 0.306818 0 0.681818V7.74023H4.79866C4.79866 6.11823 6.11823 4.79866 7.74023 4.79866Z" fill="black"/>
<path d="M7.74025 5.48047C6.49422 5.48047 5.48047 6.4942 5.48047 7.74025C5.48047 8.9863 6.49422 10 7.74025 10C8.9863 10 10 8.98628 10 7.74023C10 6.49418 8.9863 5.48047 7.74025 5.48047ZM8.96966 8.48752L8.48755 8.96964L7.74025 8.22236L6.99297 8.96964L6.51086 8.48752L7.25813 7.74025L6.51086 6.99297L6.99297 6.51086L7.74025 7.25813L8.48755 6.51084L8.96966 6.99295L8.22236 7.74025L8.96966 8.48752Z" fill="black"/>
</svg>
