<svg width="11" height="10" viewBox="0 0 11 10" fill="none" xmlns="http://www.w3.org/2000/svg">
<path d="M9.06066 5.95654L6.56543 8.45177L7.53264 9.4189L10.0278 6.92368L9.06066 5.95654Z" fill="black"/>
<path d="M9.31543 5.70132L9.73256 5.28418L10.6998 6.25141L10.2826 6.66855L9.31543 5.70132Z" fill="black"/>
<path d="M6.3891 8.78564L5.98438 9.99989L7.19862 9.59525L6.7939 9.19045L6.3891 8.78564Z" fill="black"/>
<path d="M2.18332 3.29881V7.65143C2.18348 7.97244 2.05649 8.2804 1.83008 8.50786H6.10149L6.13919 8.39457C6.1396 8.39369 6.14 8.39288 6.14024 8.39207C6.14226 8.38651 6.14443 8.3812 6.14693 8.37588C6.14749 8.37443 6.14814 8.37306 6.14886 8.37161C6.15193 8.36524 6.15539 8.35912 6.15918 8.35316C6.16304 8.34735 6.16723 8.34163 6.17191 8.33624C6.17312 8.33462 6.17441 8.33325 6.17594 8.33172C6.17811 8.32923 6.18029 8.32657 6.1827 8.32415L8.92038 5.58647V3.29881C8.91982 2.826 8.5366 2.44279 8.06371 2.44238H3.03966C2.56701 2.44287 2.1838 2.82608 2.18332 3.29881Z" fill="black"/>
<path d="M0.856425 8.50793H0.965442C1.43833 8.50744 1.82162 8.12431 1.82219 7.6515V3.29887C1.82299 2.6268 2.36752 2.0822 3.03951 2.08148H7.64852V2.05078C7.64804 1.57797 7.26482 1.19468 6.79201 1.19411H4.84582C4.72214 1.19411 4.60426 1.14214 4.52095 1.05077L3.8152 0.278707C3.65276 0.101282 3.42344 0.000161138 3.18293 0H0.856425C0.383695 0.000483436 0.000483446 0.383614 0 0.856425V7.6515C0.000483446 8.12423 0.383695 8.50744 0.856425 8.50793Z" fill="black"/>
</svg>
