<svg width="10" height="10" viewBox="0 0 10 10" fill="none" xmlns="http://www.w3.org/2000/svg">
<path d="M4.61711 9.1846C4.61713 9.18241 4.6169 9.18034 4.61682 9.17821C4.61674 9.17634 4.61668 9.17446 4.61654 9.17259C4.61619 9.16839 4.61563 9.16429 4.61494 9.16019C4.61477 9.15909 4.61465 9.158 4.61443 9.15692C4.61236 9.14616 4.60906 9.13587 4.60475 9.1261C4.6043 9.12509 4.60377 9.12411 4.6033 9.1231C4.60154 9.11935 4.59963 9.11567 4.59756 9.1121C4.59676 9.11073 4.59594 9.10941 4.5951 9.10806C4.59311 9.10487 4.591 9.10179 4.58877 9.09878C4.58779 9.09745 4.58682 9.0961 4.5858 9.0948C4.58322 9.09155 4.58051 9.08845 4.57768 9.08544C4.57688 9.0846 4.57615 9.0837 4.57535 9.08288C4.57162 9.07911 4.5677 9.07556 4.56357 9.07222C4.56338 9.07206 4.56322 9.07189 4.56303 9.07171L3.87793 8.52148C3.81559 8.4714 3.72449 8.48138 3.67445 8.5437C3.6244 8.60603 3.63436 8.69712 3.69668 8.74718L4.03395 9.01808C3.1419 8.92972 2.33744 8.57155 1.73502 7.98706C1.0516 7.32396 0.675234 6.42319 0.675234 5.45065C0.675234 5.37071 0.610449 5.30591 0.530488 5.30591C0.450527 5.30591 0.385742 5.37071 0.385742 5.45065C0.385742 6.50216 0.79332 7.47671 1.53342 8.19482C2.18607 8.82808 3.0559 9.21483 4.01803 9.30741L3.68027 9.5271C3.61326 9.57067 3.59426 9.66032 3.63785 9.72735C3.66559 9.76999 3.71197 9.79319 3.75932 9.79319C3.78637 9.79319 3.81375 9.78562 3.83809 9.76978L4.55127 9.30593C4.55151 9.30577 4.5517 9.3056 4.55191 9.30546C4.55641 9.30249 4.56076 9.29931 4.56488 9.29587C4.56549 9.29536 4.56602 9.2948 4.56662 9.29429C4.57 9.29138 4.57326 9.28833 4.57635 9.28513C4.57754 9.2839 4.57863 9.28261 4.57979 9.28136C4.58221 9.27866 4.58455 9.27589 4.58678 9.27302C4.58783 9.27165 4.58887 9.27026 4.58988 9.26886C4.59213 9.26573 4.59424 9.26249 4.59623 9.25919C4.59693 9.25802 4.5977 9.25689 4.59836 9.25569C4.60361 9.24642 4.60787 9.23653 4.61098 9.22612C4.61121 9.22532 4.61137 9.2245 4.6116 9.2237C4.61279 9.21944 4.61383 9.21511 4.61463 9.21069C4.61492 9.20907 4.61514 9.20745 4.61537 9.20581C4.6159 9.20218 4.61633 9.19851 4.61658 9.1948C4.61666 9.1938 4.61686 9.19282 4.61691 9.19183C4.61697 9.19085 4.61686 9.18987 4.6169 9.1889C4.61693 9.18745 4.61711 9.18605 4.61711 9.1846Z" fill="black"/>
<path d="M8.47533 1.89842C7.82264 1.26519 6.95281 0.878436 5.99068 0.785838L6.32846 0.566151C6.39547 0.522577 6.41447 0.432928 6.37088 0.365897C6.32729 0.298885 6.2376 0.279881 6.17064 0.323475L5.45746 0.787342C5.45723 0.787499 5.45703 0.787674 5.45682 0.787811C5.45232 0.79078 5.44797 0.793963 5.44385 0.797401C5.44324 0.797909 5.44271 0.798456 5.44211 0.798963C5.43873 0.801874 5.43547 0.80492 5.43236 0.808124C5.43119 0.809354 5.43008 0.810624 5.42895 0.811874C5.4265 0.814569 5.42418 0.817342 5.42193 0.820233C5.42088 0.8216 5.41984 0.822987 5.41883 0.824393C5.41658 0.827518 5.41447 0.83076 5.41248 0.834061C5.41178 0.835233 5.41102 0.836366 5.41035 0.837557C5.4051 0.846835 5.40084 0.856717 5.39772 0.867127C5.39748 0.867909 5.39732 0.86871 5.39711 0.869491C5.39592 0.873768 5.39488 0.878104 5.39408 0.882538C5.39379 0.884159 5.39357 0.88578 5.39334 0.88742C5.39281 0.891053 5.39238 0.894725 5.39213 0.898436C5.39205 0.899432 5.39186 0.900409 5.3918 0.901405C5.39174 0.902381 5.39186 0.903358 5.39182 0.904335C5.39178 0.90578 5.3916 0.907186 5.3916 0.908631C5.39162 0.910819 5.39186 0.912909 5.39193 0.915018C5.39201 0.916893 5.39207 0.918768 5.39221 0.920643C5.39256 0.924842 5.39313 0.928944 5.39381 0.933045C5.39398 0.934139 5.3941 0.935233 5.39432 0.936307C5.39639 0.947049 5.39969 0.957362 5.404 0.967128C5.40445 0.968163 5.40498 0.969139 5.40547 0.970155C5.40723 0.973905 5.40912 0.977577 5.41119 0.981131C5.41199 0.982499 5.41281 0.983827 5.41365 0.985174C5.41564 0.988358 5.41775 0.991444 5.41998 0.994452C5.42096 0.99578 5.42193 0.997128 5.42295 0.998436C5.42553 1.00168 5.42824 1.00478 5.43107 1.00779C5.43187 1.00863 5.4326 1.00953 5.4334 1.01035C5.43713 1.01412 5.44105 1.01767 5.44518 1.02101C5.44537 1.02117 5.44553 1.02135 5.44572 1.02152L6.13082 1.57176C6.15754 1.59322 6.18957 1.60365 6.22135 1.60365C6.26371 1.60365 6.3057 1.58514 6.3343 1.54953C6.38436 1.48721 6.37439 1.39611 6.31207 1.34605L5.97479 1.07515C6.86684 1.16351 7.67131 1.52166 8.27373 2.10617C8.95715 2.76926 9.33352 3.67004 9.33352 4.64258C9.33352 4.72252 9.3983 4.78732 9.47826 4.78732C9.5582 4.78732 9.62301 4.72252 9.62301 4.64258C9.62301 3.59107 9.21543 2.61652 8.47533 1.89842Z" fill="black"/>
<path d="M2.71074 0C1.21604 0 0 1.21604 0 2.71074C0 4.20545 1.21604 5.42148 2.71074 5.42148C4.20545 5.42148 5.42148 4.20545 5.42148 2.71074C5.42148 1.21604 4.20545 0 2.71074 0ZM2.71074 5.13201C1.37566 5.13201 0.289473 4.04582 0.289473 2.71074C0.289473 1.37564 1.37566 0.289473 2.71074 0.289473C4.04582 0.289473 5.13201 1.37564 5.13201 2.71074C5.13201 4.04582 4.04582 5.13201 2.71074 5.13201Z" fill="black"/>
<path d="M4.77323 2.96979C4.69461 2.95436 4.61871 3.00551 4.60332 3.08395C4.52954 3.45994 4.34672 3.8025 4.07457 4.07463C3.71026 4.43895 3.22588 4.63959 2.71065 4.63959C2.19541 4.63959 1.71102 4.43895 1.3467 4.07463C1.07524 3.80317 0.892581 3.46151 0.81848 3.08658C0.802992 3.00817 0.726996 2.95719 0.648441 2.97266C0.570023 2.98817 0.519007 3.0643 0.534515 3.14272C0.619769 3.57412 0.829828 3.96717 1.142 4.27934C1.56102 4.69832 2.11809 4.92907 2.71065 4.92907C3.30321 4.92907 3.86028 4.69832 4.27926 4.27932C4.59221 3.96641 4.80248 3.57233 4.88737 3.13969C4.90276 3.06125 4.85164 2.9852 4.77323 2.96979Z" fill="black"/>
<path d="M4.85944 2.15774C4.76116 1.77454 4.56057 1.42337 4.2794 1.14218C3.86039 0.723193 3.30332 0.492432 2.71076 0.492432C2.11821 0.492432 1.56114 0.723193 1.14213 1.14218C0.861584 1.42274 0.661233 1.77308 0.562717 2.15528C0.542775 2.23271 0.589358 2.31161 0.66676 2.33157C0.74426 2.35149 0.823108 2.30493 0.843049 2.22753C0.928654 1.89538 1.10285 1.59085 1.34684 1.34687C1.71114 0.982549 2.19553 0.781904 2.71076 0.781904C3.226 0.781904 3.71037 0.982529 4.07469 1.34687C4.31924 1.5914 4.49364 1.89667 4.57905 2.22966C4.5958 2.29503 4.65463 2.33847 4.71914 2.33847C4.73104 2.33847 4.74313 2.33698 4.7552 2.3339C4.83264 2.31403 4.8793 2.23517 4.85944 2.15774Z" fill="black"/>
<path d="M7.28936 4.57861C5.79465 4.57861 4.57861 5.79465 4.57861 7.28936C4.57861 8.78406 5.79465 10.0001 7.28936 10.0001C8.78406 10.0001 10.0001 8.78406 10.0001 7.28936C10.0001 5.79465 8.78406 4.57861 7.28936 4.57861ZM7.28936 9.71063C5.95428 9.71063 4.86809 8.62445 4.86809 7.28936C4.86809 5.95428 5.95428 4.86809 7.28936 4.86809C8.62443 4.86809 9.71063 5.95426 9.71063 7.28936C9.71063 8.62445 8.62443 9.71063 7.28936 9.71063Z" fill="black"/>
<path d="M9.44624 6.76971C9.35111 6.37311 9.14765 6.01031 8.85788 5.72055C8.43888 5.30154 7.88179 5.0708 7.28924 5.0708C6.6967 5.0708 6.13961 5.30154 5.72061 5.72055C5.43353 6.00762 5.23099 6.36674 5.13482 6.75908C5.11576 6.83676 5.16328 6.91512 5.24092 6.93414C5.31853 6.95326 5.39693 6.90564 5.41594 6.82803C5.49949 6.48707 5.67563 6.1749 5.92529 5.92525C6.28961 5.56094 6.77399 5.36029 7.28922 5.36029C7.80446 5.36029 8.28886 5.56094 8.65317 5.92525C8.90519 6.17725 9.08206 6.49262 9.16476 6.83725C9.18068 6.90363 9.23999 6.94826 9.30538 6.94824C9.31656 6.94824 9.32792 6.94693 9.33927 6.94422C9.41699 6.92557 9.4649 6.84744 9.44624 6.76971Z" fill="black"/>
<path d="M9.34952 7.56645C9.27113 7.55042 9.1947 7.60083 9.17863 7.67913C9.10279 8.04852 8.92111 8.38536 8.65322 8.65325C8.2889 9.01757 7.8045 9.21821 7.28927 9.21821C6.77404 9.21821 6.28966 9.01759 5.92534 8.65325C5.65958 8.38751 5.47849 8.05354 5.40165 7.68745C5.38527 7.6092 5.30849 7.55911 5.23027 7.57553C5.15204 7.59194 5.10193 7.66868 5.11835 7.7469C5.20675 8.16815 5.41503 8.55233 5.72064 8.85792C6.13964 9.27691 6.69671 9.50767 7.28927 9.50767C7.88183 9.50767 8.43892 9.27693 8.8579 8.85792C9.16595 8.54987 9.3749 8.16237 9.46216 7.73733C9.47825 7.65903 9.42781 7.58252 9.34952 7.56645Z" fill="black"/>
<path d="M2.80842 2.47899V1.79679C3.04365 1.81358 3.13104 1.92112 3.21168 1.92112C3.3125 1.92112 3.35955 1.79343 3.35955 1.72958C3.35955 1.56489 3.03693 1.49433 2.80842 1.48761V1.39687C2.80842 1.35655 2.75801 1.31958 2.7076 1.31958C2.65047 1.31958 2.61014 1.35653 2.61014 1.39687V1.49433C2.29088 1.52794 1.97162 1.69597 1.97162 2.1194C1.97162 2.54956 2.3077 2.67054 2.61014 2.77808V3.56782C2.26736 3.54095 2.17662 3.30569 2.06572 3.30569C1.9817 3.30569 1.91113 3.41659 1.91113 3.49726C1.91113 3.66192 2.19342 3.8871 2.61014 3.89382V3.998C2.61014 4.03831 2.65047 4.07528 2.7076 4.07528C2.75801 4.07528 2.80842 4.03833 2.80842 3.998V3.88374C3.17137 3.83333 3.42006 3.60481 3.42006 3.19146C3.42006 2.7344 3.10078 2.58653 2.80842 2.47899ZM2.63031 2.41515C2.45219 2.34794 2.30768 2.27735 2.3077 2.08581C2.3077 1.91106 2.44211 1.82704 2.63031 1.80353V2.41515ZM2.78824 3.5611V2.85202C2.95293 2.92259 3.08398 3.01669 3.08396 3.22841C3.08396 3.41995 2.96973 3.52749 2.78824 3.5611Z" fill="black"/>
<path d="M7.81273 7.31293C7.96549 7.24537 8.06242 7.08088 8.06242 6.83707C8.06242 6.52893 7.90791 6.39809 7.69938 6.35125H7.70684V6.2142C7.70684 6.13852 7.64549 6.07715 7.56979 6.07715C7.4941 6.07715 7.43273 6.1385 7.43273 6.2142V6.32889H7.28291V6.2142C7.28291 6.13852 7.22154 6.07715 7.14586 6.07715C7.07018 6.07715 7.00881 6.1385 7.00881 6.2142V6.32889H6.97023H6.93439H6.80014C6.72014 6.32889 6.65527 6.39375 6.65527 6.47375C6.65527 6.55248 6.71811 6.61639 6.79633 6.61842V8.18664C6.71809 8.18867 6.65527 8.25258 6.65527 8.33131C6.65527 8.41131 6.72012 8.47617 6.80014 8.47617H6.93439H6.97023H7.00881V8.59807C7.00881 8.67375 7.07016 8.73512 7.14586 8.73512C7.22154 8.73512 7.28291 8.67377 7.28291 8.59807V8.47617H7.43273V8.59807C7.43273 8.67375 7.4941 8.73512 7.56979 8.73512C7.64547 8.73512 7.70684 8.67377 7.70684 8.59807V8.46102H7.69299C7.94 8.41176 8.11527 8.23629 8.11527 7.8593V7.80348C8.11529 7.50389 7.99488 7.38344 7.81273 7.31293ZM7.1048 6.605H7.4485C7.63355 6.605 7.75104 6.6902 7.75104 6.88699C7.75104 7.08674 7.6541 7.18955 7.45438 7.18955H7.1048V6.605ZM7.80393 7.8358C7.80393 8.08842 7.68055 8.20004 7.47199 8.20004H7.1048V7.43631H7.47199C7.68055 7.43631 7.80393 7.53031 7.80393 7.78881V7.8358Z" fill="black"/>
</svg>
