<svg width="10" height="10" viewBox="0 0 10 10" fill="none" xmlns="http://www.w3.org/2000/svg">
<g clip-path="url(#clip0)">
<path d="M1.06349 8.35605H5.4245C5.90064 9.33006 6.96843 9.86629 8.03403 9.66649C9.09963 9.46661 9.90067 8.57987 9.99155 7.49949C10.0823 6.4192 9.44072 5.41114 8.42342 5.03618V3.49004C8.42272 2.90287 7.94684 2.42709 7.35967 2.42647H7.31243V2.39972C7.31181 1.81255 6.83603 1.33668 6.24886 1.33597H4.54867C4.52931 1.33597 4.51093 1.32788 4.49791 1.31363L3.881 0.638832C3.67935 0.418622 3.39457 0.292989 3.09597 0.292725H1.06349C0.476404 0.293428 0.000703829 0.769129 0 1.35621V7.29239C0.000615851 7.87956 0.476404 8.35535 1.06349 8.35605ZM9.68468 7.29749C9.68336 8.45371 8.74639 9.39077 7.59009 9.39209C6.43326 9.39209 5.4955 8.45424 5.4955 7.29749C5.4955 6.14066 6.43326 5.2029 7.59009 5.2029C8.74639 5.20422 9.68336 6.14119 9.68468 7.29749ZM7.35967 2.74179C7.77273 2.74222 8.10758 3.0769 8.10811 3.49004V4.9438C7.26457 4.75878 6.38654 5.03899 5.80606 5.67842C5.22567 6.31785 5.0315 7.21893 5.29702 8.04065H1.91389C2.11166 7.8419 2.2226 7.57287 2.22252 7.29248V3.49004C2.22296 3.07698 2.55763 2.74231 2.97069 2.74179H7.35967ZM0.315315 1.35621C0.315755 0.943238 0.650514 0.60848 1.06349 0.60804H3.09597C3.30606 0.608216 3.50639 0.696634 3.6483 0.851565L4.26485 1.52601C4.33761 1.60581 4.44063 1.65129 4.54867 1.65129H6.24886C6.662 1.65182 6.99667 1.98658 6.99711 2.39972V2.42647H2.97069C2.3836 2.42717 1.9079 2.90296 1.9072 3.49004V7.29239C1.90667 7.70554 1.57191 8.04021 1.15877 8.04065H1.06349C0.650514 8.04012 0.315755 7.70545 0.315315 7.29239V1.35621Z" fill="black"/>
<path d="M6.81 7.07429C6.75352 7.00804 6.65393 7.00021 6.58777 7.05678C6.52152 7.11326 6.51369 7.21277 6.57026 7.27902L7.1108 7.91193C7.16641 7.97703 7.2638 7.98583 7.33022 7.93181L8.58902 6.90766C8.65659 6.85267 8.66679 6.75343 8.61189 6.68587C8.55691 6.6183 8.45758 6.60809 8.39001 6.66308L7.2506 7.59002L6.81 7.07429Z" fill="black"/>
</g>
<defs>
<clipPath id="clip0">
<rect width="10" height="10" fill="white"/>
</clipPath>
</defs>
</svg>
