<svg width="50" height="50" viewBox="0 0 50 50" fill="none" xmlns="http://www.w3.org/2000/svg">
<path d="M7.35294 0H1.47059C0.658824 0 0 0.658824 0 1.47059V10.2941C0 11.1059 0.658824 11.7647 1.47059 11.7647C2.28235 11.7647 2.94118 11.1059 2.94118 10.2941V2.94118H7.35294C8.16471 2.94118 8.82353 2.28235 8.82353 1.47059C8.82353 0.658824 8.16471 0 7.35294 0Z" fill="black"/>
<path d="M7.35294 47.0589H2.94118V39.7059C2.94118 38.8942 2.28235 38.2354 1.47059 38.2354C0.658824 38.2354 0 38.8942 0 39.7059V48.5295C0 49.3412 0.658824 50.0001 1.47059 50.0001H7.35294C8.16471 50.0001 8.82353 49.3412 8.82353 48.5295C8.82353 47.7177 8.16471 47.0589 7.35294 47.0589Z" fill="black"/>
<path d="M48.5295 0H42.6471C41.8353 0 41.1765 0.658824 41.1765 1.47059C41.1765 2.28235 41.8353 2.94118 42.6471 2.94118H47.0589V10.2941C47.0589 11.1059 47.7177 11.7647 48.5295 11.7647C49.3412 11.7647 50 11.1059 50 10.2941V1.47059C50 0.658824 49.3412 0 48.5295 0Z" fill="black"/>
<path d="M48.5295 38.2354C47.7177 38.2354 47.0589 38.8942 47.0589 39.7059V47.0589H42.6471C41.8353 47.0589 41.1765 47.7177 41.1765 48.5295C41.1765 49.3412 41.8353 50.0001 42.6471 50.0001H48.5295C49.3412 50.0001 50 49.3412 50 48.5295V39.7059C50 38.8942 49.3412 38.2354 48.5295 38.2354Z" fill="black"/>
<path d="M38.4942 29.7294L32.0619 28.4412C31.3795 28.3059 30.8825 27.6971 30.8825 27V25.5235C31.306 24.9353 31.7001 24.15 32.1148 23.3294C32.4295 22.7088 32.903 21.7706 33.1148 21.5529C34.3619 20.3324 35.6913 18.8206 36.0972 16.8441C36.4677 15.0559 36.1001 14.1265 35.6707 13.3912C35.6707 11.9529 35.6707 9.31765 35.1707 7.42353C35.1177 5.12941 34.7001 3.83529 33.6413 2.68824C32.8942 1.87941 31.7942 1.69412 30.9119 1.54412C30.5619 1.48529 30.0824 1.40588 29.9148 1.31176C28.3913 0.464706 26.8413 0.0470588 24.9442 0C21.0619 0.144118 16.2972 2.60882 14.7001 7.03235C14.2177 8.37647 14.2619 10.5824 14.2972 12.3559L14.2589 13.3912C13.8854 14.1265 13.5177 15.0559 13.8854 16.8412C14.2942 18.8206 15.6236 20.3353 16.8707 21.5529C17.0825 21.7765 17.5619 22.7176 17.8795 23.3382C18.2972 24.1529 18.6942 24.9382 19.1177 25.5265V27C19.1177 27.6971 18.6207 28.3059 17.9383 28.4412L11.506 29.7294C7.39716 30.55 4.41187 34.1882 4.41187 38.3794V41.1765C4.41187 42.7971 5.72951 44.1176 7.35304 44.1176H42.6472C44.2707 44.1176 45.5883 42.7971 45.5883 41.1765V38.3794C45.5883 34.1882 42.603 30.55 38.4942 29.7294ZM42.6472 41.1765H7.35304V38.3794C7.35304 35.5853 9.34128 33.1588 12.0795 32.6118L18.5119 31.3235C20.5677 30.9147 22.0589 29.0971 22.0589 27V25C22.0589 24.6059 21.9001 24.2265 21.6207 23.9529C21.3677 23.7059 20.8236 22.6382 20.5001 22C19.9442 20.9147 19.4677 19.9794 18.9266 19.45C17.9501 18.4971 17.0119 17.4471 16.7648 16.2471C16.5766 15.3206 16.7089 15.0588 16.8766 14.7265C17.0266 14.4324 17.253 13.9912 17.253 13.3912L17.2383 12.3C17.2148 11.0147 17.1677 8.86176 17.4677 8.03235C18.6089 4.86765 22.2295 3.04706 24.9619 2.94118C26.3089 2.97647 27.3648 3.25588 28.4883 3.87941C29.0972 4.21765 29.803 4.33529 30.4236 4.44118C30.7736 4.5 31.356 4.59706 31.4795 4.67941C31.8766 5.10882 32.206 5.63235 32.2325 7.65294C32.2354 7.78529 32.256 7.91765 32.2913 8.04412C32.7295 9.54706 32.7295 12.1441 32.7295 13.3882C32.7295 13.9882 32.956 14.4294 33.106 14.7235C33.2766 15.0559 33.4089 15.3176 33.2148 16.25C32.9707 17.4471 32.0354 18.4941 31.0589 19.4471C30.5119 19.9794 30.0383 20.9176 29.4942 22C29.1677 22.6412 28.6295 23.7059 28.3795 23.9529C28.1001 24.2265 27.9413 24.6059 27.9413 25V27C27.9413 29.0941 29.4325 30.9147 31.4883 31.3265L37.9207 32.6147C40.6589 33.1588 42.6472 35.5853 42.6472 38.3794V41.1765Z" fill="black"/>
</svg>
