<svg width="7" height="10" viewBox="0 0 7 10" fill="none" xmlns="http://www.w3.org/2000/svg">
<path d="M6.48438 0.78125H5.35156V0.390625C5.35156 0.174883 5.17668 0 4.96094 0H1.91406C1.69832 0 1.52344 0.174883 1.52344 0.390625V0.78125H0.390625C0.174883 0.78125 0 0.956133 0 1.17188V9.60938C0 9.82512 0.174883 10 0.390625 10H6.48438C6.70012 10 6.875 9.82512 6.875 9.60938V1.17188C6.875 0.956133 6.70012 0.78125 6.48438 0.78125ZM2.30469 0.78125H4.57031V1.5625H2.30469V0.78125ZM6.09375 9.21875H0.78125V1.5625H1.52344V1.95312C1.52344 2.16887 1.69832 2.34375 1.91406 2.34375H4.96094C5.17668 2.34375 5.35156 2.16887 5.35156 1.95312V1.5625H6.09375V9.21875ZM5.35156 3.86719C5.35156 4.08293 5.17668 4.25781 4.96094 4.25781H1.91406C1.69832 4.25781 1.52344 4.08293 1.52344 3.86719C1.52344 3.65145 1.69832 3.47656 1.91406 3.47656H4.96094C5.17668 3.47656 5.35156 3.65145 5.35156 3.86719ZM5.35156 5.78125C5.35156 5.99699 5.17668 6.17188 4.96094 6.17188H1.91406C1.69832 6.17188 1.52344 5.99699 1.52344 5.78125C1.52344 5.56551 1.69832 5.39062 1.91406 5.39062H4.96094C5.17668 5.39062 5.35156 5.56551 5.35156 5.78125ZM3.82812 7.69531C3.82812 7.91105 3.65324 8.08594 3.4375 8.08594H1.91406C1.69832 8.08594 1.52344 7.91105 1.52344 7.69531C1.52344 7.47957 1.69832 7.30469 1.91406 7.30469H3.4375C3.65324 7.30469 3.82812 7.47957 3.82812 7.69531Z" fill="black"/>
</svg>
