<svg width="10" height="10" viewBox="0 0 10 10" fill="none" xmlns="http://www.w3.org/2000/svg">
<path d="M4.9998 0C2.24297 0 0 2.243 0 5C0 7.757 2.24297 10 4.9998 10C7.75682 10 10 7.757 10 5C10 2.243 7.75682 0 4.9998 0ZM4.9998 9.34425C2.6045 9.34425 0.65575 7.3954 0.65575 5C0.65575 2.60457 2.60448 0.655775 4.9998 0.655775C7.3954 0.655775 9.3442 2.6046 9.3442 5C9.34422 7.3954 7.3954 9.34425 4.9998 9.34425Z" fill="black"/>
<path d="M4.90742 3.14935C5.14883 3.14935 5.34463 2.95355 5.34463 2.71213C5.34463 2.4707 5.14883 2.2749 4.90742 2.2749C4.66582 2.2749 4.47021 2.4707 4.47021 2.71213C4.47021 2.95355 4.66582 3.14935 4.90742 3.14935Z" fill="black"/>
<path d="M5.60229 6.98958H5.32807V3.86403C5.32807 3.68296 5.18129 3.53613 5.00024 3.53613H4.39789C4.21684 3.53613 4.07007 3.68296 4.07007 3.86403C4.07007 4.04511 4.21684 4.19191 4.39789 4.19191H4.67232V6.98958H4.39789C4.21684 6.98958 4.07007 7.13638 4.07007 7.31746C4.07007 7.49851 4.21684 7.64533 4.39789 7.64533H5.60229C5.78344 7.64533 5.93022 7.49851 5.93022 7.31746C5.93022 7.13638 5.78344 6.98958 5.60229 6.98958Z" fill="black"/>
</svg>
