<svg width="160" height="72" viewBox="0 0 160 72" fill="none" xmlns="http://www.w3.org/2000/svg">
<rect width="160" height="72" fill="#999999"/>
<path d="M50.7559 43.6235H61.2002V46H47.8345V23.9609H50.7559V43.6235ZM63.3345 37.6597C63.3345 36.0552 63.6473 34.6121 64.2729 33.3306C64.9087 32.049 65.7866 31.0601 66.9067 30.3638C68.0369 29.6675 69.3236 29.3193 70.7666 29.3193C72.9967 29.3193 74.798 30.0913 76.1704 31.6353C77.5529 33.1792 78.2441 35.2327 78.2441 37.7959V37.9927C78.2441 39.5871 77.9364 41.02 77.3208 42.2915C76.7153 43.5529 75.8424 44.5368 74.7021 45.2432C73.5719 45.9495 72.2702 46.3027 70.7969 46.3027C68.5768 46.3027 66.7756 45.5308 65.3931 43.9868C64.0207 42.4429 63.3345 40.3994 63.3345 37.8564V37.6597ZM66.1499 37.9927C66.1499 39.8091 66.5687 41.2673 67.4062 42.3672C68.2539 43.4671 69.3841 44.0171 70.7969 44.0171C72.2197 44.0171 73.3499 43.4621 74.1875 42.3521C75.0251 41.2319 75.4438 39.6678 75.4438 37.6597C75.4438 35.8634 75.015 34.4103 74.1572 33.3003C73.3096 32.1802 72.1794 31.6201 70.7666 31.6201C69.3841 31.6201 68.269 32.1701 67.4214 33.27C66.5737 34.37 66.1499 35.9442 66.1499 37.9927ZM81.0898 37.6748C81.0898 35.1217 81.6802 33.0934 82.8608 31.5898C84.0415 30.0762 85.6056 29.3193 87.5532 29.3193C89.5513 29.3193 91.1104 30.0257 92.2305 31.4385L92.3667 29.6221H94.9248V45.6064C94.9248 47.7256 94.2941 49.3957 93.0327 50.6167C91.7814 51.8377 90.0962 52.4482 87.9771 52.4482C86.7964 52.4482 85.641 52.196 84.5107 51.6914C83.3805 51.1868 82.5177 50.4956 81.9224 49.6177L83.3755 47.9375C84.5763 49.4209 86.0446 50.1626 87.7803 50.1626C89.1426 50.1626 90.2021 49.7791 90.959 49.0122C91.7259 48.2453 92.1094 47.1655 92.1094 45.7729V44.3652C90.9893 45.6569 89.4604 46.3027 87.5229 46.3027C85.6056 46.3027 84.0516 45.5308 82.8608 43.9868C81.6802 42.4429 81.0898 40.3389 81.0898 37.6748ZM83.9053 37.9927C83.9053 39.8394 84.2837 41.2925 85.0405 42.3521C85.7974 43.4015 86.8569 43.9263 88.2192 43.9263C89.9852 43.9263 91.2819 43.124 92.1094 41.5195V34.042C91.2516 32.4779 89.965 31.6958 88.2495 31.6958C86.8872 31.6958 85.8226 32.2256 85.0557 33.2852C84.2887 34.3447 83.9053 35.9139 83.9053 37.9927ZM98.4214 37.6597C98.4214 36.0552 98.7342 34.6121 99.3599 33.3306C99.9956 32.049 100.874 31.0601 101.994 30.3638C103.124 29.6675 104.41 29.3193 105.854 29.3193C108.084 29.3193 109.885 30.0913 111.257 31.6353C112.64 33.1792 113.331 35.2327 113.331 37.7959V37.9927C113.331 39.5871 113.023 41.02 112.408 42.2915C111.802 43.5529 110.929 44.5368 109.789 45.2432C108.659 45.9495 107.357 46.3027 105.884 46.3027C103.664 46.3027 101.862 45.5308 100.48 43.9868C99.1076 42.4429 98.4214 40.3994 98.4214 37.8564V37.6597ZM101.237 37.9927C101.237 39.8091 101.656 41.2673 102.493 42.3672C103.341 43.4671 104.471 44.0171 105.884 44.0171C107.307 44.0171 108.437 43.4621 109.274 42.3521C110.112 41.2319 110.531 39.6678 110.531 37.6597C110.531 35.8634 110.102 34.4103 109.244 33.3003C108.396 32.1802 107.266 31.6201 105.854 31.6201C104.471 31.6201 103.356 32.1701 102.508 33.27C101.661 34.37 101.237 35.9442 101.237 37.9927Z" fill="black"/>
</svg>
