<svg width="131" height="150" viewBox="0 0 131 150" fill="none" xmlns="http://www.w3.org/2000/svg">
<path d="M79.8363 55.6432C81.1725 55.6432 82.2557 54.56 82.2557 53.2238C82.2557 51.8876 81.1725 50.8044 79.8363 50.8044C78.5002 50.8044 77.417 51.8876 77.417 53.2238C77.417 54.56 78.5002 55.6432 79.8363 55.6432Z" fill="#BB86FC"/>
<path d="M50.8031 55.6432C52.1393 55.6432 53.2225 54.56 53.2225 53.2238C53.2225 51.8876 52.1393 50.8044 50.8031 50.8044C49.467 50.8044 48.3838 51.8876 48.3838 53.2238C48.3838 54.56 49.467 55.6432 50.8031 55.6432Z" fill="#BB86FC"/>
<path d="M75.0043 75H70.1656C70.1656 77.6685 67.9954 79.8387 65.3268 79.8387C62.6583 79.8387 60.4881 77.6685 60.4881 75H55.6494C55.6494 80.3371 59.9897 84.6774 65.3268 84.6774C70.6639 84.6774 75.0043 80.3371 75.0043 75Z" fill="#BB86FC"/>
<path d="M43.7035 25.6041L39.7744 22.7783C38.5914 24.4235 37.5656 26.1872 36.7236 28.0211L41.1196 30.0388C41.8333 28.488 42.7019 26.9953 43.7035 25.6041Z" fill="#BB86FC"/>
<path d="M65.3205 14.514V9.67529C57.6512 9.67529 50.2625 12.4672 44.5166 17.5382L47.7174 21.1648C52.5778 16.8777 58.8294 14.514 65.3205 14.514Z" fill="#BB86FC"/>
<path d="M106.749 111.99L81.929 101.833C79.1879 100.713 77.4194 98.0758 77.4194 95.1145V93.3774C84.8637 88.2339 90.5492 80.9758 93.7718 72.5782H94.3549C101.025 72.5782 106.452 67.1516 106.452 60.4815V31.7492C106.452 25.0331 102.075 19.1686 95.7145 17.2234L92.5887 13.575C85.1928 4.94758 74.4339 0 63.0702 0C41.6323 0 24.1936 17.4387 24.1936 38.8766V60.4839C24.1936 67.154 29.6202 72.5807 36.2903 72.5807H36.8734C40.096 80.9782 45.7815 88.2339 53.2258 93.3798V95.1169C53.2258 98.0782 51.4573 100.713 48.7161 101.833L23.896 111.987C9.37984 117.927 0 131.898 0 147.581V150H130.645V147.581C130.645 131.898 121.265 117.927 106.749 111.99ZM81.1815 106.756L78.2637 121.345L69.046 113.666L78.4161 105.467C78.9484 105.786 79.5073 106.072 80.0952 106.314L81.1815 106.756ZM65.3226 116.86L67.8194 118.94L67.7758 118.948L72.1452 145.161H58.5L62.8694 118.948L62.8258 118.94L65.3226 116.86ZM95.3565 67.6403C96.2734 64.0548 96.7742 60.3218 96.7742 56.4944V53.671C99.5831 54.6726 101.613 57.3339 101.613 60.4839C101.613 64.1419 98.8815 67.1468 95.3565 67.6403ZM63.0702 4.83871C73.0186 4.83871 82.4371 9.17177 88.9137 16.725L93.0194 21.5129L93.7669 21.7016C98.3879 22.8581 101.613 26.9879 101.613 31.7492V50.8694C100.2 49.8 98.5718 48.9992 96.7742 48.6339V46.6113C96.7742 42.3871 94.5242 38.4121 90.9024 36.2395L81.8831 30.8274L74.7726 37.9379L65.3226 30.8468L55.8726 37.9355L48.7621 30.825L39.7427 36.2371C36.121 38.4073 33.871 42.3847 33.871 46.6089V48.6315C32.0734 48.9992 30.4452 49.7976 29.0323 50.8669V38.8766C29.0323 20.1097 44.3032 4.83871 63.0702 4.83871ZM29.0323 60.4839C29.0323 57.3339 31.0621 54.6726 33.871 53.671V56.4944C33.871 60.3218 34.3718 64.0548 35.2887 67.6403C31.7637 67.1468 29.0323 64.1419 29.0323 60.4839ZM38.7097 56.4944V46.6089C38.7097 44.0734 40.0597 41.6903 42.2347 40.3863L48.0145 36.9194L55.4202 44.325L65.3226 36.8952L75.2274 44.3226L82.6331 36.9169L88.4129 40.3839C90.5855 41.6879 91.9355 44.0734 91.9355 46.6089V56.4944C91.9355 73.4855 81.2758 88.5436 65.3226 94.2145C49.3694 88.5436 38.7097 73.4879 38.7097 56.4944ZM64.5581 99.0702L65.3226 99.3242L66.0871 99.0702C68.3782 98.3056 70.575 97.3718 72.6653 96.2831C72.8734 98.4411 73.6307 100.454 74.8524 102.157L65.3226 110.494L55.7903 102.152C57.0121 100.449 57.7694 98.4363 57.9774 96.2782C60.0678 97.3694 62.2669 98.3056 64.5581 99.0702ZM52.2266 105.465L61.5968 113.664L52.379 121.343L49.4613 106.754L50.5452 106.311C51.1355 106.072 51.6944 105.786 52.2266 105.465ZM25.7274 116.465L44.9032 108.622L49.2315 130.268L57.1815 123.641L53.596 145.161H29.0323V130.645H24.1936V145.161H4.92339C5.82581 132.448 13.7903 121.35 25.7274 116.465ZM106.452 145.161V130.645H101.613V145.161H77.0492L73.4637 123.644L81.4137 130.27L85.7419 108.624L104.918 116.47C116.855 121.352 124.819 132.45 125.722 145.164H106.452V145.161Z" fill="#BB86FC"/>
<path d="M82.2656 135.483H91.9431V140.322H82.2656V135.483Z" fill="#BB86FC"/>
<path d="M38.7012 135.483H48.3786V140.322H38.7012V135.483Z" fill="#BB86FC"/>
</svg>
