<svg width="9" height="10" viewBox="0 0 9 10" fill="none" xmlns="http://www.w3.org/2000/svg">
<path d="M5.32218 3.70955C5.41126 3.70955 5.48347 3.63733 5.48347 3.54825C5.48347 3.45918 5.41126 3.38696 5.32218 3.38696C5.2331 3.38696 5.16089 3.45918 5.16089 3.54825C5.16089 3.63733 5.2331 3.70955 5.32218 3.70955Z" fill="#A485FD"/>
<path d="M3.38688 3.70955C3.47595 3.70955 3.54817 3.63733 3.54817 3.54825C3.54817 3.45918 3.47595 3.38696 3.38688 3.38696C3.2978 3.38696 3.22559 3.45918 3.22559 3.54825C3.22559 3.63733 3.2978 3.70955 3.38688 3.70955Z" fill="#A485FD"/>
<path d="M5.00028 5H4.6777C4.6777 5.1779 4.53303 5.32258 4.35512 5.32258C4.17722 5.32258 4.03254 5.1779 4.03254 5H3.70996C3.70996 5.35581 3.99932 5.64516 4.35512 5.64516C4.71093 5.64516 5.00028 5.35581 5.00028 5Z" fill="#A485FD"/>
<path d="M2.91356 1.70694L2.65163 1.51855C2.57276 1.62823 2.50437 1.74581 2.44824 1.86807L2.74131 2.00259C2.78889 1.8992 2.84679 1.79968 2.91356 1.70694Z" fill="#A485FD"/>
<path d="M4.35445 0.967601V0.64502C3.84317 0.64502 3.35059 0.831149 2.96753 1.16921L3.18091 1.41099C3.50494 1.12518 3.92172 0.967601 4.35445 0.967601Z" fill="#A485FD"/>
<path d="M7.11661 7.46597L5.46194 6.78887C5.27919 6.71419 5.16129 6.53839 5.16129 6.34097V6.22516C5.65758 5.88226 6.03661 5.39839 6.25145 4.83855H6.29032C6.735 4.83855 7.09677 4.47677 7.09677 4.0321V2.11661C7.09677 1.66887 6.805 1.2779 6.38097 1.14823L6.17258 0.905C5.67952 0.329839 4.96226 0 4.20468 0C2.77548 0 1.6129 1.16258 1.6129 2.59177V4.03226C1.6129 4.47694 1.97468 4.83871 2.41935 4.83871H2.45823C2.67306 5.39855 3.0521 5.88226 3.54839 6.22532V6.34113C3.54839 6.53855 3.43048 6.71419 3.24774 6.78887L1.59306 7.46581C0.625323 7.86177 0 8.79323 0 9.83871V10H8.70968V9.83871C8.70968 8.79323 8.08436 7.86177 7.11661 7.46597ZM5.4121 7.1171L5.21758 8.08968L4.60307 7.57774L5.22774 7.03113C5.26323 7.05242 5.30048 7.07145 5.33968 7.08758L5.4121 7.1171ZM4.35484 7.79064L4.52129 7.92935L4.51839 7.92984L4.80968 9.67742H3.9L4.19129 7.92984L4.18839 7.92935L4.35484 7.79064ZM6.3571 4.50935C6.41823 4.27032 6.45161 4.02145 6.45161 3.76629V3.57806C6.63887 3.64484 6.77419 3.82226 6.77419 4.03226C6.77419 4.27613 6.5921 4.47645 6.3571 4.50935ZM4.20468 0.322581C4.8679 0.322581 5.49581 0.611452 5.92758 1.115L6.20129 1.43419L6.25113 1.44677C6.55919 1.52387 6.77419 1.79919 6.77419 2.11661V3.39129C6.68 3.32 6.57145 3.26661 6.45161 3.24226V3.10742C6.45161 2.82581 6.30161 2.56081 6.06016 2.41597L5.45887 2.05516L4.98484 2.52919L4.35484 2.05645L3.72484 2.52903L3.25081 2.055L2.64952 2.41581C2.40806 2.56048 2.25806 2.82564 2.25806 3.10726V3.2421C2.13823 3.26661 2.02968 3.31984 1.93548 3.39113V2.59177C1.93548 1.34065 2.95355 0.322581 4.20468 0.322581ZM1.93548 4.03226C1.93548 3.82226 2.07081 3.64484 2.25806 3.57806V3.76629C2.25806 4.02145 2.29145 4.27032 2.35258 4.50935C2.11758 4.47645 1.93548 4.27613 1.93548 4.03226ZM2.58065 3.76629V3.10726C2.58065 2.93823 2.67065 2.77935 2.81565 2.69242L3.20097 2.46129L3.69468 2.955L4.35484 2.45968L5.01516 2.95484L5.50887 2.46113L5.89419 2.69226C6.03903 2.77919 6.12903 2.93823 6.12903 3.10726V3.76629C6.12903 4.89903 5.41839 5.9029 4.35484 6.28097C3.29129 5.9029 2.58065 4.89919 2.58065 3.76629ZM4.30387 6.60468L4.35484 6.62161L4.40581 6.60468C4.55855 6.55371 4.705 6.49145 4.84436 6.41887C4.85823 6.56274 4.90871 6.69694 4.99016 6.81048L4.35484 7.36629L3.71935 6.81016C3.80081 6.69661 3.85129 6.56242 3.86516 6.41855C4.00452 6.49129 4.15113 6.55371 4.30387 6.60468ZM3.48177 7.03097L4.10645 7.57758L3.49194 8.08952L3.29742 7.11694L3.36968 7.08742C3.40903 7.07145 3.44629 7.05242 3.48177 7.03097ZM1.71516 7.76435L2.99355 7.24145L3.2821 8.68452L3.8121 8.24274L3.57306 9.67742H1.93548V8.70968H1.6129V9.67742H0.328226C0.388387 8.82984 0.919355 8.09 1.71516 7.76435ZM7.09677 9.67742V8.70968H6.77419V9.67742H5.13661L4.89758 8.2429L5.42758 8.68468L5.71613 7.24161L6.99452 7.76468C7.79032 8.09016 8.32129 8.83 8.38145 9.67758H7.09677V9.67742Z" fill="#A485FD"/>
<path d="M5.48438 9.03223H6.12954V9.35481H5.48438V9.03223Z" fill="#A485FD"/>
<path d="M2.58032 9.03223H3.22548V9.35481H2.58032V9.03223Z" fill="#A485FD"/>
</svg>
