<svg width="18" height="10" viewBox="0 0 18 10" fill="none" xmlns="http://www.w3.org/2000/svg">
<path d="M3.42806 2.67854C3.32902 2.50764 3.10964 2.44905 2.94012 2.54775L2.85712 2.59567V2.49998C2.85712 2.30257 2.69738 2.14282 2.49996 2.14282C2.30255 2.14282 2.14281 2.30257 2.14281 2.49998V2.59567L2.05981 2.54775C1.88925 2.44905 1.67058 2.50764 1.57187 2.67854C1.47317 2.84943 1.53176 3.06777 1.70265 3.16647L1.78545 3.21425L1.70265 3.26203C1.53176 3.36073 1.47317 3.57907 1.57187 3.74996C1.63813 3.86437 1.75813 3.92852 1.88158 3.92852C1.94229 3.92852 2.00366 3.91319 2.05981 3.88074L2.14284 3.83283V3.92852C2.14284 4.12593 2.30259 4.28568 2.5 4.28568C2.69741 4.28568 2.85715 4.12593 2.85715 3.92852V3.83283L2.94015 3.88074C2.9963 3.91319 3.05768 3.92852 3.11838 3.92852C3.24186 3.92852 3.36183 3.86434 3.42809 3.74996C3.5268 3.57907 3.4682 3.36073 3.29731 3.26203L3.21451 3.21425L3.29731 3.16647C3.46817 3.06777 3.52676 2.84943 3.42806 2.67854Z" fill="black"/>
<path d="M6.28523 2.67854C6.18582 2.50764 5.96715 2.44905 5.7973 2.54775L5.71429 2.59567V2.49998C5.71429 2.30257 5.55455 2.14282 5.35714 2.14282C5.15973 2.14282 4.99999 2.30257 4.99999 2.49998V2.59567L4.91698 2.54775C4.74572 2.44905 4.52742 2.50764 4.42905 2.67854C4.33034 2.84943 4.38894 3.06777 4.55983 3.16647L4.64263 3.21425L4.55983 3.26203C4.38894 3.36073 4.33034 3.57907 4.42905 3.74996C4.49531 3.86437 4.61531 3.92852 4.73876 3.92852C4.79946 3.92852 4.86083 3.91319 4.91698 3.88074L4.99999 3.83283V3.92852C4.99999 4.12593 5.15973 4.28568 5.35714 4.28568C5.55455 4.28568 5.71429 4.12593 5.71429 3.92852V3.83283L5.7973 3.88074C5.85344 3.91319 5.91482 3.92852 5.97552 3.92852C6.099 3.92852 6.21897 3.86434 6.28523 3.74996C6.38394 3.57907 6.32534 3.36073 6.15445 3.26203L6.07165 3.21425L6.15445 3.16647C6.32534 3.06777 6.38394 2.84943 6.28523 2.67854Z" fill="black"/>
<path d="M9.14242 2.67857C9.04338 2.50768 8.82467 2.44908 8.65448 2.54779L8.57148 2.59567V2.49998C8.57148 2.30257 8.41173 2.14282 8.21432 2.14282C8.01691 2.14282 7.85717 2.30257 7.85717 2.49998V2.59567L7.77416 2.54775C7.60327 2.44905 7.3846 2.50764 7.28623 2.67854C7.18752 2.84943 7.24612 3.06777 7.41701 3.16647L7.49981 3.21425L7.41701 3.26203C7.24612 3.36073 7.18752 3.57907 7.28623 3.74996C7.35249 3.86437 7.47249 3.92852 7.59594 3.92852C7.65664 3.92852 7.71801 3.91319 7.77416 3.88074L7.85717 3.83283V3.92856C7.85717 4.12597 8.01691 4.28571 8.21432 4.28571C8.41173 4.28571 8.57148 4.12597 8.57148 3.92856V3.83287L8.65448 3.88078C8.71063 3.91322 8.772 3.92856 8.83271 3.92856C8.95619 3.92856 9.07615 3.86437 9.14242 3.75C9.24112 3.5791 9.18253 3.36077 9.01163 3.26206L8.92883 3.21428L9.01163 3.1665C9.18253 3.0678 9.24112 2.84946 9.14242 2.67857Z" fill="black"/>
<path d="M16.4286 5.00002V4.64286C16.4286 3.96431 16.1547 3.34972 15.7143 2.89878V1.42858C15.7143 0.640713 15.0736 0 14.2857 0H1.42858C0.64068 3.34821e-05 0 0.640713 0 1.42858V5.00002C0 5.78788 0.64068 6.4286 1.42858 6.4286H10.7143V9.28573C10.7143 9.67947 11.0348 10 11.4285 10H16.4285C16.8223 10 17.1428 9.67947 17.1428 9.28573V5.71429C17.1428 5.32054 16.8223 5.00002 16.4286 5.00002ZM15.7143 4.64286V5.00002H12.1429V4.64286C12.1429 3.65829 12.944 2.85716 13.9286 2.85716C14.9131 2.85716 15.7143 3.65829 15.7143 4.64286ZM10.7143 5.71429H1.42858C1.03483 5.71429 0.714307 5.39377 0.714307 5.00002V1.42858C0.714307 1.03483 1.03483 0.714307 1.42858 0.714307H14.2857C14.6795 0.714307 15 1.03483 15 1.42858V2.39364C14.674 2.23758 14.3134 2.14285 13.9286 2.14285C13.0644 2.14285 12.3017 2.58415 11.8525 3.25272L11.7859 3.21428L11.8687 3.1665C12.0396 3.0678 12.0982 2.84946 11.9995 2.67857C11.9004 2.50768 11.6811 2.44908 11.5116 2.54779L11.4285 2.5957V2.50001C11.4285 2.3026 11.2688 2.14285 11.0714 2.14285C10.874 2.14285 10.7142 2.3026 10.7142 2.50001V2.5957L10.6312 2.54779C10.4607 2.44908 10.242 2.50768 10.1433 2.67857C10.0446 2.84946 10.1032 3.0678 10.2741 3.1665L10.3569 3.21428L10.2741 3.26206C10.1032 3.36077 10.0446 3.5791 10.1433 3.75C10.2096 3.8644 10.3296 3.92856 10.453 3.92856C10.5137 3.92856 10.5751 3.91322 10.6312 3.88078L10.7142 3.83286V3.92859C10.7142 4.126 10.874 4.28574 11.0714 4.28574C11.2688 4.28574 11.4285 4.126 11.4285 3.92859V3.8329L11.5116 3.88081C11.5256 3.88895 11.5416 3.88677 11.5562 3.8928C11.4806 4.13109 11.4285 4.37986 11.4285 4.64286V5.00002C11.0348 5.00002 10.7143 5.32054 10.7143 5.71429ZM16.4286 9.28573H11.4285V5.71429H16.4285V9.28573H16.4286Z" fill="black"/>
<path d="M13.5714 7.74744V8.21441C13.5714 8.41182 13.7312 8.57157 13.9286 8.57157C14.126 8.57157 14.2857 8.41182 14.2857 8.21441V7.74744C14.4953 7.62275 14.6429 7.40384 14.6429 7.14299C14.6429 6.74924 14.3224 6.42871 13.9286 6.42871C13.5349 6.42871 13.2144 6.74924 13.2144 7.14299C13.2143 7.40388 13.3619 7.62275 13.5714 7.74744Z" fill="black"/>
</svg>
