<svg width="15" height="16" viewBox="0 0 15 16" fill="none" xmlns="http://www.w3.org/2000/svg">
<g filter="url(#filter0_i)">
<circle cx="7.5" cy="7.5" r="7.5" fill="white"/>
</g>
<path fill-rule="evenodd" clip-rule="evenodd" d="M3.52734 4.37109C3.52734 4.51671 3.40929 4.63477 3.26367 4.63477C3.11802 4.63477 3 4.51671 3 4.37109V3.26367C3 3.11802 3.11802 3 3.26367 3H4.37102C4.51668 3 4.6347 3.11802 4.6347 3.26367C4.6347 3.40929 4.51668 3.52734 4.37102 3.52734H3.52734V4.37109ZM7.16602 10.0312C7.02036 10.0312 6.90234 9.9132 6.90234 9.76758C6.90234 9.62193 7.02036 9.50391 7.16602 9.50391H7.39453C7.54015 9.50391 7.6582 9.62193 7.6582 9.76758C7.6582 9.9132 7.54015 10.0312 7.39453 10.0312H7.16602ZM7.35938 6.51562C7.35938 6.66124 7.24132 6.7793 7.0957 6.7793C6.95005 6.7793 6.83203 6.66124 6.83203 6.51562V6.28711C6.83203 6.14146 6.95005 6.02344 7.0957 6.02344C7.24132 6.02344 7.35938 6.14146 7.35938 6.28711V6.51562ZM8.97656 9.46875C8.83091 9.46875 8.71289 9.3507 8.71289 9.20508C8.71289 9.05943 8.83091 8.94141 8.97656 8.94141H9.20508C9.3507 8.94141 9.46875 9.05943 9.46875 9.20508C9.46875 9.3507 9.3507 9.46875 9.20508 9.46875H8.97656ZM3.53613 7.76367H4.76309C4.75957 7.78072 4.75781 7.79834 4.75781 7.81641V8.60742C4.75781 8.75304 4.87583 8.87109 5.02148 8.87109C5.1671 8.87109 5.28516 8.75304 5.28516 8.60742V7.81641C5.28516 7.79834 5.2834 7.78072 5.27988 7.76367H7.60547V8.0625H6.2168C6.07114 8.0625 5.95312 8.18052 5.95312 8.32617C5.95312 8.47179 6.07114 8.58984 6.2168 8.58984H7.86914C8.01476 8.58984 8.13281 8.47179 8.13281 8.32617V7.76367H9.11719V8.53711C9.11719 8.68273 9.23521 8.80078 9.38086 8.80078C9.52648 8.80078 9.64453 8.68273 9.64453 8.53711V7.76367H11.4639C11.6095 7.76367 11.7275 7.64562 11.7275 7.5C11.7275 7.35435 11.6095 7.23633 11.4639 7.23633H10.2598V6.72656H10.5234C10.6691 6.72656 10.7871 6.60851 10.7871 6.46289C10.7871 6.31724 10.6691 6.19922 10.5234 6.19922H9.20508C9.05943 6.19922 8.94141 6.31724 8.94141 6.46289C8.94141 6.60851 9.05943 6.72656 9.20508 6.72656H9.73242V7.23633H8.13281V6.55078C8.13281 6.40513 8.01476 6.28711 7.86914 6.28711C7.72349 6.28711 7.60547 6.40513 7.60547 6.55078V7.23633H3.53613C3.39048 7.23633 3.27246 7.35435 3.27246 7.5C3.27246 7.64562 3.39048 7.76367 3.53613 7.76367ZM8.09766 4.5293C8.09766 4.38364 8.21568 4.26562 8.36133 4.26562C8.50695 4.26562 8.625 4.38364 8.625 4.5293V5.91797C8.625 6.06359 8.50695 6.18164 8.36133 6.18164C8.21568 6.18164 8.09766 6.06359 8.09766 5.91797V4.5293ZM6.5332 4.63477H7.13086V4.5293C7.13086 4.38364 7.24888 4.26562 7.39453 4.26562C7.54015 4.26562 7.6582 4.38364 7.6582 4.5293V5.4082C7.6582 5.55382 7.54015 5.67188 7.39453 5.67188C7.24888 5.67188 7.13086 5.55382 7.13086 5.4082V5.16211H6.5332V5.28516C6.5332 5.43077 6.41515 5.54883 6.26953 5.54883C6.12388 5.54883 6.00586 5.43077 6.00586 5.28516V4.5293C6.00586 4.38364 6.12388 4.26562 6.26953 4.26562C6.41515 4.26562 6.5332 4.38364 6.5332 4.5293V4.63477ZM4.42376 6.70898C4.27818 6.70898 4.16009 6.59093 4.16009 6.44531C4.16009 6.29966 4.27818 6.18164 4.42376 6.18164H6.375C6.52062 6.18164 6.63867 6.29966 6.63867 6.44531C6.63867 6.59093 6.52062 6.70898 6.375 6.70898H4.42376ZM10.1719 10.207V10.4707C10.1719 10.6163 10.2899 10.7344 10.4355 10.7344C10.5812 10.7344 10.6992 10.6163 10.6992 10.4707V8.88867C10.6992 8.74312 10.5812 8.625 10.4355 8.625C10.2899 8.625 10.1719 8.74312 10.1719 8.88867V9.67969H9.29297C9.14732 9.67969 9.0293 9.79781 9.0293 9.94336C9.0293 10.089 9.14732 10.207 9.29297 10.207H10.1719ZM7.48242 10.7344H8.27344C8.41905 10.7344 8.53711 10.6163 8.53711 10.4707V9.11719C8.53711 8.97153 8.41905 8.85352 8.27344 8.85352C8.12778 8.85352 8.00977 8.97153 8.00977 9.11719V10.207H7.48242C7.33677 10.207 7.21875 10.3251 7.21875 10.4707C7.21875 10.6163 7.33677 10.7344 7.48242 10.7344ZM6.02344 9.13477C6.02344 8.98911 6.14146 8.87109 6.28711 8.87109C6.43273 8.87109 6.55078 8.98911 6.55078 9.13477V9.9082C6.55078 10.0538 6.43273 10.1719 6.28711 10.1719C6.14146 10.1719 6.02344 10.0538 6.02344 9.9082V9.13477ZM4.42383 9.09961H5.53125C5.67687 9.09961 5.79492 9.21763 5.79492 9.36328V10.4707C5.79492 10.6163 5.67687 10.7344 5.53125 10.7344H4.42383C4.27818 10.7344 4.16016 10.6163 4.16016 10.4707V9.36328C4.16016 9.21763 4.27818 9.09961 4.42383 9.09961ZM5.26758 9.62695H4.6875V10.207H5.26758V9.62695ZM9.46875 4.26562H10.5762C10.7218 4.26562 10.8398 4.38364 10.8398 4.5293V5.63672C10.8398 5.78234 10.7218 5.90039 10.5762 5.90039H9.46875C9.3231 5.90039 9.20508 5.78234 9.20508 5.63672V4.5293C9.20508 4.38364 9.3231 4.26562 9.46875 4.26562ZM10.3125 4.79297H9.73242V5.37305H10.3125V4.79297ZM4.42383 4.26562C4.27818 4.26562 4.16016 4.38364 4.16016 4.5293V5.63672C4.16016 5.78234 4.27818 5.90039 4.42383 5.90039H5.53125C5.67687 5.90039 5.79492 5.78234 5.79492 5.63672V4.5293C5.79492 4.38364 5.67687 4.26562 5.53125 4.26562H4.42383ZM5.26758 4.79297V5.37305H4.6875V4.79297H5.26758ZM11.4727 10.6289C11.4727 10.4833 11.5907 10.3652 11.7363 10.3652C11.8819 10.3652 12 10.4833 12 10.6289V11.7363C12 11.8819 11.8819 12 11.7363 12H10.6289C10.4834 12 10.3653 11.8819 10.3653 11.7363C10.3653 11.5907 10.4834 11.4727 10.6289 11.4727H11.4727V10.6289ZM3 10.6289V11.7363C3 11.8819 3.11802 12 3.26367 12H4.37102C4.51668 12 4.6347 11.8819 4.6347 11.7363C4.6347 11.5907 4.51668 11.4727 4.37102 11.4727H3.52734V10.6289C3.52734 10.4833 3.40929 10.3652 3.26367 10.3652C3.11802 10.3652 3 10.4833 3 10.6289ZM12 4.37109V3.26367C12 3.11802 11.8819 3 11.7363 3H10.6289C10.4834 3 10.3653 3.11802 10.3653 3.26367C10.3653 3.40929 10.4834 3.52734 10.6289 3.52734H11.4727V4.37109C11.4727 4.51671 11.5907 4.63477 11.7363 4.63477C11.8819 4.63477 12 4.51671 12 4.37109Z" fill="black"/>
<defs>
<filter id="filter0_i" x="0" y="0" width="15" height="15" filterUnits="userSpaceOnUse" color-interpolation-filters="sRGB">
<feFlood flood-opacity="0" result="BackgroundImageFix"/>
<feBlend mode="normal" in="SourceGraphic" in2="BackgroundImageFix" result="shape"/>
<feColorMatrix in="SourceAlpha" type="matrix" values="0 0 0 0 0 0 0 0 0 0 0 0 0 0 0 0 0 0 127 0" result="hardAlpha"/>
<feOffset/>
<feGaussianBlur stdDeviation="1.5"/>
<feComposite in2="hardAlpha" operator="arithmetic" k2="-1" k3="1"/>
<feColorMatrix type="matrix" values="0 0 0 0 0 0 0 0 0 0 0 0 0 0 0 0 0 0 1 0"/>
<feBlend mode="normal" in2="shape" result="effect1_innerShadow"/>
</filter>
</defs>
</svg>
