<svg width="20" height="20" viewBox="0 0 20 20" fill="none" xmlns="http://www.w3.org/2000/svg">
<path fill-rule="evenodd" clip-rule="evenodd" d="M1.17188 3.04688C1.17188 3.37047 0.909531 3.63281 0.585938 3.63281C0.262266 3.63281 0 3.37047 0 3.04688V0.585938C0 0.262266 0.262266 0 0.585938 0H3.04672C3.37039 0 3.63266 0.262266 3.63266 0.585938C3.63266 0.909531 3.37039 1.17188 3.04672 1.17188H1.17188V3.04688ZM9.25781 15.625C8.93414 15.625 8.67188 15.3627 8.67188 15.0391C8.67188 14.7154 8.93414 14.4531 9.25781 14.4531H9.76562C10.0892 14.4531 10.3516 14.7154 10.3516 15.0391C10.3516 15.3627 10.0892 15.625 9.76562 15.625H9.25781ZM9.6875 7.8125C9.6875 8.13609 9.42516 8.39844 9.10156 8.39844C8.77789 8.39844 8.51562 8.13609 8.51562 7.8125V7.30469C8.51562 6.98102 8.77789 6.71875 9.10156 6.71875C9.42516 6.71875 9.6875 6.98102 9.6875 7.30469V7.8125ZM13.2812 14.375C12.9576 14.375 12.6953 14.1127 12.6953 13.7891C12.6953 13.4654 12.9576 13.2031 13.2812 13.2031H13.7891C14.1127 13.2031 14.375 13.4654 14.375 13.7891C14.375 14.1127 14.1127 14.375 13.7891 14.375H13.2812ZM1.19141 10.5859H3.91797C3.91016 10.6238 3.90625 10.663 3.90625 10.7031V12.4609C3.90625 12.7845 4.16852 13.0469 4.49219 13.0469C4.81578 13.0469 5.07812 12.7845 5.07812 12.4609V10.7031C5.07812 10.663 5.07422 10.6238 5.06641 10.5859H10.2344V11.25H7.14844C6.82477 11.25 6.5625 11.5123 6.5625 11.8359C6.5625 12.1595 6.82477 12.4219 7.14844 12.4219H10.8203C11.1439 12.4219 11.4062 12.1595 11.4062 11.8359V10.5859H13.5938V12.3047C13.5938 12.6283 13.856 12.8906 14.1797 12.8906C14.5033 12.8906 14.7656 12.6283 14.7656 12.3047V10.5859H18.8086C19.1322 10.5859 19.3945 10.3236 19.3945 10C19.3945 9.67633 19.1322 9.41406 18.8086 9.41406H16.1328V8.28125H16.7188C17.0423 8.28125 17.3047 8.01891 17.3047 7.69531C17.3047 7.37164 17.0423 7.10938 16.7188 7.10938H13.7891C13.4654 7.10938 13.2031 7.37164 13.2031 7.69531C13.2031 8.01891 13.4654 8.28125 13.7891 8.28125H14.9609V9.41406H11.4062V7.89062C11.4062 7.56695 11.1439 7.30469 10.8203 7.30469C10.4966 7.30469 10.2344 7.56695 10.2344 7.89062V9.41406H1.19141C0.867734 9.41406 0.605469 9.67633 0.605469 10C0.605469 10.3236 0.867734 10.5859 1.19141 10.5859ZM11.3281 3.39844C11.3281 3.07477 11.5904 2.8125 11.9141 2.8125C12.2377 2.8125 12.5 3.07477 12.5 3.39844V6.48438C12.5 6.80797 12.2377 7.07031 11.9141 7.07031C11.5904 7.07031 11.3281 6.80797 11.3281 6.48438V3.39844ZM7.85156 3.63281H9.17969V3.39844C9.17969 3.07477 9.44195 2.8125 9.76562 2.8125C10.0892 2.8125 10.3516 3.07477 10.3516 3.39844V5.35156C10.3516 5.67516 10.0892 5.9375 9.76562 5.9375C9.44195 5.9375 9.17969 5.67516 9.17969 5.35156V4.80469H7.85156V5.07812C7.85156 5.40172 7.58922 5.66406 7.26562 5.66406C6.94195 5.66406 6.67969 5.40172 6.67969 5.07812V3.39844C6.67969 3.07477 6.94195 2.8125 7.26562 2.8125C7.58922 2.8125 7.85156 3.07477 7.85156 3.39844V3.63281ZM3.16391 8.24219C2.84039 8.24219 2.57797 7.97984 2.57797 7.65625C2.57797 7.33258 2.84039 7.07031 3.16391 7.07031H7.5C7.82359 7.07031 8.08594 7.33258 8.08594 7.65625C8.08594 7.97984 7.82359 8.24219 7.5 8.24219H3.16391ZM15.9375 16.0156V16.6016C15.9375 16.9252 16.1998 17.1875 16.5234 17.1875C16.847 17.1875 17.1094 16.9252 17.1094 16.6016V13.0859C17.1094 12.7625 16.847 12.5 16.5234 12.5C16.1998 12.5 15.9375 12.7625 15.9375 13.0859V14.8438H13.9844C13.6607 14.8438 13.3984 15.1062 13.3984 15.4297C13.3984 15.7533 13.6607 16.0156 13.9844 16.0156H15.9375ZM9.96094 17.1875H11.7188C12.0423 17.1875 12.3047 16.9252 12.3047 16.6016V13.5938C12.3047 13.2701 12.0423 13.0078 11.7188 13.0078C11.3951 13.0078 11.1328 13.2701 11.1328 13.5938V16.0156H9.96094C9.63727 16.0156 9.375 16.2779 9.375 16.6016C9.375 16.9252 9.63727 17.1875 9.96094 17.1875ZM6.71875 13.6328C6.71875 13.3091 6.98102 13.0469 7.30469 13.0469C7.62828 13.0469 7.89062 13.3091 7.89062 13.6328V15.3516C7.89062 15.6752 7.62828 15.9375 7.30469 15.9375C6.98102 15.9375 6.71875 15.6752 6.71875 15.3516V13.6328ZM3.16406 13.5547H5.625C5.94859 13.5547 6.21094 13.817 6.21094 14.1406V16.6016C6.21094 16.9252 5.94859 17.1875 5.625 17.1875H3.16406C2.84039 17.1875 2.57812 16.9252 2.57812 16.6016V14.1406C2.57812 13.817 2.84039 13.5547 3.16406 13.5547ZM5.03906 14.7266H3.75V16.0156H5.03906V14.7266ZM14.375 2.8125H16.8359C17.1595 2.8125 17.4219 3.07477 17.4219 3.39844V5.85938C17.4219 6.18297 17.1595 6.44531 16.8359 6.44531H14.375C14.0513 6.44531 13.7891 6.18297 13.7891 5.85938V3.39844C13.7891 3.07477 14.0513 2.8125 14.375 2.8125ZM16.25 3.98438H14.9609V5.27344H16.25V3.98438ZM3.16406 2.8125C2.84039 2.8125 2.57812 3.07477 2.57812 3.39844V5.85938C2.57812 6.18297 2.84039 6.44531 3.16406 6.44531H5.625C5.94859 6.44531 6.21094 6.18297 6.21094 5.85938V3.39844C6.21094 3.07477 5.94859 2.8125 5.625 2.8125H3.16406ZM5.03906 3.98438V5.27344H3.75V3.98438H5.03906ZM18.8281 16.9531C18.8281 16.6295 19.0904 16.3672 19.4141 16.3672C19.7377 16.3672 20 16.6295 20 16.9531V19.4141C20 19.7377 19.7377 20 19.4141 20H16.9532C16.6297 20 16.3673 19.7377 16.3673 19.4141C16.3673 19.0904 16.6297 18.8281 16.9532 18.8281H18.8281V16.9531ZM0 16.9531V19.4141C0 19.7377 0.262266 20 0.585938 20H3.04672C3.37039 20 3.63266 19.7377 3.63266 19.4141C3.63266 19.0904 3.37039 18.8281 3.04672 18.8281H1.17188V16.9531C1.17188 16.6295 0.909531 16.3672 0.585938 16.3672C0.262266 16.3672 0 16.6295 0 16.9531ZM20 3.04688V0.585938C20 0.262266 19.7377 0 19.4141 0H16.9532C16.6297 0 16.3673 0.262266 16.3673 0.585938C16.3673 0.909531 16.6297 1.17188 16.9532 1.17188H18.8281V3.04688C18.8281 3.37047 19.0904 3.63281 19.4141 3.63281C19.7377 3.63281 20 3.37047 20 3.04688Z" fill="black"/>
</svg>
