<svg width="149" height="101" viewBox="0 0 149 101" fill="none" xmlns="http://www.w3.org/2000/svg">
<g id="RecoverPasswordIcon">
<path id="Vector" d="M32.6877 2.34897C30.8867 4.14999 30.9993 7.18919 33.0254 8.87763C35.1641 10.6786 35.1641 12.2545 33.0254 12.2545C28.8606 12.2545 18.5048 17.3199 13.4394 21.935C6.57309 28.1259 1.0575 38.5943 0.156994 47.2617C-1.0812 59.6436 5.10977 74.6145 15.0153 82.6065C20.0807 86.7713 23.4576 87.5593 25.5963 84.9703C27.2847 82.9442 26.1591 80.4678 22.6696 78.5542C13.8897 73.8266 6.79822 59.7562 8.03641 49.4004C9.83742 34.7672 22.6696 20.1339 33.7008 20.1339H36.1772L33.5882 22.948C31.4495 25.3119 31.1119 26.3249 32.0124 27.7882C32.6877 28.8013 34.1511 29.9269 35.2767 30.0395C37.9782 30.6023 49.3471 19.346 49.3471 16.0817C49.3471 13.8304 37.1903 0.998215 35.0516 0.998215C34.4888 0.998215 33.4757 1.56103 32.6877 2.34897Z" fill="#BB86FC"/>
<path id="Vector_2" d="M54.9787 17.3218C52.9526 19.7981 53.9657 21.8243 59.4813 25.9891C67.4733 32.0675 70.9627 38.8213 71.6381 49.2897C72.0883 56.944 71.7507 58.9701 69.3868 64.148C67.8109 67.5249 65.222 71.8023 63.5335 73.8285C60.3818 77.6556 50.3637 83.1712 46.6491 83.1712C44.6229 83.1712 44.6229 83.0586 46.4239 81.0325C48.9003 78.331 48.3375 73.7159 45.5234 73.2657C43.3847 72.8154 30.2148 84.7471 30.2148 87.1109C30.2148 87.7863 33.1415 91.2758 36.8561 94.8778C41.8089 99.718 44.0601 101.294 46.0863 100.956C49.5757 100.506 50.1385 97.129 47.2119 93.9773L44.8481 91.5009L50.3637 90.0376C66.7979 85.8727 78.2793 71.8023 79.6301 54.4676L80.3055 45.4625L108.221 45.1249C126.119 45.0123 136.925 45.2374 138.276 46.0254C140.302 47.151 140.527 48.3892 140.527 58.2948C140.527 67.0747 140.189 69.6636 138.726 70.9018C135.799 73.2657 133.21 70.7893 132.872 65.0485C132.31 58.0696 131.297 57.2817 122.517 57.2817C113.737 57.2817 112.724 58.0696 112.161 65.0485C111.485 74.3913 104.507 74.0536 104.507 64.7108C104.507 62.1219 103.944 59.4204 103.156 58.6324C102.368 57.8445 98.6533 57.2817 94.2633 57.2817C86.0462 57.2817 83.4572 58.8576 84.808 62.9098C85.3708 64.8234 86.4964 65.1611 91.1115 65.1611C96.5146 65.1611 96.6271 65.2737 96.6271 68.6506C96.6271 72.7028 101.467 78.1059 106.082 79.3441C112.048 80.8074 118.802 76.0797 120.153 69.4385C121.166 64.4857 124.768 63.5852 124.768 68.3129C124.768 74.729 132.647 80.9199 138.951 79.3441C140.639 78.8938 143.341 77.0928 145.142 75.2918C148.406 72.14 148.406 71.9149 148.406 58.9701C148.406 37.0203 148.406 37.0203 107.433 37.0203H77.6039L75.6904 33.3057C72.6512 27.565 68.5989 22.6122 63.6461 19.0102C58.4682 15.1831 57.0049 14.9579 54.9787 17.3218Z" fill="#BB86FC"/>
<path id="Vector_3" d="M33.5868 34.8809C19.4039 40.8468 18.3908 59.4197 31.8984 67.074C37.414 70.2258 41.6914 70.3383 47.5447 67.4117C60.0392 61.3333 61.5025 44.899 50.3587 36.9071C46.3065 34.093 37.8642 33.0799 33.5868 34.8809ZM46.7567 44.2237C49.2331 46.3624 49.9085 47.9383 49.9085 51.4277C49.9085 56.9433 47.0944 60.3202 42.0291 61.3333C35.3879 62.5715 30.3225 58.2941 30.21 51.3152C30.21 42.5352 39.8904 38.3704 46.7567 44.2237Z" fill="#BB86FC"/>
</g>
</svg>
