<svg width="15" height="10" viewBox="0 0 15 10" fill="none" xmlns="http://www.w3.org/2000/svg">
<path d="M3.26877 0.134897C3.08867 0.314999 3.09993 0.618918 3.30254 0.787763C3.51641 0.967865 3.51641 1.12545 3.30254 1.12545C2.88606 1.12545 1.85048 1.63199 1.34394 2.0935C0.657309 2.71259 0.10575 3.75943 0.0156994 4.62617C-0.10812 5.86436 0.510977 7.36145 1.50153 8.16065C2.00807 8.57713 2.34576 8.65593 2.55963 8.39703C2.72847 8.19442 2.61591 7.94678 2.26696 7.75542C1.38897 7.28266 0.679822 5.87562 0.803641 4.84004C0.983742 3.37672 2.26696 1.91339 3.37008 1.91339H3.61772L3.35882 2.1948C3.14495 2.43119 3.11119 2.53249 3.20124 2.67882C3.26877 2.78013 3.41511 2.89269 3.52767 2.90395C3.79782 2.96023 4.93471 1.8346 4.93471 1.50817C4.93471 1.28304 3.71903 -0.000178655 3.50516 -0.000178655C3.44888 -0.000178655 3.34757 0.0561026 3.26877 0.134897Z" fill="black"/>
<path d="M5.49763 1.63218C5.29502 1.87981 5.39632 2.08243 5.94788 2.49891C6.74708 3.10675 7.09603 3.78213 7.16357 4.82897C7.20859 5.5944 7.17482 5.79701 6.93844 6.3148C6.78085 6.65249 6.52196 7.08023 6.35311 7.28285C6.03793 7.66556 5.03612 8.21712 4.66466 8.21712C4.46205 8.21712 4.46205 8.20586 4.64215 8.00325C4.88979 7.7331 4.83351 7.27159 4.5521 7.22657C4.33823 7.18154 3.02124 8.37471 3.02124 8.61109C3.02124 8.67863 3.3139 9.02758 3.68536 9.38778C4.18064 9.8718 4.40577 10.0294 4.60838 9.99562C4.95733 9.95059 5.01361 9.6129 4.72094 9.29773L4.48456 9.05009L5.03612 8.90376C6.67954 8.48727 7.82769 7.08023 7.96276 5.34676L8.0303 4.44625L10.8219 4.41249C12.6116 4.40123 13.6922 4.42374 13.8273 4.50254C14.0299 4.6151 14.0524 4.73892 14.0524 5.72947C14.0524 6.60747 14.0187 6.86636 13.8723 6.99018C13.5797 7.22657 13.3208 6.97893 13.287 6.40485C13.2307 5.70696 13.1294 5.62817 12.2514 5.62817C11.3734 5.62817 11.2721 5.70696 11.2158 6.40485C11.1483 7.33913 10.4504 7.30536 10.4504 6.37108C10.4504 6.11219 10.3941 5.84204 10.3153 5.76324C10.2365 5.68445 9.86508 5.62817 9.42609 5.62817C8.60437 5.62817 8.34548 5.78576 8.48055 6.19098C8.53684 6.38234 8.6494 6.41611 9.11091 6.41611C9.65121 6.41611 9.66247 6.42737 9.66247 6.76506C9.66247 7.17028 10.1465 7.71059 10.608 7.83441C11.2046 7.98074 11.88 7.50797 12.015 6.84385C12.1163 6.34857 12.4765 6.25852 12.4765 6.73129C12.4765 7.3729 13.2645 7.99199 13.8948 7.83441C14.0637 7.78938 14.3338 7.60928 14.5139 7.42918C14.8404 7.114 14.8404 7.09149 14.8404 5.79701C14.8404 3.60203 14.8404 3.60203 10.7431 3.60203H7.76015L7.56879 3.23057C7.26487 2.6565 6.85964 2.16122 6.36437 1.80102C5.84658 1.41831 5.70024 1.39579 5.49763 1.63218Z" fill="black"/>
<path d="M3.35893 3.38809C1.94063 3.98468 1.83933 5.84197 3.19008 6.6074C3.74164 6.92258 4.16938 6.93383 4.75471 6.64117C6.00416 6.03333 6.15049 4.3899 5.03612 3.59071C4.63089 3.3093 3.78667 3.20799 3.35893 3.38809ZM4.67592 4.32237C4.92356 4.53624 4.99109 4.69383 4.99109 5.04277C4.99109 5.59433 4.70969 5.93202 4.20315 6.03333C3.53903 6.15715 3.0325 5.72941 3.02124 5.03152C3.02124 4.15352 3.98928 3.73704 4.67592 4.32237Z" fill="black"/>
</svg>
