<svg width="9" height="10" viewBox="0 0 9 10" fill="none" xmlns="http://www.w3.org/2000/svg">
<path d="M6.73828 0.292969C6.73828 0.131172 6.60711 0 6.44531 0C6.28352 0 6.15234 0.131172 6.15234 0.292969V0.390625H6.73828V0.292969Z" fill="black"/>
<path d="M4.49219 0.292969C4.49219 0.131172 4.36102 0 4.19922 0C4.03742 0 3.90625 0.131172 3.90625 0.292969V0.390625H4.49219V0.292969Z" fill="black"/>
<path d="M2.24609 0.292969C2.24609 0.131172 2.11492 0 1.95312 0C1.79133 0 1.66016 0.131172 1.66016 0.292969V0.390625H2.24609V0.292969Z" fill="black"/>
<path d="M4.19922 6.48438C4.36102 6.48438 4.49219 6.35321 4.49219 6.19141C4.49219 6.0296 4.36102 5.89844 4.19922 5.89844C4.03742 5.89844 3.90625 6.0296 3.90625 6.19141C3.90625 6.35321 4.03742 6.48438 4.19922 6.48438Z" fill="black"/>
<path d="M8.10547 0.390625H6.73828V1.54367C6.91324 1.64514 7.03125 1.83438 7.03125 2.05078C7.03125 2.37387 6.76842 2.63672 6.44531 2.63672C6.12221 2.63672 5.85938 2.37387 5.85938 2.05078C5.85938 1.83438 5.97738 1.64514 6.15234 1.54367V0.390625H4.49219V1.54367C4.66715 1.64514 4.78516 1.83438 4.78516 2.05078C4.78516 2.37387 4.52232 2.63672 4.19922 2.63672C3.87611 2.63672 3.61328 2.37387 3.61328 2.05078C3.61328 1.83438 3.73129 1.64514 3.90625 1.54367V0.390625H2.24609V1.54367C2.42105 1.64514 2.53906 1.83438 2.53906 2.05078C2.53906 2.37387 2.27623 2.63672 1.95312 2.63672C1.63002 2.63672 1.36719 2.37387 1.36719 2.05078C1.36719 1.83438 1.4852 1.64514 1.66016 1.54367V0.390625H0.292969C0.131172 0.390625 0 0.521797 0 0.683594V9.70703C0 9.86883 0.131172 10 0.292969 10H8.10547C8.26727 10 8.39844 9.86883 8.39844 9.70703V0.683594C8.39844 0.521797 8.26727 0.390625 8.10547 0.390625ZM6.77566 7.00232L6.18973 8.01721C6.10881 8.15732 5.92965 8.20531 5.78953 8.12445L5.36334 7.8784C5.27299 7.94074 5.17773 7.99564 5.07812 8.04279V8.53516C5.07812 8.69695 4.94695 8.82812 4.78516 8.82812H3.61328C3.45148 8.82812 3.32031 8.69695 3.32031 8.53516V8.04277C3.2207 7.99563 3.12545 7.94074 3.0351 7.87838L2.60893 8.12443C2.46877 8.20533 2.28961 8.15732 2.20873 8.01719L1.62279 7.00231C1.54189 6.86219 1.5899 6.68301 1.73002 6.60211L2.15549 6.35645C2.15076 6.30104 2.14844 6.24623 2.14844 6.19141C2.14844 6.13658 2.15076 6.08176 2.15549 6.02633L1.73002 5.78068C1.66273 5.74184 1.61363 5.67785 1.59352 5.60279C1.5734 5.52773 1.58393 5.44777 1.62279 5.38049L2.20873 4.36561C2.24758 4.29832 2.31156 4.24922 2.38662 4.2291C2.46168 4.209 2.54166 4.21953 2.60893 4.25838L3.0351 4.50443C3.12547 4.44209 3.22072 4.38719 3.32031 4.34004V3.84766C3.32031 3.68586 3.45148 3.55469 3.61328 3.55469H4.78516C4.94695 3.55469 5.07812 3.68586 5.07812 3.84766V4.34004C5.17773 4.38719 5.27297 4.44207 5.36336 4.50443L5.78953 4.25838C5.92967 4.1775 6.10883 4.22547 6.18973 4.36561L6.77566 5.38049C6.81451 5.44777 6.82504 5.52775 6.80494 5.60279C6.78482 5.67785 6.73572 5.74184 6.66844 5.78068L6.24295 6.02633C6.24768 6.08176 6.25 6.13658 6.25 6.19141C6.25 6.24623 6.24768 6.30103 6.24295 6.35646L6.66844 6.60213C6.80857 6.68303 6.85658 6.86221 6.77566 7.00232Z" fill="black"/>
<path d="M5.7799 5.61705L6.12167 5.41973L5.82871 4.91229L5.48681 5.10967C5.37926 5.17178 5.24424 5.15932 5.1499 5.07857C5.01371 4.96211 4.85811 4.87238 4.68731 4.81193C4.57031 4.77051 4.49211 4.65986 4.49211 4.53576V4.14062H3.90618V4.53576C3.90618 4.65986 3.82797 4.77053 3.71098 4.81193C3.5402 4.87238 3.38458 4.96211 3.2484 5.07857C3.15405 5.15928 3.01901 5.17176 2.91149 5.10967L2.56962 4.91229L2.27665 5.41973L2.61843 5.61705C2.72585 5.67906 2.78257 5.80199 2.76005 5.92395C2.74272 6.01766 2.7343 6.10514 2.7343 6.19141C2.7343 6.27766 2.74272 6.36514 2.76001 6.45885C2.78251 6.5808 2.72581 6.70373 2.61839 6.76574L2.27661 6.96307L2.56958 7.47051L2.91145 7.27313C3.01899 7.21105 3.15399 7.22348 3.24837 7.30422C3.3845 7.42066 3.54014 7.51039 3.71096 7.57088C3.82795 7.6123 3.90614 7.72295 3.90614 7.84705V8.24219H4.49207V7.84707C4.49207 7.72297 4.57026 7.61232 4.68725 7.5709C4.85807 7.51041 5.01371 7.42068 5.14986 7.30424C5.2442 7.22352 5.37922 7.21104 5.48677 7.27314L5.82867 7.47053L6.12164 6.96309L5.77986 6.76576C5.67246 6.70375 5.61574 6.58084 5.63824 6.45889C5.65556 6.3651 5.66398 6.27762 5.66398 6.19141C5.66398 6.10518 5.65556 6.0177 5.63828 5.92393C5.61576 5.80197 5.6725 5.67906 5.7799 5.61705ZM4.19914 7.07031C3.71452 7.07031 3.32024 6.67604 3.32024 6.19141C3.32024 5.70678 3.71452 5.3125 4.19914 5.3125C4.68377 5.3125 5.07805 5.70678 5.07805 6.19141C5.07805 6.67604 4.68377 7.07031 4.19914 7.07031Z" fill="black"/>
</svg>
