<svg width="53" height="50" viewBox="0 0 53 50" fill="none" xmlns="http://www.w3.org/2000/svg">
<path d="M10.4883 34.4197C10.144 34.2271 9.73703 34.1788 9.35729 34.2856C8.97756 34.3925 8.65566 34.6463 8.46307 34.9906C8.19767 35.4663 7.90776 35.9284 7.59335 36.3735C7.20885 36.9485 6.79645 37.5066 6.36568 38.0476C5.85392 38.69 5.96008 39.6251 6.6025 40.1368C7.24492 40.6486 8.18065 40.5424 8.69241 39.9C9.17219 39.2977 9.63019 38.675 10.1032 37.9673C10.4468 37.4746 10.7653 36.9649 11.0573 36.4402C11.4567 35.7249 11.2022 34.8212 10.4883 34.4197Z" fill="black"/>
<path d="M20.2062 12.1038C19.5346 12.2406 18.8779 12.4447 18.247 12.7122C17.6291 12.9742 17.0377 13.2954 16.4824 13.6711C15.9284 14.0426 15.4126 14.468 14.9417 14.9402C14.4701 15.4118 14.0447 15.927 13.6711 16.4789C12.9103 17.6032 12.3788 18.8662 12.1052 20.196C11.9637 20.8881 11.8922 21.5931 11.8929 22.2995C11.8929 23.0311 11.8616 23.7756 11.7976 24.5119C11.7336 25.2476 11.6404 25.9567 11.5138 26.6685C11.3872 27.381 11.2375 28.0752 11.0531 28.768L10.8952 29.3342C10.787 29.7139 10.8347 30.1208 11.0266 30.4652C11.2185 30.8102 11.5397 31.0641 11.9194 31.1716C12.0521 31.2097 12.1889 31.2288 12.3271 31.2281C12.9906 31.2281 13.5738 30.7871 13.7555 30.1488C13.8154 29.9391 13.8746 29.7282 13.9283 29.5233C14.1345 28.7441 14.3088 27.9547 14.4421 27.1816C14.5837 26.3861 14.6892 25.5742 14.7593 24.7685C14.8287 23.9627 14.8661 23.1168 14.8661 22.2995C14.8648 21.7959 14.9144 21.2944 15.0152 20.801C15.1118 20.3219 15.2574 19.8544 15.4487 19.4052C15.8223 18.5212 16.364 17.7188 17.0425 17.041C17.378 16.7042 17.7461 16.4007 18.1415 16.1359C18.5389 15.8671 18.9616 15.6378 19.4032 15.4506C19.8524 15.2601 20.3199 15.1151 20.7976 15.0178C21.2917 14.9164 21.7953 14.8654 22.2996 14.8661C23.1203 14.8661 23.7858 14.2005 23.7858 13.3798C23.7858 12.5584 23.1203 11.8928 22.2996 11.8928C21.5966 11.8928 20.8949 11.9636 20.2062 12.1038Z" fill="black"/>
<path d="M32.6049 25.3843C32.6716 24.3615 32.7056 23.3237 32.7056 22.2995C32.7063 21.5951 32.6348 20.8928 32.4933 20.2034C32.2204 18.8737 31.6889 17.6106 30.928 16.4864C30.5558 15.9358 30.1311 15.422 29.6616 14.9525C29.535 14.8245 29.4023 14.7 29.2703 14.5809C28.879 14.2086 28.3168 14.0786 27.8017 14.2399C27.2865 14.4012 26.8993 14.8293 26.7904 15.358C26.6815 15.8868 26.8673 16.4333 27.277 16.7851C27.3702 16.8702 27.4628 16.958 27.5546 17.0498C27.8929 17.3874 28.1977 17.7569 28.4645 18.153C29.0069 18.9567 29.386 19.8591 29.5813 20.8084C29.682 21.2991 29.7323 21.7986 29.7323 22.2995C29.7323 23.2699 29.701 24.2329 29.6377 25.1876C29.5751 26.1411 29.4785 27.0877 29.3553 28.0227C29.2315 28.9578 29.0756 29.884 28.8912 30.8013C28.781 31.3424 28.6625 31.8807 28.5346 32.4142C28.3481 33.2111 28.8408 34.008 29.6357 34.1986C29.7494 34.2265 29.8657 34.2401 29.9821 34.2401C30.6694 34.2401 31.2669 33.7685 31.4275 33.1002C31.563 32.5292 31.6902 31.9548 31.8066 31.3784C32.0012 30.3998 32.1693 29.4083 32.3027 28.4052C32.4368 27.4014 32.5361 26.4024 32.6049 25.3843Z" fill="black"/>
<path d="M28.6416 37.3263C28.2748 37.18 27.8651 37.1855 27.5024 37.342C27.1404 37.4978 26.8545 37.7918 26.7089 38.1593L26.4782 38.7296C26.1298 39.5741 25.7548 40.4051 25.3547 41.2217C24.9545 42.0383 24.5305 42.84 24.0834 43.6267C23.6771 44.3406 23.9262 45.2491 24.6401 45.6553C25.354 46.0616 26.2625 45.8126 26.6688 45.0987C27.1458 44.2589 27.599 43.4028 28.0291 42.5297C28.4592 41.6566 28.8594 40.7698 29.2289 39.8688L29.4753 39.2577C29.6216 38.8909 29.6155 38.4812 29.4589 38.1192C29.3024 37.7571 29.0084 37.472 28.6416 37.3263Z" fill="black"/>
<path d="M25.6906 31.5241C25.9254 30.5339 26.1228 29.5233 26.2847 28.5195C26.4474 27.5158 26.5644 26.4623 26.6434 25.4435C26.7223 24.4255 26.7591 23.3523 26.7591 22.2995C26.7597 22.0001 26.7291 21.7006 26.6686 21.4073C26.5535 20.8363 26.3262 20.2946 25.9996 19.8121C25.5151 19.0962 24.8352 18.5348 24.0403 18.1945C23.2074 17.842 22.2859 17.7508 21.3999 17.9332C21.1134 17.9924 20.833 18.0795 20.5628 18.1932C20.2974 18.3048 20.0443 18.4429 19.8061 18.6049C19.5699 18.7635 19.3501 18.9452 19.1494 19.1466C18.9466 19.3473 18.7642 19.5678 18.6049 19.8047C18.1061 20.541 17.8393 21.41 17.8393 22.2995C17.8393 23.1202 18.5049 23.7858 19.3263 23.7858C20.147 23.7858 20.8126 23.1202 20.8126 22.2995C20.8133 22.1995 20.8235 22.1001 20.8439 22.0021C20.8629 21.9089 20.8915 21.8177 20.929 21.7299C20.9671 21.6394 21.0147 21.5529 21.0698 21.4713C21.1222 21.3937 21.1821 21.3216 21.2481 21.2556C21.3175 21.1882 21.3917 21.1263 21.4713 21.0718C21.5516 21.0181 21.6367 20.9725 21.7259 20.935C21.8116 20.8983 21.9014 20.8704 21.9933 20.8513C22.1927 20.8125 22.3982 20.8125 22.5983 20.8513C22.6943 20.8711 22.7875 20.8996 22.878 20.9377C22.9665 20.9759 23.0515 21.0221 23.1318 21.0759C23.2108 21.131 23.285 21.1929 23.3537 21.2603C23.4211 21.3277 23.4816 21.4012 23.5347 21.4801C23.5878 21.5598 23.6327 21.6435 23.6701 21.7312C23.7082 21.8224 23.7375 21.917 23.7566 22.0143C23.7756 22.1083 23.7858 22.2035 23.7858 22.2995C23.7858 23.2747 23.7491 24.2547 23.6729 25.2135C23.5973 26.1724 23.4884 27.1149 23.3401 28.0629C23.191 29.0116 23.0127 29.9242 22.7977 30.8402C22.582 31.7562 22.3322 32.6599 22.0539 33.5398C21.7762 34.4198 21.4591 35.3106 21.1147 36.1537C20.7697 36.9962 20.3907 37.8585 19.9878 38.6806C19.5849 39.5026 19.1534 40.3009 18.6852 41.0964C18.217 41.892 17.7339 42.6515 17.2167 43.4007L15.9379 45.2443C15.614 45.6798 15.5534 46.2569 15.7794 46.7503C16.0053 47.2437 16.4824 47.5751 17.0234 47.6139C17.5644 47.6534 18.0843 47.3948 18.379 46.9388L19.6618 45.0925C20.2212 44.2807 20.7547 43.4443 21.2495 42.6025C21.7449 41.7613 22.2267 40.8644 22.6548 39.9933C23.0828 39.1222 23.5007 38.1974 23.8736 37.2698C24.2465 36.3423 24.5814 35.4086 24.8876 34.4456C25.1938 33.482 25.4599 32.5068 25.6906 31.5241Z" fill="black"/>
<path d="M17.8933 36.1326C18.2676 35.2854 18.6127 34.4143 18.9175 33.5412C19.2224 32.6687 19.4974 31.7575 19.7308 30.8537C19.9642 29.95 20.0874 29.4559 20.2493 28.5032C20.3868 27.6934 19.8417 26.925 19.0319 26.7876C18.222 26.6501 17.4537 27.1952 17.3163 28.005C17.1978 28.7142 17.0427 29.4171 16.8508 30.1099C16.6384 30.934 16.3887 31.7588 16.1076 32.5632C15.8266 33.3676 15.5128 34.1557 15.1753 34.9254C14.8384 35.6957 14.4546 36.4613 14.0558 37.1908C13.6577 37.9211 13.2174 38.6601 12.7655 39.3495C12.3137 40.0395 11.8203 40.7337 11.3119 41.3911C10.9689 41.8089 10.8805 42.3806 11.0799 42.8828C11.2799 43.3857 11.7373 43.7396 12.2735 43.8083C12.8098 43.8764 13.3413 43.6484 13.6604 43.2122C14.2198 42.4922 14.7561 41.7402 15.2529 40.9821C15.7497 40.224 16.224 39.4312 16.667 38.6186C17.1101 37.8054 17.5157 36.9799 17.8933 36.1326Z" fill="black"/>
<path d="M7.22662 30.8061C7.44371 30.2814 7.64107 29.7492 7.82141 29.2035C8.00107 28.6577 8.15691 28.1064 8.29234 27.5491C8.42776 26.991 8.54345 26.4187 8.63873 25.8375C8.734 25.2564 8.80205 24.6779 8.84833 24.0879C8.89461 23.4979 8.91979 22.9017 8.91979 22.2995C8.91979 21.4781 8.25423 20.8125 7.43282 20.8125C6.6121 20.8125 5.94654 21.4781 5.94654 22.2995C5.94654 22.8228 5.92409 23.34 5.88393 23.8531C5.84378 24.3656 5.78322 24.8698 5.70291 25.3666C5.62261 25.8627 5.52257 26.3582 5.40552 26.8529C5.28779 27.3483 5.14964 27.8165 4.99652 28.2813C4.8434 28.7468 4.67259 29.215 4.4834 29.6703C4.29489 30.1249 4.08937 30.5625 3.86684 31.0082C3.64363 31.454 3.40748 31.8705 3.15432 32.2869C2.90185 32.7027 2.6344 33.1104 2.35198 33.5058C2.03485 33.9379 1.97496 34.5075 2.19545 34.9961C2.41595 35.4848 2.88211 35.8169 3.41633 35.8652C3.94986 35.9135 4.46843 35.6712 4.77331 35.2302C5.0986 34.7756 5.40688 34.3081 5.69815 33.8283C5.99554 33.3479 6.26163 32.8559 6.51615 32.3564C6.76999 31.8568 7.00817 31.3308 7.22662 30.8061Z" fill="black"/>
<path d="M27.503 9.96902C29.8937 10.9817 31.9387 12.6666 33.3917 14.8185L33.5965 15.1159C33.8953 15.5167 34.1396 15.955 34.3233 16.4198C34.5282 16.9125 34.9807 17.2582 35.5102 17.3256C36.0396 17.3923 36.5643 17.1704 36.8848 16.7437C37.2054 16.3177 37.2734 15.7515 37.0618 15.2615C36.8025 14.615 36.4629 14.0025 36.0525 13.4391L35.8545 13.1505C35.2686 12.2821 34.5996 11.4716 33.8578 10.7305C32.3647 9.23949 30.5981 8.04992 28.6552 7.22648C27.665 6.80863 26.636 6.49014 25.5833 6.2751C23.409 5.83343 21.168 5.83343 18.993 6.2751C16.901 6.70247 14.9146 7.53884 13.1465 8.73522C11.4057 9.91186 9.90653 11.4104 8.72921 13.1505C8.15824 13.9787 7.67303 14.8627 7.28172 15.7896C6.96255 16.5457 7.31643 17.4174 8.0725 17.7373C8.25488 17.8155 8.45155 17.8557 8.65095 17.8557C9.24778 17.8557 9.78744 17.4977 10.0195 16.9479C10.3359 16.1979 10.7286 15.484 11.1927 14.8158C12.6504 12.6639 14.7016 10.981 17.0963 9.97106C17.9048 9.62875 18.7453 9.36811 19.6055 9.19185C21.3857 8.83049 23.2204 8.83049 25.0007 9.19185C25.8582 9.36811 26.6966 9.62875 27.503 9.96902Z" fill="black"/>
<path d="M2.97326 22.2995C2.96714 17.2404 4.9502 12.3814 8.49441 8.77122C9.05517 8.18256 9.03952 7.25295 8.45902 6.68403C7.87853 6.11511 6.94892 6.11783 6.37183 6.68947C2.28116 10.855 -0.00746758 16.4619 1.83065e-05 22.2995C1.83065e-05 23.1202 0.665578 23.7858 1.4863 23.7858C2.3077 23.7858 2.97326 23.1202 2.97326 22.2995Z" fill="black"/>
<path d="M11.5955 5.9361C11.8657 5.9361 12.1297 5.86261 12.3611 5.7231C13.1383 5.25693 13.9467 4.84521 14.7818 4.49066C15.9502 3.99727 17.165 3.62026 18.4076 3.36574C20.9787 2.84377 23.6287 2.84377 26.2004 3.36574C26.7611 3.47871 27.3096 3.61685 27.8507 3.77882C28.359 3.93126 28.9109 3.80128 29.2975 3.43719C29.684 3.07243 29.8473 2.52937 29.7249 2.01284C29.603 1.49564 29.2145 1.08324 28.7054 0.930116C28.0786 0.74297 27.4424 0.583726 26.7952 0.451703C23.8315 -0.150568 20.7766 -0.150568 17.8128 0.451703C16.3762 0.744331 14.973 1.17987 13.6235 1.75084C12.6592 2.15984 11.7248 2.63485 10.8272 3.17383C10.2542 3.51818 9.98129 4.20279 10.161 4.84657C10.3399 5.49036 10.9272 5.93542 11.5955 5.93474V5.9361Z" fill="black"/>
<path d="M33.0466 5.3704C33.1315 5.62688 33.2843 5.85443 33.4895 6.03023C34.1763 6.62146 34.8213 7.25953 35.4204 7.94075C36.2561 8.8949 36.9958 9.92956 37.6281 11.0292C38.9318 13.3058 39.7648 15.8215 40.0777 18.4269C40.1467 18.9948 40.188 19.5589 40.2043 20.1234C40.2194 20.6539 40.5163 21.137 40.9834 21.3895C41.4512 21.6418 42.0181 21.6261 42.4699 21.3475C42.9226 21.0692 43.192 20.5707 43.1773 20.0394C43.1579 19.3855 43.1091 18.7314 43.031 18.0755C42.6711 15.0727 41.7108 12.1727 40.2074 9.54855C39.478 8.27676 38.6234 7.08155 37.6572 5.97994C36.9658 5.19308 36.2212 4.4554 35.4273 3.77271C34.9203 3.33699 34.1846 3.29314 33.6299 3.66607C33.0751 4.03835 32.8372 4.73578 33.0479 5.36997L33.0466 5.3704Z" fill="black"/>
<path d="M49.4691 33.4632H47.6298V29.2662C47.6298 26.2894 45.157 23.8677 42.1175 23.8677C39.078 23.8677 36.6052 26.2894 36.6052 29.2662V33.4632H34.7697C33.0811 33.4632 31.7073 34.837 31.7073 36.5256V46.9377C31.7073 48.6263 33.0811 50.0001 34.7697 50.0001H49.4691C51.1577 50.0001 52.5315 48.6263 52.5315 46.9377V36.5256C52.5315 34.837 51.1577 33.4632 49.4691 33.4632ZM38.6468 29.2662C38.6468 27.4151 40.2038 25.9093 42.1175 25.9093C44.0313 25.9093 45.5882 27.4151 45.5882 29.2662V33.4632H38.6468V29.2662ZM50.4899 46.9377C50.4899 47.5006 50.032 47.9585 49.4691 47.9585H34.7697C34.2068 47.9585 33.7489 47.5006 33.7489 46.9377V36.5256C33.7489 35.9627 34.2068 35.5048 34.7697 35.5048H49.4691C50.032 35.5048 50.4899 35.9627 50.4899 36.5256V46.9377Z" fill="black"/>
<ellipse cx="42.1193" cy="42.5483" rx="1.53119" ry="1.5312" fill="black"/>
</svg>
