<svg width="27" height="26" viewBox="0 0 27 26" fill="none" xmlns="http://www.w3.org/2000/svg">
<path d="M23.0016 18.6478L20.1624 21.4869C20.0773 21.572 19.9655 21.6149 19.8536 21.6149C19.7418 21.6149 19.63 21.572 19.5448 21.4869L18.1253 20.0673C17.9545 19.8966 17.9545 19.6205 18.1253 19.4497C18.296 19.2789 18.5721 19.2789 18.7429 19.4497L19.8536 20.5605L22.384 18.0302C22.5548 17.8593 22.8308 17.8593 23.0016 18.0302C23.1724 18.2009 23.1724 18.4769 23.0016 18.6478Z" fill="black" stroke="black"/>
<path fill-rule="evenodd" clip-rule="evenodd" d="M23.2526 0H3.3218C1.49038 0 0 1.49038 0 3.3218V21.0381C0 22.8695 1.49038 24.3599 3.3218 24.3599H14.5069V22.1453H3.3218C2.7117 22.1453 2.21453 21.6493 2.21453 21.0381V5.53633H24.3599V15.1125H26.5744V3.3218C26.5744 1.49038 25.084 0 23.2526 0ZM24.3599 3.90138H2.21453C2.21453 3.27835 2.21453 2.83864 2.41527 2.52911C2.99217 1.63958 5.22694 1.82525 13.8841 1.82525C21.5163 1.82525 23.588 1.64618 24.1503 2.48229C24.3599 2.7938 24.3599 3.24625 24.3599 3.90138Z" fill="black"/>
</svg>
