<svg width="75" height="75" viewBox="0 0 75 75" fill="none" xmlns="http://www.w3.org/2000/svg">
<g clip-path="url(#clip0)">
<path d="M7.97614 62.6705H40.6837C44.2548 69.9756 52.2633 73.9973 60.2552 72.4988C68.2472 70.9997 74.255 64.3491 74.9367 56.2463C75.6176 48.1441 70.8054 40.5837 63.1757 37.7715V26.1754C63.1704 21.7717 59.6013 18.2033 55.1976 18.1986H54.8432V17.9981C54.8386 13.5943 51.2702 10.0252 46.8664 10.0199H34.115C33.9699 10.0199 33.832 9.95923 33.7343 9.85233L29.1075 4.79137C27.5951 3.13979 25.4592 2.19754 23.2198 2.19556H7.97614C3.57303 2.20084 0.00527872 5.76859 0 10.1717V54.6931C0.00461889 59.0968 3.57303 62.6652 7.97614 62.6705ZM72.6351 54.7313C72.6252 63.4029 65.5979 70.4309 56.9257 70.4408C48.2494 70.4408 41.2162 63.4069 41.2162 54.7313C41.2162 46.0551 48.2494 39.0219 56.9257 39.0219C65.5979 39.0318 72.6252 46.0591 72.6351 54.7313ZM55.1976 20.5635C58.2955 20.5668 60.8069 23.0768 60.8108 26.1754V37.0786C54.4843 35.691 47.8991 37.7926 43.5455 42.5883C39.1925 47.384 37.7362 54.1421 39.7276 60.305H14.3541C15.8375 58.8144 16.6695 56.7966 16.6689 54.6937V26.1754C16.6722 23.0775 19.1822 20.5675 22.2801 20.5635H55.1976ZM2.36486 10.1717C2.36816 7.07441 4.87885 4.56372 7.97614 4.56042H23.2198C24.7955 4.56174 26.2979 5.22488 27.3622 6.38686L31.9864 11.4452C32.5321 12.0437 33.3047 12.3848 34.115 12.3848H46.8664C49.965 12.3888 52.4751 14.8994 52.4784 17.9981V18.1986H22.2801C17.877 18.2039 14.3093 21.7723 14.304 26.1754V54.6931C14.3 57.7917 11.7894 60.3017 8.69075 60.305H7.97614C4.87885 60.301 2.36816 57.791 2.36486 54.6931V10.1717Z" fill="#5E2CD6"/>
<path d="M51.0734 53.0572C50.6498 52.5603 49.9029 52.5016 49.4067 52.9259C48.9098 53.3495 48.8511 54.0958 49.2754 54.5926L53.3294 59.3395C53.7465 59.8278 54.4769 59.8937 54.9751 59.4886L64.4161 51.8074C64.9228 51.395 64.9994 50.6508 64.5876 50.144C64.1752 49.6372 63.4303 49.5607 62.9235 49.9731L54.3779 56.9251L51.0734 53.0572Z" fill="#5E2CD6"/>
</g>
<defs>
<clipPath id="clip0">
<rect width="75" height="75" fill="white"/>
</clipPath>
</defs>
</svg>
