<svg width="25" height="20" viewBox="0 0 25 20" fill="none" xmlns="http://www.w3.org/2000/svg">
<path d="M24.0571 0H0.409899C0.185635 0 0 0.162944 0 0.387259V11.9481C0 12.1726 0.185635 12.335 0.409899 12.335H5.68528V19.6127C5.68528 19.8371 5.8799 20 6.10416 20H18.363C18.5873 20 18.7819 19.8371 18.7819 19.6127V12.335H24.0571C24.2814 12.335 24.467 12.1726 24.467 11.9481V0.387259C24.467 0.162944 24.2814 0 24.0571 0ZM5.68528 7.7665H3.45178V4.56853H5.68528V7.7665ZM8.4264 19.1878H6.49746V17.3096H6.82233C7.71467 17.3096 8.4264 18.0532 8.4264 18.9456V19.1878ZM17.9695 19.1878H15.9391V18.9226C15.9391 18.0305 16.6884 17.3096 17.5807 17.3096H17.9695V19.1878ZM17.9695 16.4975H17.5807C16.2406 16.4975 15.1269 17.5824 15.1269 18.9226V19.1878H9.23858V18.9456C9.23858 17.6055 8.16244 16.4975 6.82233 16.4975H6.49746V4.56853H17.9695V16.4975ZM23.6548 11.5228H18.7817V8.57868H21.4296C21.6539 8.57868 21.8274 8.37716 21.8274 8.15289V4.18274C21.8274 3.95848 21.6539 3.75635 21.4296 3.75635H3.03736C2.8131 3.75635 2.63959 3.95822 2.63959 4.18274V8.15315C2.63959 8.37716 2.8131 8.57868 3.03736 8.57868H5.68528V11.5228H0.812183V0.812183H23.6548V11.5228ZM18.7817 7.7665V4.56853H21.0152V7.7665H18.7817Z" fill="white"/>
<path d="M12.2336 13.9083C13.08 13.9083 13.9074 13.6573 14.6111 13.187C15.3149 12.7168 15.8634 12.0484 16.1873 11.2664C16.5112 10.4844 16.5959 9.62395 16.4307 8.79381C16.2656 7.96368 15.858 7.20116 15.2595 6.60268C14.6609 6.0042 13.8984 5.59665 13.0682 5.43156C12.2381 5.26647 11.3776 5.35126 10.5957 5.6752C9.81373 5.99914 9.14539 6.54769 8.67519 7.25147C8.20499 7.95526 7.95405 8.78267 7.9541 9.62907C7.95545 10.7636 8.40676 11.8513 9.20904 12.6535C10.0113 13.4558 11.099 13.907 12.2336 13.9083ZM12.2336 6.16155C12.9194 6.16156 13.5897 6.36492 14.1599 6.74592C14.7301 7.12691 15.1745 7.66843 15.4369 8.30199C15.6993 8.93555 15.768 9.6327 15.6342 10.3053C15.5004 10.9779 15.1702 11.5957 14.6852 12.0806C14.2003 12.5655 13.5825 12.8957 12.91 13.0295C12.2374 13.1632 11.5402 13.0946 10.9067 12.8321C10.2731 12.5697 9.7316 12.1253 9.35062 11.5551C8.96963 10.9849 8.76628 10.3146 8.76628 9.62882C8.76733 8.70955 9.13297 7.82824 9.783 7.17823C10.433 6.52822 11.3143 6.16259 12.2336 6.16155Z" fill="white"/>
<path d="M12.2918 11.4261C12.2531 11.4199 12.2137 11.4199 12.175 11.4261C12.0081 11.4114 11.8527 11.3347 11.7394 11.2112C11.6261 11.0876 11.5632 10.9262 11.563 10.7586C11.563 10.6509 11.5202 10.5476 11.444 10.4714C11.3679 10.3953 11.2646 10.3525 11.1569 10.3525C11.0492 10.3525 10.9459 10.3953 10.8697 10.4714C10.7936 10.5476 10.7508 10.6509 10.7508 10.7586C10.7512 11.0809 10.8565 11.3942 11.0507 11.6514C11.2449 11.9086 11.5175 12.0956 11.8273 12.1842V12.4874C11.8273 12.5951 11.8701 12.6984 11.9463 12.7746C12.0224 12.8507 12.1257 12.8935 12.2334 12.8935C12.3411 12.8935 12.4444 12.8507 12.5206 12.7746C12.5967 12.6984 12.6395 12.5951 12.6395 12.4874V12.1842C12.9838 12.0866 13.2812 11.8677 13.4768 11.5679C13.6723 11.2681 13.7527 10.9077 13.7032 10.5532C13.6537 10.1987 13.4776 9.87413 13.2075 9.63936C12.9373 9.40459 12.5913 9.27551 12.2334 9.27595C12.1008 9.27596 11.9712 9.23665 11.8609 9.16298C11.7506 9.08931 11.6647 8.98459 11.6139 8.86207C11.5631 8.73956 11.5499 8.60474 11.5757 8.47467C11.6016 8.3446 11.6655 8.22512 11.7592 8.13134C11.853 8.03757 11.9725 7.9737 12.1025 7.94783C12.2326 7.92195 12.3674 7.93523 12.4899 7.98597C12.6125 8.03672 12.7172 8.12266 12.7909 8.23293C12.8645 8.34319 12.9039 8.47283 12.9039 8.60545C12.9039 8.71315 12.9466 8.81644 13.0228 8.8926C13.099 8.96875 13.2022 9.01154 13.31 9.01154C13.4177 9.01154 13.5209 8.96875 13.5971 8.8926C13.6733 8.81644 13.716 8.71315 13.716 8.60545C13.7156 8.28318 13.6103 7.96981 13.4161 7.71264C13.2219 7.45547 12.9493 7.26845 12.6395 7.17981V6.95443C12.6395 6.84673 12.5967 6.74344 12.5206 6.66728C12.4444 6.59112 12.3411 6.54834 12.2334 6.54834C12.1257 6.54834 12.0224 6.59112 11.9463 6.66728C11.8701 6.74344 11.8273 6.84673 11.8273 6.95443V7.17981C11.4833 7.27775 11.1863 7.49677 10.991 7.79649C10.7958 8.0962 10.7155 8.4564 10.765 8.81066C10.8144 9.16492 10.9903 9.48935 11.2602 9.72413C11.5301 9.9589 11.8757 10.0882 12.2334 10.0881C12.407 10.0868 12.5743 10.1528 12.7001 10.2724C12.8259 10.3919 12.9005 10.5556 12.908 10.729C12.9156 10.9023 12.8556 11.0719 12.7407 11.2019C12.6257 11.332 12.4648 11.4123 12.2918 11.4261Z" fill="white"/>
</svg>
