<?xml version="1.0" encoding="UTF-8"?>
<!DOCTYPE svg PUBLIC "-//W3C//DTD SVG 1.1//EN" "http://www.w3.org/Graphics/SVG/1.1/DTD/svg11.dtd">

<svg xmlns="http://www.w3.org/2000/svg" xml:space="preserve" width="210mm" height="297mm" version="1.1" style="shape-rendering:geometricPrecision; text-rendering:geometricPrecision; image-rendering:optimizeQuality; fill-rule:evenodd; clip-rule:evenodd"
viewBox="0 0 21000 29700"
 xmlns:xlink="http://www.w3.org/1999/xlink">
 <defs>
  <style type="text/css">
   <![CDATA[
    .fil2 {fill:black}
    .fil4 {fill:aqua}
    .fil10 {fill:#333333}
    .fil7 {fill:gray}
    .fil3 {fill:red}
    .fil1 {fill:white}
    .fil8 {fill:black;fill-rule:nonzero}
    .fil9 {fill:white;fill-rule:nonzero}
    .fil6 {fill:url(#id12)}
    .fil0 {fill:url(#id13)}
    .fil5 {fill:url(#id14)}
   ]]>
  </style>
    <mask id="id0">
  <linearGradient id="id1" gradientUnits="userSpaceOnUse" x1="24371" y1="-1271.86" x2="35242.9" y2="8465.82">
   <stop offset="0" style="stop-opacity:1; stop-color:white"/>
   <stop offset="1" style="stop-opacity:0; stop-color:white"/>
  </linearGradient>
     <rect style="fill:url(#id1)" x="24758" y="3729" width="9779" height="8082"/>
    </mask>
    <mask id="id2">
  <linearGradient id="id3" gradientUnits="userSpaceOnUse" x1="24371" y1="14047.6" x2="35242.9" y2="23785.3">
   <stop offset="0" style="stop-opacity:1; stop-color:white"/>
   <stop offset="1" style="stop-opacity:0; stop-color:white"/>
  </linearGradient>
     <rect style="fill:url(#id3)" x="24758" y="19048" width="9779" height="8082"/>
    </mask>
    <mask id="id4">
  <linearGradient id="id5" gradientUnits="userSpaceOnUse" x1="14848.5" y1="11367.1" x2="14484.8" y2="9027.15">
   <stop offset="0" style="stop-opacity:1; stop-color:white"/>
   <stop offset="1" style="stop-opacity:0; stop-color:white"/>
  </linearGradient>
     <rect style="fill:url(#id5)" x="8931" y="8996" width="9431" height="1575"/>
    </mask>
    <mask id="id6">
  <linearGradient id="id7" gradientUnits="userSpaceOnUse" x1="2183.93" y1="8582.5" x2="14472.3" y2="20792.5">
   <stop offset="0" style="stop-opacity:1; stop-color:white"/>
   <stop offset="1" style="stop-opacity:0; stop-color:white"/>
  </linearGradient>
     <rect style="fill:url(#id7)" x="2731" y="15684" width="13851" height="11445"/>
    </mask>
    <mask id="id8">
  <linearGradient id="id9" gradientUnits="userSpaceOnUse" x1="13781.1" y1="24522.6" x2="13781.1" y2="25841.8">
   <stop offset="0" style="stop-opacity:0.6; stop-color:white"/>
   <stop offset="0.25098" style="stop-opacity:0.701961; stop-color:white"/>
   <stop offset="1" style="stop-opacity:0; stop-color:white"/>
  </linearGradient>
     <rect style="fill:url(#id9)" x="10374" y="24985" width="7885" height="638"/>
    </mask>
    <mask id="id10">
  <linearGradient id="id11" gradientUnits="userSpaceOnUse" x1="10595" y1="21905.7" x2="10595" y2="16987">
   <stop offset="0" style="stop-opacity:1; stop-color:white"/>
   <stop offset="1" style="stop-opacity:0; stop-color:white"/>
  </linearGradient>
     <rect style="fill:url(#id11)" x="2744" y="16800" width="12640" height="2568"/>
    </mask>
  <linearGradient id="id12" gradientUnits="userSpaceOnUse" x1="8811.37" y1="2337.51" x2="8839.29" y2="7980.54">
   <stop offset="0" style="stop-opacity:1; stop-color:#0055FF"/>
   <stop offset="1" style="stop-opacity:1; stop-color:#001878"/>
  </linearGradient>
  <linearGradient id="id13" gradientUnits="userSpaceOnUse" xlink:href="#id12" x1="29178.5" y1="1221.83" x2="29296" y2="11799.8">
  </linearGradient>
  <linearGradient id="id14" gradientUnits="userSpaceOnUse" xlink:href="#id12" x1="29178.5" y1="16541.3" x2="29296" y2="27119.2">
  </linearGradient>
 </defs>
 <g id="Слой_x0020_1">
  <metadata id="CorelCorpID_0Corel-Layer"/>
  <g id="_2422298942848">
   <rect class="fil0" x="23948" y="1222" width="10579" height="10579" rx="1736" ry="1736"/>
   <path class="fil1" d="M27937 4906l2056 1522c-357,-63 -801,-206 -1258,-352 -765,-244 -1572,-502 -2108,-419 -227,35 -428,156 -564,342 -137,188 -193,414 -158,643 36,229 156,429 344,566 382,283 926,200 1207,-186l19 -25c122,-166 359,-202 526,-79l300 221c168,122 205,358 82,526l-19 25c-648,884 -1897,1076 -2782,427 -429,-316 -710,-779 -790,-1304 -81,-524 47,-1051 363,-1479 313,-429 778,-710 1302,-789 526,-82 1052,48 1480,361zm5501 605c123,212 207,448 245,697 54,350 15,700 -110,1021 -63,162 -147,316 -252,460 -314,427 -778,708 -1303,789 -526,81 -1052,-49 -1481,-363l-2056 -1520c15,2 30,5 45,8 350,66 774,202 1215,343 763,245 1571,500 2106,419 228,-35 428,-157 565,-343 137,-186 193,-415 158,-643 -35,-229 -156,-429 -343,-566 -385,-281 -926,-198 -1209,185l-17 25c-124,167 -360,204 -527,81l-300 -221c-169,-122 -204,-358 -82,-525l19 -25c649,-885 1897,-1078 2782,-428 225,165 409,371 545,606l0 0z"/>
   <line class="fil1" x1="28817" y1="4904" x2="28817" y2= "4904" />
   <path class="fil1" d="M28817 4904c0,0 0,0 0,0z"/>
   <path class="fil1" d="M33237 4649c-1108,-813 -2628,-671 -3572,274l364 271 -1122 163 -163 -1122 339 253c1079,-923 2692,-1020 3885,-144 251,185 471,404 655,648 -116,-125 -246,-239 -386,-343z"/>
   <path class="fil1" d="M25238 8373c1108,813 2628,671 3572,-274l-364 -272 1122 -163 163 1122 -339 -253c-1079,923 -2692,1021 -3885,145 -251,-185 -471,-404 -655,-648 117,125 246,239 386,343z"/>
   <path class="fil2" style="mask:url(#id0)" d="M27937 4906l1900 1406 -2 -14 -12 2 -2 -17 -13 2 -2 -17 -12 2 -2 -17 -13 2 -2 -17 -12 2 -3 -17 -12 2 -2 -17 -12 2 -3 -17 -12 2 -2 -17 -12 2 -3 -17 -12 2 -2 -17 -12 2 -3 -17 -12 2 -2 -17 -12 2 -3 -17 -12 2 -2 -16 -13 1 -2 -16 -12 1 -3 -16 -12 1 -2 -16 -12 1 -3 -16 -12 1 -2 -16 -12 1 -3 -16 -12 2 -2 -17 -12 2 -3 -17 -12 2 -2 -17 -12 2 -3 -17 -12 2 -2 -17 -13 2 -2 -17 -12 2 -3 -17 -12 2 -2 -17 -12 2 -3 -17 -12 2 -2 -17 -12 2 -3 -17 -12 2 -2 -17 -12 2 -3 -17 -12 2 -2 -17 -12 2 -3 -17 -12 2 -2 -17 -13 2 -2 -17 -12 2 -3 -16 -12 1 -2 -16 -12 1 -3 -16 -12 1 -2 -16 -12 1 -3 -16 -12 1 -2 -16 -12 1 -3 -16 -12 2 -2 -17 -12 2 -3 -17 -12 2 -2 -17 -13 2 -2 -17 -12 2 -2 -17 -13 2 -2 -17 -12 2 -3 -17 -12 2 -2 -17 -12 2 -3 -17 -12 2 -2 -17 -12 2 -3 -17 -12 2 -2 -17 -12 2 -3 -17 -12 2 -2 -17 -13 2 -2 -17 -12 2 -2 -17 -13 2 -2 -17 -12 2 -3 -16 -12 1 -2 -16 -12 1 -163 -1122 339 253c1079,-923 2692,-1020 3885,-144 249,183 428,378 635,591l924 950 0 4179c0,955 -782,1736 -1737,1736l-4307 0 -3365 -3461c-96,-97 -184,-201 -266,-309 6,6 11,12 16,17l-1 -2c5,6 11,11 16,17l-2 -2c6,6 11,11 17,17l-2 -2 16 17 -2 -2 15 15c64,69 232,208 313,268 309,226 650,378 1001,460l-903 -929c-680,-701 -762,-1779 -181,-2570 651,-887 1896,-1077 2782,-428zm1942 1437l0 0 0 0 0 0zm-14 -10l-1 -5 -5 1 6 4zm-14 -11l-1 -9 -10 1 11 8zm-4926 1783l0 0m3906 -3186c0,0 0,0 0,0zm-14 -15c0,0 0,0 0,0zm0 0l0 0z"/>
   <path class="fil1" d="M27946 4912l2055 1522c-357,-64 -801,-206 -1258,-352 -765,-244 -1572,-502 -2107,-419 -228,35 -429,156 -565,342 -137,188 -193,414 -158,643 36,229 157,429 344,566 383,283 926,200 1207,-186l19 -25c122,-166 359,-202 526,-79l300 221c168,122 205,358 82,526l-19 25c-648,884 -1897,1076 -2782,427 -429,-316 -710,-779 -790,-1304 -81,-525 48,-1051 363,-1479 314,-429 778,-710 1302,-789 526,-82 1052,48 1481,361zm5501 605c123,212 206,448 245,697 53,350 14,700 -111,1021 -63,162 -147,316 -252,460 -314,427 -778,708 -1303,789 -526,81 -1052,-49 -1481,-363l-2055 -1520c14,2 29,5 44,8 351,66 775,202 1215,343 763,245 1571,500 2106,419 229,-35 428,-157 565,-343 137,-186 193,-415 158,-643 -34,-229 -156,-429 -343,-566 -384,-281 -926,-198 -1209,185l-17 25c-124,167 -359,204 -526,81l-301 -221c-168,-122 -204,-358 -82,-525l19 -25c649,-885 1897,-1078 2783,-428 224,165 409,371 545,606l0 0z"/>
   <line class="fil1" x1="28825" y1="4910" x2="28825" y2= "4910" />
   <path class="fil1" d="M28825 4910c0,0 0,0 0,0z"/>
   <path class="fil3" d="M33245 4655c-1108,-813 -2628,-671 -3572,274l364 271 -1122 163 -163 -1122 339 253c1079,-923 2692,-1020 3885,-144 251,185 472,404 655,648 -116,-125 -246,-239 -386,-343z"/>
   <path class="fil4" d="M25247 8379c1107,813 2627,671 3571,-274l-364 -272 1122 -163 163 1122 -339 -253c-1079,923 -2691,1021 -3884,145 -252,-185 -472,-404 -656,-648 117,124 246,239 387,343z"/>
  </g>
  <g id="_2385880875024">
   <path class="fil5" d="M25684 16541l7106 0c955,0 1737,781 1737,1736l0 7106c0,955 -782,1737 -1737,1737l-7106 0c-955,0 -1736,-782 -1736,-1737l0 -7106c0,-955 781,-1736 1736,-1736z"/>
   <path class="fil1" d="M27937 20226l2056 1521c-357,-63 -801,-206 -1258,-352 -765,-244 -1572,-501 -2108,-418 -227,35 -428,156 -564,342 -137,188 -193,413 -158,643 36,229 156,428 344,566 382,282 926,199 1207,-186l19 -25c122,-166 359,-203 526,-80l300 221c168,123 205,359 82,526l-19 25c-648,884 -1897,1077 -2782,427 -429,-315 -710,-778 -790,-1303 -81,-525 47,-1052 363,-1480 313,-429 778,-709 1302,-789 526,-81 1052,48 1480,362zm5501 605c123,212 207,447 245,697 54,349 15,699 -110,1021 -63,161 -147,316 -252,459 -314,428 -778,709 -1303,789 -526,81 -1052,-48 -1481,-362l-2056 -1521c15,3 30,6 45,8 350,67 774,203 1215,343 763,245 1571,501 2106,420 228,-35 428,-157 565,-344 137,-186 193,-414 158,-643 -35,-228 -156,-429 -343,-566 -385,-281 -926,-197 -1209,186l-17 25c-124,167 -360,204 -527,81l-300 -221c-169,-122 -204,-359 -82,-525l19 -25c649,-886 1897,-1078 2782,-428 225,165 409,371 545,606l0 0z"/>
   <line class="fil1" x1="28817" y1="20224" x2="28817" y2= "20224" />
   <path class="fil1" d="M28817 20224c0,0 0,-1 0,0z"/>
   <path class="fil1" d="M33237 19968c-1108,-813 -2628,-671 -3572,275l364 271 -1122 163 -163 -1122 339 253c1079,-923 2692,-1021 3885,-145 251,186 471,404 655,648 -116,-124 -246,-239 -386,-343z"/>
   <path class="fil1" d="M25238 23692c1108,813 2628,671 3572,-274l-364 -271 1122 -163 163 1122 -339 -253c-1079,923 -2692,1020 -3885,144 -251,-185 -471,-403 -655,-648 117,125 246,239 386,343z"/>
   <path class="fil2" style="mask:url(#id2)" d="M27937 20226l1900 1406 -2 -15 -12 2 -2 -17 -13 2 -2 -17 -12 2 -2 -16 -13 1 -2 -16 -12 1 -3 -16 -12 1 -2 -16 -12 1 -3 -16 -12 1 -2 -16 -12 1 -3 -16 -12 2 -2 -17 -12 2 -3 -17 -12 2 -2 -17 -12 2 -3 -17 -12 2 -2 -17 -13 2 -2 -17 -12 2 -3 -17 -12 2 -2 -17 -12 2 -3 -17 -12 2 -2 -17 -12 2 -3 -17 -12 2 -2 -17 -12 2 -3 -17 -12 2 -2 -17 -12 2 -3 -17 -12 2 -2 -17 -13 2 -2 -17 -12 2 -3 -16 -12 1 -2 -16 -12 1 -3 -16 -12 1 -2 -16 -12 1 -3 -16 -12 1 -2 -16 -12 1 -3 -16 -12 2 -2 -17 -12 2 -3 -17 -12 2 -2 -17 -13 2 -2 -17 -12 2 -3 -17 -12 2 -2 -17 -12 2 -3 -17 -12 2 -2 -17 -12 2 -3 -17 -12 2 -2 -17 -12 2 -3 -17 -12 2 -2 -17 -12 2 -3 -17 -12 2 -2 -17 -13 2 -2 -17 -12 2 -2 -17 -13 2 -2 -17 -12 2 -3 -16 -12 1 -2 -16 -12 1 -3 -16 -12 1 -2 -16 -12 1 -3 -16 -12 1 -2 -16 -12 1 -3 -16 -12 2 -2 -17 -13 2 -2 -17 -12 2 -2 -17 -13 2 -2 -17 -12 2 -3 -17 -12 2 -2 -17 -12 2 -163 -1122 339 253c1079,-923 2692,-1021 3885,-145 249,183 428,379 635,592l924 949 0 4179c0,955 -782,1737 -1737,1737l-4307 0 -3365 -3461c-96,-98 -184,-201 -266,-310 6,6 11,12 16,18l-1 -3c5,6 11,12 16,18l-2 -3c6,6 11,12 17,18l-2 -3 16 17 -2 -2 15 15c64,70 232,208 313,268 309,227 650,379 1001,460l-903 -929c-680,-700 -762,-1779 -181,-2570 651,-887 1896,-1077 2782,-427zm1942 1436l0 0 0 0 0 0zm-14 -10l-1 -5 -5 1 6 4zm-14 -10l-1 -10 -10 2 11 8zm-4926 1782l0 0m3906 -3185c0,-1 0,-1 0,0zm-14 -15c0,0 0,-1 0,0zm0 0l0 0z"/>
   <path class="fil1" d="M27946 20232l2055 1521c-357,-63 -801,-206 -1258,-352 -765,-244 -1572,-501 -2107,-418 -228,35 -429,156 -565,342 -137,188 -193,413 -158,643 36,229 157,428 344,566 383,282 926,199 1207,-186l19 -25c122,-166 359,-203 526,-80l300 221c168,123 205,359 82,526l-19 25c-648,884 -1897,1077 -2782,427 -429,-315 -710,-778 -790,-1303 -81,-525 48,-1052 363,-1480 314,-429 778,-709 1302,-789 526,-81 1052,48 1481,362zm5501 605c123,212 206,447 245,697 53,349 14,699 -111,1021 -63,161 -147,316 -252,459 -314,428 -778,709 -1303,789 -526,81 -1052,-48 -1481,-362l-2055 -1521c14,3 29,6 44,8 351,66 775,203 1215,343 763,245 1571,501 2106,420 229,-35 428,-158 565,-344 137,-186 193,-414 158,-643 -34,-228 -156,-429 -343,-566 -384,-281 -926,-197 -1209,186l-17 25c-124,167 -359,204 -526,81l-301 -221c-168,-122 -204,-359 -82,-526l19 -24c649,-886 1897,-1078 2783,-428 224,164 409,371 545,606l0 0z"/>
   <line class="fil1" x1="28825" y1="20230" x2="28825" y2= "20230" />
   <path class="fil1" d="M28825 20230c0,-1 0,-1 0,0z"/>
   <path class="fil3" d="M33245 19974c-1108,-813 -2628,-671 -3572,275l364 271 -1122 163 -163 -1122 339 253c1079,-923 2692,-1021 3885,-145 251,185 472,404 655,648 -116,-124 -246,-239 -386,-343z"/>
   <path class="fil3" d="M25247 23698c1107,813 2627,671 3571,-274l-364 -271 1122 -163 163 1122 -339 -253c-1079,923 -2691,1020 -3884,144 -252,-185 -472,-403 -656,-648 117,125 246,239 387,343z"/>
  </g>
  <g id="_2385880903088">
   <path class="fil1" d="M6971 2877l2914 2156c-507,-90 -1136,-292 -1784,-499 -1084,-346 -2227,-711 -2986,-593 -323,49 -607,221 -800,485 -195,266 -274,586 -225,911 52,324 223,607 488,802 542,400 1312,283 1710,-264l27 -35c174,-235 510,-287 746,-113l425 313c239,174 290,509 117,746l-27 36c-919,1252 -2689,1525 -3944,605 -607,-447 -1005,-1104 -1119,-1848 -114,-744 68,-1490 515,-2097 444,-607 1103,-1005 1845,-1118 746,-116 1491,68 2098,513zm7796 857c175,300 293,634 348,988 76,495 20,991 -157,1447 -89,229 -208,448 -357,651 -445,606 -1103,1004 -1846,1119 -746,114 -1492,-70 -2100,-515l-2913 -2154c21,3 42,7 63,11 497,94 1098,287 1722,486 1082,347 2227,710 2984,594 325,-49 608,-222 802,-486 194,-264 273,-588 224,-912 -49,-324 -221,-607 -486,-802 -546,-398 -1313,-280 -1714,263l-25 36c-175,236 -509,289 -745,114l-426 -313c-239,-173 -289,-508 -117,-744l27 -35c921,-1256 2689,-1528 3944,-607 319,234 580,526 772,859l0 0z"/>
   <line class="fil1" x1="8217" y1="2873" x2="8217" y2= "2873" />
   <path class="fil1" d="M8217 2873c0,0 0,0 0,0z"/>
   <path class="fil1" d="M14481 2512c-1569,-1152 -3724,-951 -5061,388l515 385 -1590 231 -231 -1590 481 358c1529,-1308 3814,-1446 5505,-204 357,262 669,572 929,918 -165,-177 -349,-339 -548,-486z"/>
   <path class="fil1" d="M3146 7789c1570,1153 3724,951 5061,-388l-515 -385 1591 -231 230 1591 -480 -359c-1530,1308 -3815,1446 -5506,205 -356,-263 -668,-572 -928,-918 165,176 348,338 547,485z"/>
   <path class="fil6" d="M6983 2885l2913 2156c-506,-89 -1135,-292 -1783,-499 -1084,-346 -2228,-710 -2987,-593 -322,50 -607,222 -799,485 -195,266 -274,586 -225,911 51,325 222,607 488,803 542,400 1312,282 1710,-264l27 -35c173,-236 510,-288 745,-113l426 313c238,174 290,508 117,746l-28 35c-918,1252 -2688,1525 -3943,605 -607,-447 -1006,-1104 -1120,-1847 -113,-744 68,-1490 515,-2098 445,-607 1103,-1005 1846,-1118 745,-115 1491,68 2098,513zm7796 857c174,301 293,635 347,988 76,496 21,992 -157,1447 -88,229 -208,448 -357,651 -445,606 -1102,1004 -1846,1119 -745,114 -1491,-69 -2100,-514l-2912 -2155c21,4 42,8 63,12 497,93 1098,286 1721,486 1082,347 2228,709 2985,594 324,-50 607,-223 802,-487 194,-264 273,-587 224,-911 -50,-324 -222,-608 -487,-802 -545,-399 -1312,-280 -1714,263l-24 35c-175,237 -509,289 -746,115l-425 -314c-239,-173 -290,-507 -117,-744l27 -35c920,-1255 2688,-1527 3944,-607 318,234 579,527 772,860l0 -1z"/>
   <line class="fil1" x1="8229" y1="2882" x2="8229" y2= "2882" />
   <path class="fil1" d="M8229 2882c0,0 0,0 0,0z"/>
   <path class="fil3" d="M14493 2520c-1570,-1152 -3724,-951 -5061,389l515 384 -1590 231 -231 -1590 480 359c1530,-1308 3815,-1447 5506,-205 356,262 668,572 928,918 -164,-176 -348,-338 -547,-486z"/>
   <path class="fil7" d="M3158 7798c1569,1152 3724,951 5061,-389l-515 -384 1590 -231 231 1590 -481 -359c-1529,1308 -3814,1447 -5505,205 -357,-262 -669,-572 -929,-918 165,176 349,339 548,486z"/>
   <path class="fil8" d="M10211 10307l-894 0 0 940 -386 0 0 -2220 1411 0 0 312 -1025 0 0 659 894 0 0 309zm1896 -1280l0 1484c0,236 -75,423 -226,561 -151,138 -352,206 -603,206 -254,0 -456,-67 -605,-203 -150,-136 -224,-324 -224,-565l0 -1483 384 0 0 1485c0,148 38,261 113,340 75,78 186,117 332,117 297,0 445,-156 445,-469l0 -1473 384 0zm1410 1648c0,-97 -34,-173 -103,-225 -68,-53 -192,-106 -371,-160 -179,-54 -321,-114 -427,-180 -202,-127 -303,-293 -303,-498 0,-179 73,-326 219,-442 145,-116 335,-174 567,-174 155,0 292,29 414,85 120,58 216,138 285,244 68,105 103,221 103,350l-384 0c0,-116 -36,-207 -109,-272 -72,-65 -176,-98 -312,-98 -126,0 -223,27 -293,81 -70,53 -105,128 -105,225 0,81 38,149 113,203 76,54 199,107 372,158 173,51 312,110 417,175 104,66 181,142 229,226 49,86 74,185 74,299 0,185 -71,333 -213,442 -141,110 -334,164 -577,164 -160,0 -308,-29 -443,-89 -135,-60 -239,-142 -314,-246 -75,-105 -112,-227 -112,-367l386 0c0,126 42,223 125,293 83,69 202,103 358,103 134,0 235,-27 303,-81 67,-55 101,-126 101,-216zm968 572l-384 0 0 -2220 384 0 0 2220zm1988 -1052c0,218 -38,409 -113,573 -75,164 -182,290 -322,378 -140,88 -300,132 -483,132 -180,0 -340,-44 -480,-132 -141,-88 -250,-213 -327,-376 -77,-163 -115,-350 -116,-563l0 -125c0,-217 38,-408 115,-574 76,-166 185,-292 324,-380 140,-88 300,-132 481,-132 181,0 342,44 481,131 140,86 248,211 324,375 76,163 115,353 116,570l0 123zm-386 -116c0,-246 -46,-434 -139,-565 -93,-131 -225,-196 -396,-196 -166,0 -297,65 -390,195 -95,131 -143,316 -145,554l0 128c0,244 48,432 143,565 95,133 227,200 395,200 171,0 302,-65 394,-195 92,-130 138,-320 138,-570l0 -116zm2276 1168l-386 0 -989 -1575 0 1575 -386 0 0 -2220 386 0 992 1581 0 -1581 383 0 0 2220z"/>
   <path class="fil1" style="mask:url(#id4)" d="M9710 10307l-393 0 0 127c-130,44 -259,90 -386,137l0 -1544 1411 0 0 312 -1025 0 0 659 894 0 0 166c-170,45 -337,93 -501,143zm2397 -1280l0 745c-129,19 -257,40 -384,62l0 -807 384 0zm-1658 1075l0 -1075 384 0 0 983c-129,29 -257,60 -384,92zm1878 -361c-9,-41 -14,-84 -14,-129 0,-179 73,-326 219,-442 145,-116 335,-174 567,-174 155,0 292,29 414,85 120,58 216,138 285,244 54,82 87,172 98,269 -128,6 -255,14 -382,24 -10,-89 -46,-161 -106,-215 -72,-65 -176,-98 -312,-98 -126,0 -223,27 -293,81 -70,53 -105,128 -105,225 0,29 5,56 15,81 -130,15 -258,31 -386,49zm1774 -157l0 -557 384 0 0 545c-129,3 -257,6 -384,12zm620 -16c8,-20 17,-40 26,-60 76,-166 185,-292 324,-380 140,-88 300,-132 481,-132 181,0 342,44 481,131 140,86 248,211 324,375 18,38 34,77 47,118 -135,-10 -271,-19 -409,-26 -14,-29 -30,-55 -47,-80 -93,-131 -225,-196 -396,-196 -166,0 -297,65 -390,195 -13,17 -24,35 -35,54 -62,0 -124,-1 -187,-1 -73,0 -146,1 -219,2zm2267 105l0 -1 0 1c-128,-14 -257,-26 -386,-37l0 -609 386 0 437 697c-145,-19 -290,-36 -437,-51zm992 131l0 -777 383 0 0 843c-127,-23 -254,-45 -383,-66z"/>
  </g>
  <g id="_2385880890704">
   <path class="fil2" style="mask:url(#id6)" d="M7233 17350l2692 1992 -3 -20 -17 2 -3 -24 -17 3 -4 -24 -17 3 -3 -24 -18 3 -3 -24 -17 2 -4 -23 -17 2 -3 -24 -17 3 -4 -24 -17 3 -4 -24 -17 3 -3 -24 -17 2 -4 -23 -17 2 -3 -24 -18 3 -3 -24 -17 3 -4 -24 -17 3 -3 -24 -17 2 -4 -23 -17 2 -3 -24 -18 3 -3 -24 -17 3 -4 -24 -17 3 -3 -24 -17 2 -4 -23 -17 2 -4 -24 -17 3 -3 -24 -17 3 -4 -24 -17 3 -3 -24 -18 2 -3 -23 -17 2 -4 -24 -17 3 -3 -24 -17 3 -4 -24 -17 3 -3 -24 -18 2 -3 -23 -17 2 -4 -24 -17 3 -3 -24 -17 3 -4 -24 -17 3 -3 -24 -18 2 -3 -23 -17 2 -4 -24 -17 3 -3 -24 -17 3 -4 -24 -17 3 -4 -24 -17 2 -3 -23 -17 2 -4 -24 -17 3 -3 -24 -18 3 -3 -24 -17 3 -4 -24 -17 2 -3 -23 -17 2 -4 -24 -17 3 -3 -24 -18 3 -3 -24 -17 3 -4 -24 -17 2 -3 -23 -17 2 -4 -24 -17 3 -3 -24 -18 3 -3 -24 -17 3 -4 -24 -17 2 -3 -23 -18 2 -3 -24 -17 3 -4 -24 -17 3 -3 -24 -17 3 -4 -24 -17 2 -3 -23 -18 2 -3 -24 -17 3 -4 -24 -17 3 -3 -24 -17 3 -231 -1591 480 359c1530,-1308 3815,-1446 5506,-205 353,260 607,537 901,839l1308 1345 0 5923c0,1353 -1107,2461 -2460,2461l-6105 0 -4769 -4905c-136,-139 -261,-285 -377,-439 8,9 16,17 23,25l-2 -3c8,8 15,16 23,24l-2 -3c7,8 15,16 23,24l-3 -3 23 24 -2 -3 20 21c91,99 329,295 445,380 437,321 920,537 1418,652l-1280 -1316c-963,-993 -1080,-2522 -257,-3643 923,-1257 2687,-1526 3944,-605zm2751 2035l0 0 0 0 0 0zm-19 -14l-1 -7 -7 1 8 6zm-20 -15l-2 -13 -14 2 16 11zm-6982 2526l0 0m5537 -4515c0,0 0,0 0,0zm-21 -21c0,0 0,0 0,0zm0 0l0 0z"/>
   <path class="fil1" d="M7233 17350l2913 2155c-506,-89 -1135,-291 -1783,-498 -1084,-346 -2228,-711 -2987,-593 -322,49 -607,221 -799,485 -195,266 -274,586 -225,910 51,325 222,608 488,803 542,400 1312,282 1710,-264l27 -35c174,-235 510,-287 745,-113l426 313c238,174 290,508 117,746l-28 35c-918,1253 -2688,1526 -3943,606 -607,-447 -1006,-1104 -1120,-1848 -113,-744 68,-1490 515,-2097 445,-607 1103,-1005 1846,-1118 745,-116 1491,68 2098,513zm7796 857c174,300 293,634 347,987 76,496 21,992 -157,1448 -88,229 -208,447 -357,651 -445,606 -1102,1004 -1846,1118 -745,115 -1491,-69 -2100,-514l-2912 -2154c21,3 42,7 63,11 497,94 1098,287 1721,486 1082,347 2228,709 2985,594 324,-49 607,-222 802,-486 194,-264 273,-588 224,-912 -50,-324 -222,-607 -487,-802 -545,-398 -1312,-280 -1714,263l-24 36c-175,236 -509,289 -746,114l-425 -313c-239,-173 -290,-508 -117,-744l27 -35c920,-1256 2688,-1528 3944,-607 318,233 579,526 772,859l0 0z"/>
   <line class="fil1" x1="8479" y1="17346" x2="8479" y2= "17346" />
   <path class="fil1" d="M8479 17346c0,0 0,0 0,0z"/>
   <path class="fil1" d="M14743 16985c-1570,-1153 -3724,-951 -5061,388l515 385 -1590 231 -231 -1591 480 359c1530,-1308 3815,-1446 5506,-205 356,263 668,572 928,918 -164,-176 -348,-338 -547,-485z"/>
   <path class="fil1" d="M3408 22262c1569,1152 3724,951 5061,-388l-515 -385 1590 -231 231 1590 -481 -358c-1529,1308 -3814,1446 -5505,204 -357,-262 -669,-572 -929,-918 165,177 349,339 548,486z"/>
   <path class="fil1" d="M7244 17358l2914 2156c-507,-90 -1136,-292 -1783,-499 -1085,-346 -2228,-711 -2987,-593 -323,50 -607,221 -800,485 -195,266 -273,586 -225,911 52,325 223,607 488,803 542,400 1312,282 1711,-264l27 -36c173,-235 509,-287 745,-113l426 313c238,175 290,509 116,747l-27 35c-919,1252 -2688,1525 -3943,605 -608,-447 -1006,-1104 -1120,-1847 -114,-744 68,-1490 515,-2098 444,-607 1103,-1005 1845,-1118 746,-115 1491,68 2098,513zm7797 857c174,301 292,634 347,988 76,495 20,992 -157,1447 -89,229 -208,448 -357,651 -445,606 -1103,1004 -1846,1119 -746,114 -1492,-70 -2100,-514l-2913 -2155c21,4 42,7 63,11 497,94 1098,287 1722,486 1082,348 2227,710 2985,595 324,-50 607,-223 801,-487 194,-264 273,-587 224,-911 -49,-324 -221,-608 -486,-802 -545,-399 -1312,-281 -1714,263l-24 35c-176,236 -509,289 -746,114l-426 -313c-239,-173 -289,-507 -116,-744l26 -35c921,-1255 2689,-1528 3944,-607 319,234 580,526 773,860l0 -1z"/>
   <line class="fil1" x1="8491" y1="17355" x2="8491" y2= "17355" />
   <path class="fil1" d="M8491 17355c0,0 0,0 0,0z"/>
   <path class="fil3" d="M14755 16993c-1570,-1152 -3725,-951 -5062,389l515 384 -1590 231 -231 -1590 481 359c1529,-1308 3815,-1447 5505,-205 357,262 669,572 929,918 -165,-177 -349,-339 -547,-486z"/>
   <path class="fil3" d="M3419 22271c1570,1152 3725,951 5062,-389l-515 -384 1590 -231 231 1590 -481 -359c-1529,1308 -3815,1446 -5506,205 -356,-262 -668,-572 -928,-918 165,176 349,338 547,486z"/>
   <path class="fil9" d="M11194 24358l-587 0 0 617 -253 0 0 -1458 926 0 0 205 -673 0 0 433 587 0 0 203zm1398 -841l0 975c0,155 -49,278 -148,368 -99,91 -231,136 -396,136 -167,0 -300,-45 -398,-134 -98,-89 -147,-213 -147,-371l0 -974 252 0 0 975c0,98 25,172 74,224 50,51 123,77 219,77 195,0 292,-103 292,-309l0 -967 252 0zm1079 1083c0,-64 -22,-114 -68,-148 -45,-35 -126,-70 -243,-106 -118,-35 -212,-75 -281,-118 -133,-83 -199,-192 -199,-327 0,-117 48,-214 144,-290 95,-77 220,-114 373,-114 101,0 191,18 271,56 79,37 142,90 187,160 46,69 68,145 68,230l-252 0c0,-77 -24,-136 -72,-179 -47,-43 -116,-64 -204,-64 -83,0 -147,17 -193,53 -46,35 -69,84 -69,148 0,53 25,97 74,133 50,35 131,70 245,104 113,33 204,72 273,115 69,43 119,93 151,148 32,56 48,122 48,197 0,121 -46,218 -139,290 -93,72 -220,108 -379,108 -106,0 -203,-20 -291,-59 -89,-39 -158,-93 -206,-162 -50,-68 -74,-149 -74,-240l253 0c0,82 28,146 82,192 55,45 133,68 236,68 88,0 154,-18 198,-54 45,-35 67,-83 67,-141zm788 375l-252 0 0 -1458 252 0 0 1458zm1459 -691c0,143 -25,269 -74,376 -50,109 -120,191 -212,249 -92,58 -197,87 -317,87 -118,0 -223,-29 -316,-87 -92,-58 -164,-140 -214,-247 -51,-107 -76,-230 -77,-370l0 -82c0,-142 25,-268 76,-377 50,-109 121,-192 213,-250 92,-57 197,-86 316,-86 119,0 224,28 316,85 92,57 163,139 213,247 50,107 75,232 76,374l0 81zm-254 -76c0,-161 -30,-285 -91,-371 -61,-86 -148,-129 -260,-129 -109,0 -195,42 -257,128 -62,86 -93,207 -94,364l0 84c0,160 31,284 93,371 63,88 149,132 260,132 112,0 198,-43 259,-129 60,-85 90,-210 90,-374l0 -76zm1648 767l-254 0 -650 -1034 0 1034 -253 0 0 -1458 253 0 652 1039 0 -1039 252 0 0 1458z"/>
   <path class="fil8" style="mask:url(#id8)" d="M11607 25257l-587 0 -392 -263 -254 0 927 620 926 0 -130 -87 -673 0 -275 -184 587 0 -129 -86zm1933 357l-620 -414c-98,-66 -226,-119 -382,-157 -157,-39 -318,-58 -483,-58 -167,0 -271,19 -312,57 -42,38 -12,91 89,158l618 414 253 0 -620 -415c-62,-41 -85,-73 -68,-95 17,-22 73,-32 169,-32 195,0 358,43 489,131l615 411 252 0zm391 -460c40,27 49,48 26,63 -23,15 -82,29 -177,44 -95,15 -164,32 -205,51 -80,35 -77,82 8,139 75,50 184,91 329,123 144,33 292,49 445,49 102,0 180,-8 236,-24 55,-16 84,-38 86,-68 1,-29 -25,-62 -79,-98l-252 0c49,33 62,58 42,76 -20,18 -75,28 -164,28 -83,0 -158,-8 -226,-23 -69,-15 -123,-36 -163,-63 -34,-23 -37,-41 -11,-57 27,-15 87,-29 179,-44 92,-14 159,-31 200,-49 41,-18 60,-39 57,-63 -4,-24 -29,-52 -77,-83 -77,-52 -185,-93 -324,-124 -139,-31 -288,-46 -448,-46 -105,0 -190,8 -253,25 -64,17 -98,40 -104,69 -5,29 21,63 79,102l254 0c-53,-35 -66,-62 -40,-81 26,-20 90,-29 192,-29 88,0 166,7 233,22 67,16 119,36 157,61zm549 -160l-252 0 926 620 253 0 -927 -620zm1898 294c-91,-61 -196,-114 -313,-160 -118,-46 -241,-81 -370,-106 -128,-24 -253,-37 -372,-37 -119,0 -205,13 -261,37 -56,25 -75,60 -57,105 17,46 70,98 158,157l52 35c91,61 195,114 315,161 120,46 244,81 372,106 129,25 253,37 372,37 118,0 205,-12 261,-37 56,-24 74,-59 56,-104 -18,-46 -72,-99 -161,-160l-52 -34zm-205 32c102,69 151,122 144,158 -6,37 -66,55 -178,55 -109,0 -222,-18 -338,-55 -117,-36 -225,-88 -326,-154l-53 -36c-102,-68 -150,-121 -143,-158 7,-37 66,-56 177,-56 112,0 225,18 340,55 115,36 224,89 328,159l49 32zm1160 -326l-254 0 8 440 -658 -440 -253 0 927 620 253 0 -8 -442 660 442 251 0 -926 -620z"/>
   <path class="fil10" style="mask:url(#id10)" d="M7233 17358l1268 938c-729,25 -1436,85 -2111,175 -377,-68 -724,-94 -1014,-49 -266,41 -506,165 -690,355 -699,160 -1347,356 -1932,582 48,-500 229,-980 535,-1396 445,-607 1103,-1005 1846,-1118 745,-115 1491,68 2098,513zm7796 857c173,298 290,628 345,977 -624,-213 -1310,-394 -2045,-537 -6,-4 -11,-8 -17,-12 -333,-244 -750,-295 -1115,-173 -645,-85 -1319,-143 -2013,-170 2,-105 36,-211 102,-302l27 -35c920,-1255 2688,-1528 3944,-607 318,234 579,526 772,860l0 -1z"/>
  </g>
 </g>
</svg>
