<svg width="320" height="568" viewBox="0 0 320 568" fill="none" xmlns="http://www.w3.org/2000/svg">
<rect width="320" height="568" fill="#F9F9FD"/>
<path d="M0 0H320V568H0V0Z" fill="white"/>
<line y1="-0.5" x2="87.2779" y2="-0.5" transform="matrix(0.916077 -0.401002 0.370285 0.928918 31.374 96.5114)" stroke="#77DD77" stroke-opacity="0.5"/>
<line y1="-0.5" x2="78.7446" y2="-0.5" transform="matrix(0.244198 -0.969725 0.963826 0.266531 39.4705 504.829)" stroke="#FED6BC" stroke-opacity="0.5"/>
<line y1="-0.5" x2="52.7193" y2="-0.5" transform="matrix(-0.729497 -0.683984 0.649335 -0.760503 267.186 380.743)" stroke="#C6D8FF" stroke-opacity="0.5"/>
<line y1="-0.5" x2="52.6079" y2="-0.5" transform="matrix(-0.46171 -0.887031 0.868182 -0.496246 228.727 513.313)" stroke="#EFA94A" stroke-opacity="0.5"/>
<line y1="-0.5" x2="62.427" y2="-0.5" transform="matrix(-0.308028 0.951377 -0.942218 -0.335 223.667 68.9367)" stroke="#FF7514" stroke-opacity="0.5"/>
<line y1="-0.5" x2="91.2896" y2="-0.5" transform="matrix(-0.986685 -0.162646 0.148447 -0.98892 179.136 504.829)" stroke="#FF7514" stroke-opacity="0.5"/>
<path d="M80.0858 154.596L82.0057 133.994L97.2201 147.196L80.0858 154.596Z" stroke="#FFD1DC" stroke-opacity="0.5"/>
<path d="M186.732 309.154C186.732 313.294 183.536 316.609 179.642 316.609C175.748 316.609 172.551 313.294 172.551 309.154C172.551 305.015 175.748 301.7 179.642 301.7C183.536 301.7 186.732 305.015 186.732 309.154Z" stroke="#EFA94A" stroke-opacity="0.5"/>
<path d="M115.987 398.555L132.301 386.882L132.397 407.582L115.987 398.555Z" stroke="#5D9B9B" stroke-opacity="0.5"/>
<path d="M282.981 217.682L273.544 235.865L264.451 217.49L282.981 217.682Z" stroke="#A18594" stroke-opacity="0.5"/>
<path d="M20.7533 7.95423C20.7533 12.0934 17.557 15.4085 13.6628 15.4085C9.76859 15.4085 6.57227 12.0934 6.57227 7.95423C6.57227 3.81506 9.76859 0.5 13.6628 0.5C17.557 0.5 20.7533 3.81506 20.7533 7.95423Z" stroke="#77DD77" stroke-opacity="0.5"/>
<path d="M54.1515 293.246C54.1515 297.385 50.9552 300.7 47.061 300.7C43.1668 300.7 39.9705 297.385 39.9705 293.246C39.9705 289.107 43.1668 285.792 47.061 285.792C50.9552 285.792 54.1515 289.107 54.1515 293.246Z" stroke="#03C03C" stroke-opacity="0.5"/>
<path d="M280.855 545.66C280.855 549.8 277.658 553.115 273.764 553.115C269.87 553.115 266.674 549.8 266.674 545.66C266.674 541.521 269.87 538.206 273.764 538.206C277.658 538.206 280.855 541.521 280.855 545.66Z" stroke="#C6D8FF" stroke-opacity="0.5"/>
<path d="M186.732 188.25C186.732 192.389 183.536 195.704 179.642 195.704C175.748 195.704 172.551 192.389 172.551 188.25C172.551 184.111 175.748 180.796 179.642 180.796C183.536 180.796 186.732 184.111 186.732 188.25Z" stroke="#C6D8FF" stroke-opacity="0.5"/>
<path d="M183.809 17.5942C177.201 12.1859 167.661 13.4146 162.5 20.3387L164.422 21.9117C168.747 16.1089 176.77 15.0756 182.308 19.608C187.845 24.1405 188.831 32.5484 184.506 38.3511L186.428 39.9241C191.589 33.0001 190.416 23.0025 183.809 17.5942Z" fill="#EFA94A" fill-opacity="0.5"/>
<path d="M111.835 251.886C116.784 249.164 118.691 242.753 116.093 237.566L114.654 238.358C116.831 242.705 115.227 248.096 111.08 250.378C106.932 252.659 101.787 250.979 99.61 246.632L98.1705 247.424C100.768 252.61 106.886 254.608 111.835 251.886Z" fill="#C6D8FF" fill-opacity="0.5"/>
<path d="M85.7009 560.107C89.4342 564.466 95.833 564.828 99.9929 560.916L98.907 559.648C95.4208 562.927 90.0395 562.622 86.9108 558.969C83.7821 555.316 84.0729 549.677 87.5591 546.398L86.4732 545.13C82.3134 549.042 81.9676 555.748 85.7009 560.107Z" fill="#B5F2EA" fill-opacity="0.5"/>
<path d="M28.0131 388.296C31.7464 392.655 38.1452 393.017 42.305 389.105L41.2192 387.837C37.733 391.116 32.3517 390.811 29.223 387.158C26.0943 383.504 26.3851 377.865 29.8712 374.587L28.7854 373.319C24.6256 377.231 24.2798 383.936 28.0131 388.296Z" fill="#B5F2EA" fill-opacity="0.5"/>
<path d="M0.974437 214.145C1.5126 219.975 6.45906 224.244 12.0225 223.68L11.866 221.985C7.20352 222.457 3.04359 218.867 2.59257 213.981C2.14156 209.095 5.56768 204.736 10.2302 204.263L10.0736 202.568C4.51017 203.132 0.43627 208.315 0.974437 214.145Z" fill="#5D9B9B" fill-opacity="0.5"/>
<path d="M273.14 101.382C268.175 104.072 266.23 110.47 268.797 115.674L270.241 114.891C268.09 110.531 269.725 105.15 273.886 102.895C278.047 100.641 283.183 102.354 285.334 106.715L286.778 105.933C284.211 100.729 278.105 98.6921 273.14 101.382Z" fill="#5D9B9B" fill-opacity="0.5"/>
<path d="M287.381 445.104C284.612 450.192 286.303 456.669 291.158 459.571L291.963 458.092C287.894 455.659 286.472 450.212 288.793 445.948C291.114 441.684 296.313 440.194 300.381 442.627L301.187 441.147C296.332 438.245 290.151 440.016 287.381 445.104Z" fill="#C3FBD8" fill-opacity="0.5"/>
<path d="M316.761 28.317L305.644 42.0562L316.761 44.6004" stroke="#7FB5B5" stroke-opacity="0.5"/>
<g filter="url(#filter0_d)">
<path d="M20 508C20 505.239 22.2386 503 25 503H295C297.761 503 300 505.239 300 508V543C300 545.761 297.761 548 295 548H25C22.2386 548 20 545.761 20 543V508Z" fill="#6200EE"/>
</g>
<path d="M135.117 526.382V530H133.898V520.758H137.307C138.319 520.758 139.11 521.016 139.681 521.532C140.257 522.049 140.544 522.732 140.544 523.583C140.544 524.48 140.263 525.172 139.7 525.658C139.142 526.141 138.34 526.382 137.294 526.382H135.117ZM135.117 525.385H137.307C137.959 525.385 138.458 525.233 138.805 524.928C139.152 524.619 139.326 524.175 139.326 523.595C139.326 523.045 139.152 522.605 138.805 522.275C138.458 521.945 137.982 521.773 137.377 521.761H135.117V525.385ZM145.489 526.261H143.318V530H142.093V520.758H145.153C146.194 520.758 146.994 520.995 147.552 521.469C148.115 521.943 148.396 522.632 148.396 523.538C148.396 524.114 148.24 524.615 147.927 525.042C147.618 525.47 147.186 525.789 146.632 526.001L148.803 529.924V530H147.495L145.489 526.261ZM143.318 525.265H145.191C145.796 525.265 146.276 525.108 146.632 524.795C146.992 524.482 147.171 524.063 147.171 523.538C147.171 522.967 147 522.529 146.657 522.224C146.319 521.919 145.828 521.765 145.185 521.761H143.318V525.265ZM155.334 525.728H151.329V529.003H155.982V530H150.11V520.758H155.918V521.761H151.329V524.731H155.334V525.728ZM160.559 528.381L163.199 520.758H164.532L161.104 530H160.025L156.604 520.758H157.931L160.559 528.381ZM167.084 530H165.865V520.758H167.084V530ZM174.542 525.728H170.537V529.003H175.19V530H169.318V520.758H175.126V521.761H170.537V524.731H174.542V525.728ZM178.7 527.086L178.878 528.305L179.138 527.207L180.966 520.758H181.995L183.778 527.207L184.032 528.324L184.229 527.08L185.664 520.758H186.889L184.648 530H183.537L181.633 523.265L181.487 522.561L181.341 523.265L179.367 530H178.256L176.021 520.758H177.24L178.7 527.086Z" fill="white"/>
<path d="M21 116C21 113.239 23.2386 111 26 111H296C298.761 111 301 113.239 301 116V131C301 133.761 298.761 136 296 136H26C23.2386 136 21 133.761 21 131V116Z" fill="white"/>
<path d="M26 112H296V110H26V112ZM300 116V131H302V116H300ZM296 135H26V137H296V135ZM22 131V116H20V131H22ZM26 135C23.7909 135 22 133.209 22 131H20C20 134.314 22.6863 137 26 137V135ZM300 131C300 133.209 298.209 135 296 135V137C299.314 137 302 134.314 302 131H300ZM296 112C298.209 112 300 113.791 300 116H302C302 112.686 299.314 110 296 110V112ZM26 110C22.6863 110 20 112.686 20 116H22C22 113.791 23.7909 112 26 112V110Z" fill="#5E2CD6"/>
<path d="M20 298C20 295.239 22.2386 293 25 293H75C77.7614 293 80 295.239 80 298V334C80 336.761 77.7614 339 75 339H25C22.2386 339 20 336.761 20 334V298Z" fill="white"/>
<path d="M25 294H75V292H25V294ZM79 298V334H81V298H79ZM75 338H25V340H75V338ZM21 334V298H19V334H21ZM25 338C22.7909 338 21 336.209 21 334H19C19 337.314 21.6863 340 25 340V338ZM79 334C79 336.209 77.2091 338 75 338V340C78.3137 340 81 337.314 81 334H79ZM75 294C77.2091 294 79 295.791 79 298H81C81 294.686 78.3137 292 75 292V294ZM25 292C21.6863 292 19 294.686 19 298H21C21 295.791 22.7909 294 25 294V292Z" fill="#5E2CD6"/>
<path d="M93 298C93 295.239 95.2386 293 98 293H148C150.761 293 153 295.239 153 298V334C153 336.761 150.761 339 148 339H98C95.2386 339 93 336.761 93 334V298Z" fill="white"/>
<path d="M98 294H148V292H98V294ZM152 298V334H154V298H152ZM148 338H98V340H148V338ZM94 334V298H92V334H94ZM98 338C95.7909 338 94 336.209 94 334H92C92 337.314 94.6863 340 98 340V338ZM152 334C152 336.209 150.209 338 148 338V340C151.314 340 154 337.314 154 334H152ZM148 294C150.209 294 152 295.791 152 298H154C154 294.686 151.314 292 148 292V294ZM98 292C94.6863 292 92 294.686 92 298H94C94 295.791 95.7909 294 98 294V292Z" fill="#5E2CD6"/>
<path d="M166 298C166 295.239 168.239 293 171 293H221C223.761 293 226 295.239 226 298V334C226 336.761 223.761 339 221 339H171C168.239 339 166 336.761 166 334V298Z" fill="white"/>
<path d="M171 294H221V292H171V294ZM225 298V334H227V298H225ZM221 338H171V340H221V338ZM167 334V298H165V334H167ZM171 338C168.791 338 167 336.209 167 334H165C165 337.314 167.686 340 171 340V338ZM225 334C225 336.209 223.209 338 221 338V340C224.314 340 227 337.314 227 334H225ZM221 294C223.209 294 225 295.791 225 298H227C227 294.686 224.314 292 221 292V294ZM171 292C167.686 292 165 294.686 165 298H167C167 295.791 168.791 294 171 294V292Z" fill="#5E2CD6"/>
<path d="M239 298C239 295.239 241.239 293 244 293H294C296.761 293 299 295.239 299 298V334C299 336.761 296.761 339 294 339H244C241.239 339 239 336.761 239 334V298Z" fill="white"/>
<path d="M244 294H294V292H244V294ZM298 298V334H300V298H298ZM294 338H244V340H294V338ZM240 334V298H238V334H240ZM244 338C241.791 338 240 336.209 240 334H238C238 337.314 240.686 340 244 340V338ZM298 334C298 336.209 296.209 338 294 338V340C297.314 340 300 337.314 300 334H298ZM294 294C296.209 294 298 295.791 298 298H300C300 294.686 297.314 292 294 292V294ZM244 292C240.686 292 238 294.686 238 298H240C240 295.791 241.791 294 244 294V292Z" fill="#5E2CD6"/>
<path d="M48.311 264.028H45.7974V271H44.7715V264.028H42.2632V263.18H48.311V264.028ZM48.5151 268.041C48.5151 267.471 48.6261 266.959 48.8481 266.504C49.0737 266.05 49.3853 265.699 49.7827 265.452C50.1838 265.205 50.6403 265.081 51.1523 265.081C51.9437 265.081 52.5828 265.355 53.0698 265.903C53.5604 266.451 53.8057 267.179 53.8057 268.089V268.159C53.8057 268.724 53.6965 269.233 53.478 269.684C53.2632 270.132 52.9535 270.481 52.5488 270.731C52.1478 270.982 51.6859 271.107 51.1631 271.107C50.3753 271.107 49.7362 270.833 49.2456 270.286C48.7586 269.738 48.5151 269.013 48.5151 268.11V268.041ZM49.5142 268.159C49.5142 268.803 49.6628 269.321 49.96 269.711C50.2607 270.101 50.6618 270.296 51.1631 270.296C51.668 270.296 52.069 270.099 52.3662 269.706C52.6634 269.308 52.812 268.753 52.812 268.041C52.812 267.403 52.6598 266.888 52.3555 266.494C52.0547 266.096 51.6536 265.897 51.1523 265.897C50.6618 265.897 50.2661 266.093 49.9653 266.483C49.6646 266.873 49.5142 267.432 49.5142 268.159ZM55.0195 270.479C55.0195 270.307 55.0697 270.164 55.1699 270.049C55.2738 269.935 55.4277 269.877 55.6318 269.877C55.8359 269.877 55.9899 269.935 56.0938 270.049C56.2012 270.164 56.2549 270.307 56.2549 270.479C56.2549 270.644 56.2012 270.782 56.0938 270.893C55.9899 271.004 55.8359 271.059 55.6318 271.059C55.4277 271.059 55.2738 271.004 55.1699 270.893C55.0697 270.782 55.0195 270.644 55.0195 270.479ZM55.0249 265.736C55.0249 265.564 55.075 265.421 55.1753 265.307C55.2791 265.192 55.4331 265.135 55.6372 265.135C55.8413 265.135 55.9953 265.192 56.0991 265.307C56.2065 265.421 56.2603 265.564 56.2603 265.736C56.2603 265.901 56.2065 266.039 56.0991 266.15C55.9953 266.261 55.8413 266.316 55.6372 266.316C55.4331 266.316 55.2791 266.261 55.1753 266.15C55.075 266.039 55.0249 265.901 55.0249 265.736Z" fill="#1A264A"/>
<path d="M131.093 37.8804C130.048 37.5799 129.286 37.2118 128.808 36.7759C128.334 36.3358 128.097 35.7941 128.097 35.1509C128.097 34.423 128.387 33.8221 128.966 33.3481C129.55 32.87 130.308 32.6309 131.239 32.6309C131.874 32.6309 132.438 32.7536 132.934 32.999C133.433 33.2445 133.818 33.583 134.089 34.0146C134.364 34.4463 134.501 34.9181 134.501 35.4302H133.276C133.276 34.8716 133.099 34.4336 132.743 34.1162C132.388 33.7946 131.886 33.6338 131.239 33.6338C130.638 33.6338 130.168 33.7671 129.83 34.0337C129.495 34.2961 129.328 34.6621 129.328 35.1318C129.328 35.5085 129.487 35.828 129.804 36.0903C130.126 36.3485 130.67 36.5854 131.436 36.8013C132.206 37.0171 132.807 37.2562 133.238 37.5186C133.674 37.7767 133.996 38.0793 134.203 38.4263C134.415 38.7733 134.521 39.1816 134.521 39.6514C134.521 40.4004 134.229 41.0013 133.645 41.4541C133.061 41.9027 132.28 42.127 131.302 42.127C130.667 42.127 130.075 42.0063 129.525 41.7651C128.975 41.5197 128.549 41.1854 128.249 40.7622C127.953 40.339 127.805 39.8587 127.805 39.3213H129.03C129.03 39.8799 129.235 40.3221 129.646 40.6479C130.06 40.9696 130.612 41.1304 131.302 41.1304C131.945 41.1304 132.438 40.9992 132.781 40.7368C133.124 40.4744 133.295 40.1169 133.295 39.6641C133.295 39.2113 133.137 38.8621 132.819 38.6167C132.502 38.367 131.926 38.1216 131.093 37.8804ZM138.754 42.127C137.823 42.127 137.066 41.8223 136.482 41.2129C135.898 40.5993 135.606 39.7804 135.606 38.7563V38.5405C135.606 37.8592 135.735 37.252 135.993 36.7188C136.256 36.1813 136.619 35.7624 137.085 35.4619C137.555 35.1572 138.062 35.0049 138.608 35.0049C139.501 35.0049 140.195 35.299 140.69 35.8872C141.186 36.4754 141.433 37.3175 141.433 38.4136V38.9023H136.78C136.797 39.5794 136.994 40.1274 137.371 40.5464C137.751 40.9611 138.234 41.1685 138.818 41.1685C139.233 41.1685 139.584 41.0838 139.872 40.9146C140.159 40.7453 140.411 40.521 140.627 40.2417L141.344 40.8003C140.769 41.6847 139.905 42.127 138.754 42.127ZM138.608 35.9697C138.134 35.9697 137.737 36.1432 137.415 36.4902C137.093 36.833 136.895 37.3154 136.818 37.9375H140.259V37.8486C140.225 37.252 140.064 36.7907 139.776 36.4648C139.489 36.1348 139.099 35.9697 138.608 35.9697ZM143.909 35.1318L143.947 35.9951C144.472 35.335 145.157 35.0049 146.003 35.0049C147.455 35.0049 148.187 35.8237 148.2 37.4614V42H147.025V37.4551C147.021 36.96 146.907 36.5939 146.683 36.3569C146.463 36.12 146.118 36.0015 145.648 36.0015C145.267 36.0015 144.933 36.103 144.645 36.3062C144.357 36.5093 144.133 36.7759 143.972 37.106V42H142.798V35.1318H143.909ZM149.685 38.5088C149.685 37.4551 149.935 36.6087 150.434 35.9697C150.933 35.3265 151.587 35.0049 152.396 35.0049C153.2 35.0049 153.836 35.2799 154.306 35.8301V32.25H155.48V42H154.401L154.344 41.2637C153.875 41.8392 153.221 42.127 152.383 42.127C151.587 42.127 150.938 41.8011 150.434 41.1494C149.935 40.4977 149.685 39.6471 149.685 38.5977V38.5088ZM150.859 38.6421C150.859 39.4207 151.02 40.0301 151.342 40.4702C151.663 40.9103 152.108 41.1304 152.675 41.1304C153.42 41.1304 153.963 40.7961 154.306 40.1274V36.9727C153.955 36.3252 153.415 36.0015 152.688 36.0015C152.112 36.0015 151.663 36.2236 151.342 36.668C151.02 37.1123 150.859 37.7703 150.859 38.6421ZM165.821 39.5879H161.949L161.079 42H159.822L163.352 32.7578H164.418L167.954 42H166.703L165.821 39.5879ZM162.317 38.585H165.459L163.885 34.2622L162.317 38.585ZM170.29 42H169.115V32.25H170.29V42ZM171.896 38.5088C171.896 37.4382 172.143 36.5876 172.638 35.957C173.133 35.3223 173.789 35.0049 174.606 35.0049C175.444 35.0049 176.098 35.3011 176.567 35.8936L176.625 35.1318H177.697V41.835C177.697 42.7236 177.433 43.424 176.904 43.936C176.379 44.4481 175.672 44.7041 174.784 44.7041C174.289 44.7041 173.804 44.5983 173.33 44.3867C172.856 44.1751 172.494 43.8853 172.245 43.5171L172.854 42.8125C173.358 43.4346 173.973 43.7456 174.701 43.7456C175.272 43.7456 175.717 43.5848 176.034 43.2632C176.356 42.9416 176.517 42.4888 176.517 41.9048V41.3145C176.047 41.8561 175.406 42.127 174.593 42.127C173.789 42.127 173.138 41.8032 172.638 41.1558C172.143 40.5083 171.896 39.626 171.896 38.5088ZM173.076 38.6421C173.076 39.4165 173.235 40.0259 173.552 40.4702C173.87 40.9103 174.314 41.1304 174.885 41.1304C175.626 41.1304 176.17 40.7939 176.517 40.1211V36.9854C176.157 36.3294 175.617 36.0015 174.898 36.0015C174.327 36.0015 173.88 36.2236 173.559 36.668C173.237 37.1123 173.076 37.7703 173.076 38.6421ZM179.164 38.5024C179.164 37.8296 179.295 37.2244 179.557 36.687C179.824 36.1496 180.192 35.7349 180.662 35.4429C181.136 35.1509 181.675 35.0049 182.28 35.0049C183.215 35.0049 183.971 35.3286 184.546 35.9761C185.126 36.6235 185.416 37.4847 185.416 38.5596V38.6421C185.416 39.3107 185.287 39.9116 185.029 40.4448C184.775 40.9738 184.409 41.3864 183.931 41.6826C183.457 41.9788 182.911 42.127 182.293 42.127C181.362 42.127 180.607 41.8032 180.027 41.1558C179.451 40.5083 179.164 39.6514 179.164 38.585V38.5024ZM180.344 38.6421C180.344 39.4038 180.52 40.0153 180.871 40.4766C181.227 40.9378 181.701 41.1685 182.293 41.1685C182.89 41.1685 183.364 40.9357 183.715 40.4702C184.066 40.0005 184.242 39.3446 184.242 38.5024C184.242 37.7492 184.062 37.1398 183.702 36.6743C183.347 36.2046 182.873 35.9697 182.28 35.9697C181.701 35.9697 181.233 36.2004 180.877 36.6616C180.522 37.1229 180.344 37.783 180.344 38.6421ZM190.888 40.1782C190.888 39.8608 190.767 39.6154 190.526 39.4419C190.289 39.2642 189.872 39.1118 189.275 38.9849C188.683 38.8579 188.211 38.7056 187.86 38.5278C187.513 38.3501 187.255 38.1385 187.085 37.8931C186.92 37.6476 186.838 37.3556 186.838 37.0171C186.838 36.4543 187.075 35.9782 187.549 35.5889C188.027 35.1995 188.636 35.0049 189.377 35.0049C190.156 35.0049 190.786 35.2059 191.269 35.6079C191.755 36.0099 191.999 36.5241 191.999 37.1504H190.818C190.818 36.8288 190.68 36.5516 190.405 36.3188C190.134 36.0861 189.792 35.9697 189.377 35.9697C188.95 35.9697 188.615 36.0628 188.374 36.249C188.133 36.4352 188.012 36.6785 188.012 36.979C188.012 37.2625 188.124 37.4762 188.349 37.6201C188.573 37.764 188.977 37.9015 189.561 38.0327C190.149 38.1639 190.625 38.3205 190.989 38.5024C191.353 38.6844 191.622 38.9045 191.795 39.1626C191.973 39.4165 192.062 39.7275 192.062 40.0957C192.062 40.7093 191.817 41.2023 191.326 41.5747C190.835 41.9429 190.198 42.127 189.415 42.127C188.865 42.127 188.378 42.0296 187.955 41.835C187.532 41.6403 187.2 41.3695 186.958 41.0225C186.722 40.6712 186.603 40.2925 186.603 39.8862H187.777C187.799 40.2798 187.955 40.5929 188.247 40.8257C188.543 41.0542 188.933 41.1685 189.415 41.1685C189.859 41.1685 190.215 41.0796 190.481 40.9019C190.752 40.7199 190.888 40.4787 190.888 40.1782Z" fill="#1A264A"/>
<path d="M49.8758 31.7376L49.907 31.7444H36.5239L40.7311 27.528C40.9371 27.3221 41.0501 27.0433 41.0501 26.7506C41.0501 26.4579 40.9371 26.181 40.7311 25.9746L40.0764 25.3197C39.8706 25.1138 39.5963 25 39.3037 25C39.0111 25 38.7366 25.113 38.5307 25.3189L31.3189 32.5301C31.1122 32.7367 30.9992 33.012 31 33.3049C30.9992 33.5993 31.1122 33.8748 31.3189 34.0811L38.5307 41.293C38.7366 41.4987 39.0109 41.6119 39.3037 41.6119C39.5963 41.6119 39.8706 41.4985 40.0764 41.293L40.7311 40.638C40.9371 40.4325 41.0501 40.158 41.0501 39.8654C41.0501 39.5728 40.9371 39.3128 40.7311 39.1072L36.4764 34.8672H49.8907C50.4935 34.8672 51 34.3476 51 33.7452V32.8189C51 32.2164 50.4785 31.7376 49.8758 31.7376Z" fill="#6200EE"/>
<path d="M274.809 124.058C274.809 125.433 274.574 126.455 274.104 127.124C273.635 127.793 272.901 128.127 271.902 128.127C270.916 128.127 270.186 127.801 269.712 127.149C269.238 126.493 268.993 125.516 268.976 124.217V122.649C268.976 121.291 269.21 120.281 269.68 119.621C270.15 118.961 270.886 118.631 271.889 118.631C272.884 118.631 273.616 118.95 274.085 119.589C274.555 120.224 274.796 121.206 274.809 122.535V124.058ZM273.635 122.452C273.635 121.458 273.495 120.734 273.216 120.281C272.937 119.824 272.494 119.596 271.889 119.596C271.288 119.596 270.85 119.822 270.575 120.275C270.3 120.728 270.158 121.424 270.15 122.363V124.242C270.15 125.241 270.294 125.979 270.582 126.458C270.874 126.931 271.314 127.168 271.902 127.168C272.482 127.168 272.911 126.944 273.19 126.496C273.474 126.047 273.622 125.34 273.635 124.375V122.452ZM276.459 127.384C276.459 127.181 276.519 127.012 276.637 126.876C276.76 126.741 276.942 126.673 277.183 126.673C277.424 126.673 277.606 126.741 277.729 126.876C277.856 127.012 277.919 127.181 277.919 127.384C277.919 127.579 277.856 127.742 277.729 127.873C277.606 128.004 277.424 128.07 277.183 128.07C276.942 128.07 276.76 128.004 276.637 127.873C276.519 127.742 276.459 127.579 276.459 127.384ZM285.537 124.058C285.537 125.433 285.302 126.455 284.832 127.124C284.362 127.793 283.628 128.127 282.629 128.127C281.643 128.127 280.913 127.801 280.439 127.149C279.965 126.493 279.72 125.516 279.703 124.217V122.649C279.703 121.291 279.938 120.281 280.408 119.621C280.877 118.961 281.614 118.631 282.617 118.631C283.611 118.631 284.343 118.95 284.813 119.589C285.283 120.224 285.524 121.206 285.537 122.535V124.058ZM284.362 122.452C284.362 121.458 284.223 120.734 283.943 120.281C283.664 119.824 283.222 119.596 282.617 119.596C282.016 119.596 281.578 119.822 281.303 120.275C281.028 120.728 280.886 121.424 280.877 122.363V124.242C280.877 125.241 281.021 125.979 281.309 126.458C281.601 126.931 282.041 127.168 282.629 127.168C283.209 127.168 283.639 126.944 283.918 126.496C284.201 126.047 284.35 125.34 284.362 124.375V122.452ZM292.836 124.058C292.836 125.433 292.602 126.455 292.132 127.124C291.662 127.793 290.928 128.127 289.929 128.127C288.943 128.127 288.213 127.801 287.739 127.149C287.265 126.493 287.02 125.516 287.003 124.217V122.649C287.003 121.291 287.238 120.281 287.708 119.621C288.177 118.961 288.914 118.631 289.917 118.631C290.911 118.631 291.643 118.95 292.113 119.589C292.583 120.224 292.824 121.206 292.836 122.535V124.058ZM291.662 122.452C291.662 121.458 291.522 120.734 291.243 120.281C290.964 119.824 290.522 119.596 289.917 119.596C289.316 119.596 288.878 119.822 288.603 120.275C288.327 120.728 288.186 121.424 288.177 122.363V124.242C288.177 125.241 288.321 125.979 288.609 126.458C288.901 126.931 289.341 127.168 289.929 127.168C290.509 127.168 290.938 126.944 291.218 126.496C291.501 126.047 291.649 125.34 291.662 124.375V122.452Z" fill="#1A264A"/>
<path d="M254.5 122.098C255.137 121.739 255.482 121.019 255.363 120.298C255.215 119.184 253.887 118.763 252.84 118.675V117H251.807V118.66H251.113V117H250.081V118.66H248V119.73H248.775C249.121 119.73 249.291 119.833 249.291 120.113V124.71C249.291 125.093 249.099 125.211 248.893 125.211H248.103V126.303H250.11V128H251.15V126.303H251.844V128H252.854V126.303H253.076C255.201 126.303 255.909 125.263 255.909 123.846C255.892 123.011 255.313 122.293 254.5 122.098ZM251.113 119.796H251.851C252.368 119.796 253.386 119.885 253.386 120.726C253.421 121.275 253.023 121.756 252.478 121.825H251.113V119.796ZM252.257 125.108V125.101H251.113V122.887H252.441C252.751 122.887 253.917 122.991 253.917 123.817C253.917 124.643 253.364 125.108 252.257 125.108Z" fill="#1A264A"/>
<path d="M21 208C21 205.239 23.2386 203 26 203H296C298.761 203 301 205.239 301 208V223C301 225.761 298.761 228 296 228H26C23.2386 228 21 225.761 21 223V208Z" fill="white"/>
<path d="M26 204H296V202H26V204ZM300 208V223H302V208H300ZM296 227H26V229H296V227ZM22 223V208H20V223H22ZM26 227C23.7909 227 22 225.209 22 223H20C20 226.314 22.6863 229 26 229V227ZM300 223C300 225.209 298.209 227 296 227V229C299.314 229 302 226.314 302 223H300ZM296 204C298.209 204 300 205.791 300 208H302C302 204.686 299.314 202 296 202V204ZM26 202C22.6863 202 20 204.686 20 208H22C22 205.791 23.7909 204 26 204V202Z" fill="#5E2CD6"/>
<path d="M267 211C267 208.239 269.239 206 272 206H292.4C295.161 206 297.4 208.239 297.4 211V220C297.4 222.761 295.161 225 292.4 225H272C269.239 225 267 222.761 267 220V211Z" fill="white"/>
<path d="M272 207H292.4V205H272V207ZM296.4 211V220H298.4V211H296.4ZM292.4 224H272V226H292.4V224ZM268 220V211H266V220H268ZM272 224C269.791 224 268 222.209 268 220H266C266 223.314 268.686 226 272 226V224ZM296.4 220C296.4 222.209 294.609 224 292.4 224V226C295.714 226 298.4 223.314 298.4 220H296.4ZM292.4 207C294.609 207 296.4 208.791 296.4 211H298.4C298.4 207.686 295.714 205 292.4 205V207ZM272 205C268.686 205 266 207.686 266 211H268C268 208.791 269.791 207 272 207V205Z" fill="#5E2CD6"/>
<path d="M270.647 210.758L273.668 218.299L276.69 210.758H278.271V220H277.052V216.401L277.166 212.516L274.132 220H273.199L270.171 212.535L270.292 216.401V220H269.073V210.758H270.647ZM285.64 217.588H281.768L280.898 220H279.642L283.171 210.758H284.237L287.773 220H286.522L285.64 217.588ZM282.136 216.585H285.278L283.704 212.262L282.136 216.585ZM292.032 214.3L294.248 210.758H295.682L292.762 215.341L295.752 220H294.305L292.032 216.395L289.747 220H288.306L291.302 215.341L288.376 210.758H289.804L292.032 214.3Z" fill="#1A264A"/>
<path d="M47.2261 177.959H43.9497L43.2139 180H42.1504L45.1367 172.18H46.0391L49.0308 180H47.9727L47.2261 177.959ZM44.2612 177.11H46.9199L45.5879 173.453L44.2612 177.11ZM50.8623 174.188L50.8892 174.833C51.3153 174.332 51.89 174.081 52.6133 174.081C53.4261 174.081 53.9793 174.393 54.2729 175.016C54.4663 174.736 54.717 174.511 55.0249 174.339C55.3364 174.167 55.7035 174.081 56.126 174.081C57.4007 174.081 58.0488 174.756 58.0703 176.106V180H57.0767V176.165C57.0767 175.75 56.9818 175.44 56.792 175.236C56.6022 175.028 56.2835 174.924 55.8359 174.924C55.4671 174.924 55.161 175.035 54.9175 175.257C54.674 175.476 54.5326 175.771 54.4932 176.144V180H53.4941V176.192C53.4941 175.347 53.0806 174.924 52.2534 174.924C51.6017 174.924 51.1559 175.202 50.916 175.757V180H49.9224V174.188H50.8623ZM59.311 177.041C59.311 176.471 59.422 175.959 59.644 175.504C59.8696 175.05 60.1812 174.699 60.5786 174.452C60.9797 174.205 61.4362 174.081 61.9482 174.081C62.7396 174.081 63.3787 174.355 63.8657 174.903C64.3563 175.451 64.6016 176.179 64.6016 177.089V177.159C64.6016 177.724 64.4924 178.233 64.2739 178.684C64.0591 179.132 63.7493 179.481 63.3447 179.731C62.9437 179.982 62.4818 180.107 61.959 180.107C61.1712 180.107 60.5321 179.833 60.0415 179.286C59.5545 178.738 59.311 178.013 59.311 177.11V177.041ZM60.3101 177.159C60.3101 177.803 60.4587 178.321 60.7559 178.711C61.0566 179.101 61.4577 179.296 61.959 179.296C62.4639 179.296 62.8649 179.099 63.1621 178.706C63.4593 178.308 63.6079 177.753 63.6079 177.041C63.6079 176.403 63.4557 175.888 63.1514 175.494C62.8506 175.096 62.4495 174.897 61.9482 174.897C61.4577 174.897 61.062 175.093 60.7612 175.483C60.4604 175.873 60.3101 176.432 60.3101 177.159ZM69.4355 179.425C69.0488 179.88 68.4813 180.107 67.7329 180.107C67.1134 180.107 66.6408 179.928 66.3149 179.57C65.9927 179.209 65.8298 178.675 65.8262 177.97V174.188H66.8198V177.943C66.8198 178.824 67.1779 179.264 67.894 179.264C68.6532 179.264 69.158 178.981 69.4087 178.416V174.188H70.4023V180H69.457L69.4355 179.425ZM72.8569 174.188L72.8892 174.919C73.3332 174.36 73.9132 174.081 74.6294 174.081C75.8576 174.081 76.4771 174.774 76.4878 176.16V180H75.4941V176.154C75.4906 175.735 75.3939 175.426 75.2041 175.225C75.0179 175.025 74.7261 174.924 74.3286 174.924C74.0063 174.924 73.7235 175.01 73.48 175.182C73.2365 175.354 73.0467 175.58 72.9106 175.859V180H71.917V174.188H72.8569ZM79.3345 172.781V174.188H80.4194V174.957H79.3345V178.561C79.3345 178.793 79.3828 178.969 79.4795 179.087C79.5762 179.201 79.7409 179.259 79.9736 179.259C80.0882 179.259 80.2458 179.237 80.4463 179.194V180C80.1849 180.072 79.9307 180.107 79.6836 180.107C79.2396 180.107 78.9048 179.973 78.6792 179.705C78.4536 179.436 78.3408 179.055 78.3408 178.561V174.957H77.2827V174.188H78.3408V172.781H79.3345ZM81.5527 179.479C81.5527 179.307 81.6029 179.164 81.7031 179.049C81.807 178.935 81.9609 178.877 82.165 178.877C82.3691 178.877 82.5231 178.935 82.627 179.049C82.7344 179.164 82.7881 179.307 82.7881 179.479C82.7881 179.644 82.7344 179.782 82.627 179.893C82.5231 180.004 82.3691 180.059 82.165 180.059C81.9609 180.059 81.807 180.004 81.7031 179.893C81.6029 179.782 81.5527 179.644 81.5527 179.479ZM81.5581 174.736C81.5581 174.564 81.6082 174.421 81.7085 174.307C81.8123 174.192 81.9663 174.135 82.1704 174.135C82.3745 174.135 82.5285 174.192 82.6323 174.307C82.7397 174.421 82.7935 174.564 82.7935 174.736C82.7935 174.901 82.7397 175.039 82.6323 175.15C82.5285 175.261 82.3745 175.316 82.1704 175.316C81.9663 175.316 81.8123 175.261 81.7085 175.15C81.6082 175.039 81.5581 174.901 81.5581 174.736Z" fill="#1A264A"/>
<path d="M58.8999 217.058C58.8999 218.433 58.665 219.455 58.1953 220.124C57.7256 220.793 56.9914 221.127 55.9927 221.127C55.0067 221.127 54.2767 220.801 53.8027 220.149C53.3288 219.493 53.0833 218.516 53.0664 217.217V215.649C53.0664 214.291 53.3013 213.281 53.771 212.621C54.2407 211.961 54.9771 211.631 55.98 211.631C56.9744 211.631 57.7065 211.95 58.1763 212.589C58.646 213.224 58.8872 214.206 58.8999 215.535V217.058ZM57.7256 215.452C57.7256 214.458 57.5859 213.734 57.3066 213.281C57.0273 212.824 56.5851 212.596 55.98 212.596C55.3791 212.596 54.9411 212.822 54.666 213.275C54.391 213.728 54.2492 214.424 54.2407 215.363V217.242C54.2407 218.241 54.3846 218.979 54.6724 219.458C54.9644 219.931 55.4045 220.168 55.9927 220.168C56.5724 220.168 57.002 219.944 57.2812 219.496C57.5648 219.047 57.7129 218.34 57.7256 217.375V215.452ZM60.5503 220.384C60.5503 220.181 60.6095 220.012 60.728 219.876C60.8507 219.741 61.0327 219.673 61.2739 219.673C61.5151 219.673 61.6971 219.741 61.8198 219.876C61.9468 220.012 62.0103 220.181 62.0103 220.384C62.0103 220.579 61.9468 220.742 61.8198 220.873C61.6971 221.004 61.5151 221.07 61.2739 221.07C61.0327 221.07 60.8507 221.004 60.728 220.873C60.6095 220.742 60.5503 220.579 60.5503 220.384ZM69.6274 217.058C69.6274 218.433 69.3926 219.455 68.9229 220.124C68.4531 220.793 67.7189 221.127 66.7202 221.127C65.7342 221.127 65.0042 220.801 64.5303 220.149C64.0563 219.493 63.8109 218.516 63.7939 217.217V215.649C63.7939 214.291 64.0288 213.281 64.4985 212.621C64.9683 211.961 65.7046 211.631 66.7075 211.631C67.702 211.631 68.4341 211.95 68.9038 212.589C69.3735 213.224 69.6147 214.206 69.6274 215.535V217.058ZM68.4531 215.452C68.4531 214.458 68.3135 213.734 68.0342 213.281C67.7549 212.824 67.3127 212.596 66.7075 212.596C66.1066 212.596 65.6686 212.822 65.3936 213.275C65.1185 213.728 64.9767 214.424 64.9683 215.363V217.242C64.9683 218.241 65.1121 218.979 65.3999 219.458C65.6919 219.931 66.132 220.168 66.7202 220.168C67.3 220.168 67.7295 219.944 68.0088 219.496C68.2923 219.047 68.4404 218.34 68.4531 217.375V215.452ZM76.9272 217.058C76.9272 218.433 76.6924 219.455 76.2227 220.124C75.7529 220.793 75.0187 221.127 74.02 221.127C73.034 221.127 72.304 220.801 71.8301 220.149C71.3561 219.493 71.1107 218.516 71.0938 217.217V215.649C71.0938 214.291 71.3286 213.281 71.7983 212.621C72.2681 211.961 73.0044 211.631 74.0073 211.631C75.0018 211.631 75.7339 211.95 76.2036 212.589C76.6733 213.224 76.9146 214.206 76.9272 215.535V217.058ZM75.7529 215.452C75.7529 214.458 75.6133 213.734 75.334 213.281C75.0547 212.824 74.6125 212.596 74.0073 212.596C73.4064 212.596 72.9684 212.822 72.6934 213.275C72.4183 213.728 72.2765 214.424 72.2681 215.363V217.242C72.2681 218.241 72.4119 218.979 72.6997 219.458C72.9917 219.931 73.4318 220.168 74.02 220.168C74.5998 220.168 75.0293 219.944 75.3086 219.496C75.5921 219.047 75.7402 218.34 75.7529 217.375V215.452Z" fill="#1A264A"/>
<path d="M38.4997 215.098C39.1371 214.739 39.4816 214.019 39.3629 213.298C39.2153 212.184 37.8874 211.763 36.8397 211.675V210H35.8069V211.66H35.1134V210H34.0805V211.66H32V212.73H32.7746C33.1214 212.73 33.2911 212.833 33.2911 213.113V217.71C33.2911 218.093 33.0993 218.211 32.8927 218.211H32.1033V219.303H34.11V221H35.1502V219.303H35.8437V221H36.8545V219.303H37.0758C39.2005 219.303 39.9088 218.263 39.9088 216.846C39.8918 216.011 39.3127 215.293 38.4997 215.098ZM35.1133 212.796H35.8511C36.3675 212.796 37.3856 212.885 37.3856 213.726C37.421 214.275 37.0234 214.756 36.4782 214.825H35.1133V212.796ZM36.2569 218.108V218.101H35.1133V215.887H36.4413C36.7512 215.887 37.9168 215.991 37.9168 216.817C37.9168 217.643 37.3635 218.108 36.2569 218.108Z" fill="#1A264A"/>
<path d="M35.0308 331.959H31.7544L31.0186 334H29.9551L32.9414 326.18H33.8438L36.8354 334H35.7773L35.0308 331.959ZM32.0659 331.11H34.7246L33.3926 327.453L32.0659 331.11ZM37.4907 331.046C37.4907 330.154 37.702 329.438 38.1245 328.897C38.547 328.353 39.1003 328.081 39.7842 328.081C40.4645 328.081 41.0034 328.314 41.4009 328.779V325.75H42.3945V334H41.4814L41.4331 333.377C41.0356 333.864 40.4824 334.107 39.7734 334.107C39.1003 334.107 38.5506 333.832 38.1245 333.28C37.702 332.729 37.4907 332.009 37.4907 331.121V331.046ZM38.4844 331.159C38.4844 331.818 38.6204 332.333 38.8926 332.706C39.1647 333.078 39.5407 333.264 40.0205 333.264C40.6507 333.264 41.1108 332.981 41.4009 332.416V329.746C41.1037 329.198 40.6471 328.924 40.0312 328.924C39.5443 328.924 39.1647 329.112 38.8926 329.488C38.6204 329.864 38.4844 330.421 38.4844 331.159ZM43.6997 331.046C43.6997 330.154 43.911 329.438 44.3335 328.897C44.756 328.353 45.3092 328.081 45.9932 328.081C46.6735 328.081 47.2124 328.314 47.6099 328.779V325.75H48.6035V334H47.6904L47.6421 333.377C47.2446 333.864 46.6914 334.107 45.9824 334.107C45.3092 334.107 44.7596 333.832 44.3335 333.28C43.911 332.729 43.6997 332.009 43.6997 331.121V331.046ZM44.6934 331.159C44.6934 331.818 44.8294 332.333 45.1016 332.706C45.3737 333.078 45.7497 333.264 46.2295 333.264C46.8597 333.264 47.3198 332.981 47.6099 332.416V329.746C47.3127 329.198 46.8561 328.924 46.2402 328.924C45.7533 328.924 45.3737 329.112 45.1016 329.488C44.8294 329.864 44.6934 330.421 44.6934 331.159ZM52.9595 329.08C52.8091 329.055 52.6462 329.042 52.4707 329.042C51.819 329.042 51.3768 329.32 51.144 329.875V334H50.1504V328.188H51.1172L51.1333 328.86C51.4591 328.341 51.9211 328.081 52.519 328.081C52.7124 328.081 52.8592 328.106 52.9595 328.156V329.08ZM56.1821 334.107C55.3944 334.107 54.7534 333.85 54.2593 333.334C53.7651 332.815 53.5181 332.122 53.5181 331.255V331.073C53.5181 330.496 53.6273 329.982 53.8457 329.531C54.0677 329.076 54.3757 328.722 54.7695 328.468C55.167 328.21 55.5967 328.081 56.0586 328.081C56.8141 328.081 57.4014 328.33 57.8203 328.828C58.2393 329.325 58.4487 330.038 58.4487 330.965V331.379H54.5117C54.526 331.952 54.6925 332.416 55.0112 332.77C55.3335 333.121 55.7417 333.296 56.2358 333.296C56.5868 333.296 56.884 333.225 57.1274 333.082C57.3709 332.938 57.584 332.749 57.7666 332.512L58.3735 332.985C57.8866 333.733 57.1561 334.107 56.1821 334.107ZM56.0586 328.897C55.6576 328.897 55.321 329.044 55.0488 329.338C54.7767 329.628 54.6084 330.036 54.5439 330.562H57.4551V330.487C57.4264 329.982 57.2904 329.592 57.0469 329.316C56.8034 329.037 56.474 328.897 56.0586 328.897ZM62.9873 332.458C62.9873 332.19 62.8853 331.982 62.6812 331.835C62.4806 331.685 62.1279 331.556 61.623 331.449C61.1217 331.341 60.7225 331.212 60.4253 331.062C60.1317 330.912 59.9132 330.733 59.77 330.525C59.6304 330.317 59.5605 330.07 59.5605 329.784C59.5605 329.307 59.7611 328.905 60.1621 328.575C60.5667 328.246 61.0824 328.081 61.709 328.081C62.3678 328.081 62.9014 328.251 63.3096 328.591C63.7214 328.931 63.9272 329.367 63.9272 329.896H62.9282C62.9282 329.624 62.8118 329.39 62.5791 329.193C62.3499 328.996 62.0599 328.897 61.709 328.897C61.3473 328.897 61.0645 328.976 60.8604 329.134C60.6562 329.291 60.5542 329.497 60.5542 329.751C60.5542 329.991 60.6491 330.172 60.8389 330.294C61.0286 330.416 61.3706 330.532 61.8647 330.643C62.3625 330.754 62.7653 330.887 63.0732 331.041C63.3812 331.194 63.6086 331.381 63.7554 331.599C63.9058 331.814 63.981 332.077 63.981 332.389C63.981 332.908 63.7733 333.325 63.3579 333.64C62.9425 333.952 62.4036 334.107 61.7412 334.107C61.2757 334.107 60.8639 334.025 60.5059 333.86C60.1478 333.696 59.8667 333.466 59.6626 333.173C59.4621 332.876 59.3618 332.555 59.3618 332.211H60.3555C60.3734 332.544 60.5059 332.809 60.7529 333.006C61.0036 333.2 61.333 333.296 61.7412 333.296C62.1172 333.296 62.418 333.221 62.6436 333.071C62.8727 332.917 62.9873 332.713 62.9873 332.458ZM68.6592 332.458C68.6592 332.19 68.5571 331.982 68.353 331.835C68.1525 331.685 67.7998 331.556 67.2949 331.449C66.7936 331.341 66.3944 331.212 66.0972 331.062C65.8035 330.912 65.5851 330.733 65.4419 330.525C65.3022 330.317 65.2324 330.07 65.2324 329.784C65.2324 329.307 65.4329 328.905 65.834 328.575C66.2386 328.246 66.7542 328.081 67.3809 328.081C68.0397 328.081 68.5732 328.251 68.9814 328.591C69.3932 328.931 69.5991 329.367 69.5991 329.896H68.6001C68.6001 329.624 68.4837 329.39 68.251 329.193C68.0218 328.996 67.7318 328.897 67.3809 328.897C67.0192 328.897 66.7363 328.976 66.5322 329.134C66.3281 329.291 66.2261 329.497 66.2261 329.751C66.2261 329.991 66.321 330.172 66.5107 330.294C66.7005 330.416 67.0425 330.532 67.5366 330.643C68.0343 330.754 68.4372 330.887 68.7451 331.041C69.0531 331.194 69.2804 331.381 69.4272 331.599C69.5776 331.814 69.6528 332.077 69.6528 332.389C69.6528 332.908 69.4451 333.325 69.0298 333.64C68.6144 333.952 68.0755 334.107 67.4131 334.107C66.9476 334.107 66.5358 334.025 66.1777 333.86C65.8197 333.696 65.5386 333.466 65.3345 333.173C65.134 332.876 65.0337 332.555 65.0337 332.211H66.0273C66.0452 332.544 66.1777 332.809 66.4248 333.006C66.6755 333.2 67.0049 333.296 67.4131 333.296C67.7891 333.296 68.0898 333.221 68.3154 333.071C68.5446 332.917 68.6592 332.713 68.6592 332.458Z" fill="#1A264A"/>
<path d="M100.86 326.18L103.417 332.561L105.974 326.18H107.311V334H106.28V330.955L106.376 327.667L103.809 334H103.02L100.458 327.684L100.56 330.955V334H99.5283V326.18H100.86ZM110.877 332.544L112.231 328.188H113.294L110.958 334.897C110.596 335.864 110.022 336.347 109.234 336.347L109.046 336.331L108.675 336.261V335.456L108.944 335.477C109.28 335.477 109.542 335.409 109.728 335.273C109.918 335.137 110.074 334.888 110.195 334.526L110.416 333.936L108.342 328.188H109.427L110.877 332.544ZM121.389 331.959H118.112L117.376 334H116.313L119.299 326.18H120.202L123.193 334H122.135L121.389 331.959ZM118.424 331.11H121.083L119.75 327.453L118.424 331.11ZM124.112 333.479C124.112 333.307 124.162 333.164 124.262 333.049C124.366 332.935 124.52 332.877 124.724 332.877C124.928 332.877 125.082 332.935 125.186 333.049C125.293 333.164 125.347 333.307 125.347 333.479C125.347 333.644 125.293 333.782 125.186 333.893C125.082 334.004 124.928 334.059 124.724 334.059C124.52 334.059 124.366 334.004 124.262 333.893C124.162 333.782 124.112 333.644 124.112 333.479ZM127.012 333.479C127.012 333.307 127.062 333.164 127.163 333.049C127.266 332.935 127.42 332.877 127.625 332.877C127.829 332.877 127.983 332.935 128.086 333.049C128.194 333.164 128.248 333.307 128.248 333.479C128.248 333.644 128.194 333.782 128.086 333.893C127.983 334.004 127.829 334.059 127.625 334.059C127.42 334.059 127.266 334.004 127.163 333.893C127.062 333.782 127.012 333.644 127.012 333.479ZM129.913 333.479C129.913 333.307 129.963 333.164 130.063 333.049C130.167 332.935 130.321 332.877 130.525 332.877C130.729 332.877 130.883 332.935 130.987 333.049C131.094 333.164 131.148 333.307 131.148 333.479C131.148 333.644 131.094 333.782 130.987 333.893C130.883 334.004 130.729 334.059 130.525 334.059C130.321 334.059 130.167 334.004 130.063 333.893C129.963 333.782 129.913 333.644 129.913 333.479ZM133.731 328.188L133.764 328.919C134.208 328.36 134.788 328.081 135.504 328.081C136.732 328.081 137.352 328.774 137.362 330.16V334H136.369V330.154C136.365 329.735 136.268 329.426 136.079 329.225C135.892 329.025 135.601 328.924 135.203 328.924C134.881 328.924 134.598 329.01 134.354 329.182C134.111 329.354 133.921 329.58 133.785 329.859V334H132.792V328.188H133.731ZM140.209 326.781V328.188H141.294V328.957H140.209V332.561C140.209 332.793 140.257 332.969 140.354 333.087C140.451 333.201 140.615 333.259 140.848 333.259C140.963 333.259 141.12 333.237 141.321 333.194V334C141.059 334.072 140.805 334.107 140.558 334.107C140.114 334.107 139.779 333.973 139.554 333.705C139.328 333.436 139.215 333.055 139.215 332.561V328.957H138.157V328.188H139.215V326.781H140.209ZM145.843 332.458C145.843 332.19 145.741 331.982 145.537 331.835C145.337 331.685 144.984 331.556 144.479 331.449C143.978 331.341 143.578 331.212 143.281 331.062C142.988 330.912 142.769 330.733 142.626 330.525C142.486 330.317 142.417 330.07 142.417 329.784C142.417 329.307 142.617 328.905 143.018 328.575C143.423 328.246 143.938 328.081 144.565 328.081C145.224 328.081 145.757 328.251 146.166 328.591C146.577 328.931 146.783 329.367 146.783 329.896H145.784C145.784 329.624 145.668 329.39 145.435 329.193C145.206 328.996 144.916 328.897 144.565 328.897C144.203 328.897 143.92 328.976 143.716 329.134C143.512 329.291 143.41 329.497 143.41 329.751C143.41 329.991 143.505 330.172 143.695 330.294C143.885 330.416 144.227 330.532 144.721 330.643C145.218 330.754 145.621 330.887 145.929 331.041C146.237 331.194 146.465 331.381 146.611 331.599C146.762 331.814 146.837 332.077 146.837 332.389C146.837 332.908 146.629 333.325 146.214 333.64C145.799 333.952 145.26 334.107 144.597 334.107C144.132 334.107 143.72 334.025 143.362 333.86C143.004 333.696 142.723 333.466 142.519 333.173C142.318 332.876 142.218 332.555 142.218 332.211H143.211C143.229 332.544 143.362 332.809 143.609 333.006C143.86 333.2 144.189 333.296 144.597 333.296C144.973 333.296 145.274 333.221 145.5 333.071C145.729 332.917 145.843 332.713 145.843 332.458Z" fill="#1A264A"/>
<path d="M180.601 331.519C180.504 332.346 180.198 332.985 179.683 333.436C179.171 333.884 178.488 334.107 177.636 334.107C176.712 334.107 175.971 333.776 175.413 333.114C174.858 332.451 174.58 331.565 174.58 330.455V329.703C174.58 328.976 174.709 328.337 174.967 327.786C175.228 327.234 175.597 326.812 176.073 326.518C176.549 326.221 177.101 326.072 177.728 326.072C178.558 326.072 179.224 326.305 179.726 326.771C180.227 327.232 180.519 327.873 180.601 328.693H179.564C179.475 328.07 179.28 327.619 178.979 327.34C178.682 327.061 178.265 326.921 177.728 326.921C177.069 326.921 176.551 327.164 176.175 327.651C175.803 328.138 175.617 328.831 175.617 329.73V330.487C175.617 331.336 175.794 332.011 176.148 332.512C176.503 333.014 176.999 333.264 177.636 333.264C178.209 333.264 178.648 333.135 178.952 332.877C179.26 332.616 179.464 332.163 179.564 331.519H180.601ZM181.595 331.041C181.595 330.471 181.706 329.959 181.928 329.504C182.153 329.05 182.465 328.699 182.862 328.452C183.263 328.205 183.72 328.081 184.232 328.081C185.023 328.081 185.662 328.355 186.149 328.903C186.64 329.451 186.885 330.179 186.885 331.089V331.159C186.885 331.724 186.776 332.233 186.558 332.684C186.343 333.132 186.033 333.481 185.628 333.731C185.227 333.982 184.765 334.107 184.243 334.107C183.455 334.107 182.816 333.833 182.325 333.286C181.838 332.738 181.595 332.013 181.595 331.11V331.041ZM182.594 331.159C182.594 331.803 182.742 332.321 183.04 332.711C183.34 333.101 183.741 333.296 184.243 333.296C184.748 333.296 185.149 333.099 185.446 332.706C185.743 332.308 185.892 331.753 185.892 331.041C185.892 330.403 185.739 329.888 185.435 329.494C185.134 329.096 184.733 328.897 184.232 328.897C183.741 328.897 183.346 329.093 183.045 329.483C182.744 329.873 182.594 330.432 182.594 331.159ZM189.071 328.188L189.104 328.919C189.548 328.36 190.128 328.081 190.844 328.081C192.072 328.081 192.691 328.774 192.702 330.16V334H191.708V330.154C191.705 329.735 191.608 329.426 191.418 329.225C191.232 329.025 190.94 328.924 190.543 328.924C190.221 328.924 189.938 329.01 189.694 329.182C189.451 329.354 189.261 329.58 189.125 329.859V334H188.131V328.188H189.071ZM195.549 326.781V328.188H196.634V328.957H195.549V332.561C195.549 332.793 195.597 332.969 195.694 333.087C195.791 333.201 195.955 333.259 196.188 333.259C196.303 333.259 196.46 333.237 196.661 333.194V334C196.399 334.072 196.145 334.107 195.898 334.107C195.454 334.107 195.119 333.973 194.894 333.705C194.668 333.436 194.555 333.055 194.555 332.561V328.957H193.497V328.188H194.555V326.781H195.549ZM201.387 334C201.33 333.885 201.283 333.681 201.248 333.388C200.786 333.868 200.234 334.107 199.593 334.107C199.02 334.107 198.549 333.946 198.181 333.624C197.815 333.298 197.633 332.886 197.633 332.389C197.633 331.784 197.862 331.314 198.32 330.981C198.782 330.645 199.43 330.477 200.265 330.477H201.231V330.02C201.231 329.673 201.128 329.397 200.92 329.193C200.712 328.985 200.406 328.881 200.001 328.881C199.647 328.881 199.35 328.971 199.11 329.15C198.87 329.329 198.75 329.546 198.75 329.8H197.751C197.751 329.51 197.853 329.23 198.057 328.962C198.265 328.69 198.544 328.475 198.895 328.317C199.25 328.16 199.638 328.081 200.061 328.081C200.73 328.081 201.255 328.249 201.634 328.586C202.014 328.919 202.211 329.379 202.225 329.966V332.641C202.225 333.175 202.293 333.599 202.429 333.914V334H201.387ZM199.738 333.243C200.05 333.243 200.345 333.162 200.625 333.001C200.904 332.84 201.106 332.63 201.231 332.373V331.18H200.453C199.235 331.18 198.626 331.536 198.626 332.249C198.626 332.561 198.73 332.804 198.938 332.979C199.146 333.155 199.412 333.243 199.738 333.243ZM206.114 333.296C206.468 333.296 206.778 333.189 207.043 332.974C207.308 332.759 207.455 332.491 207.483 332.168H208.423C208.405 332.501 208.291 332.818 208.08 333.119C207.868 333.42 207.585 333.66 207.231 333.839C206.88 334.018 206.508 334.107 206.114 334.107C205.322 334.107 204.692 333.844 204.223 333.318C203.758 332.788 203.525 332.065 203.525 331.148V330.981C203.525 330.416 203.629 329.913 203.836 329.472C204.044 329.032 204.341 328.69 204.728 328.446C205.118 328.203 205.578 328.081 206.108 328.081C206.76 328.081 207.301 328.276 207.73 328.667C208.164 329.057 208.395 329.563 208.423 330.187H207.483C207.455 329.811 207.312 329.503 207.054 329.263C206.799 329.019 206.484 328.897 206.108 328.897C205.604 328.897 205.211 329.08 204.932 329.445C204.656 329.807 204.519 330.332 204.519 331.019V331.207C204.519 331.877 204.656 332.392 204.932 332.754C205.208 333.116 205.602 333.296 206.114 333.296ZM210.889 326.781V328.188H211.974V328.957H210.889V332.561C210.889 332.793 210.937 332.969 211.034 333.087C211.13 333.201 211.295 333.259 211.528 333.259C211.642 333.259 211.8 333.237 212 333.194V334C211.739 334.072 211.485 334.107 211.238 334.107C210.794 334.107 210.459 333.973 210.233 333.705C210.008 333.436 209.895 333.055 209.895 332.561V328.957H208.837V328.188H209.895V326.781H210.889ZM216.523 332.458C216.523 332.19 216.421 331.982 216.217 331.835C216.016 331.685 215.664 331.556 215.159 331.449C214.657 331.341 214.258 331.212 213.961 331.062C213.667 330.912 213.449 330.733 213.306 330.525C213.166 330.317 213.096 330.07 213.096 329.784C213.096 329.307 213.297 328.905 213.698 328.575C214.102 328.246 214.618 328.081 215.245 328.081C215.903 328.081 216.437 328.251 216.845 328.591C217.257 328.931 217.463 329.367 217.463 329.896H216.464C216.464 329.624 216.347 329.39 216.115 329.193C215.886 328.996 215.596 328.897 215.245 328.897C214.883 328.897 214.6 328.976 214.396 329.134C214.192 329.291 214.09 329.497 214.09 329.751C214.09 329.991 214.185 330.172 214.375 330.294C214.564 330.416 214.906 330.532 215.4 330.643C215.898 330.754 216.301 330.887 216.609 331.041C216.917 331.194 217.144 331.381 217.291 331.599C217.441 331.814 217.517 332.077 217.517 332.389C217.517 332.908 217.309 333.325 216.894 333.64C216.478 333.952 215.939 334.107 215.277 334.107C214.811 334.107 214.4 334.025 214.042 333.86C213.683 333.696 213.402 333.466 213.198 333.173C212.998 332.876 212.897 332.555 212.897 332.211H213.891C213.909 332.544 214.042 332.809 214.289 333.006C214.539 333.2 214.869 333.296 215.277 333.296C215.653 333.296 215.954 333.221 216.179 333.071C216.408 332.917 216.523 332.713 216.523 332.458Z" fill="#1A264A"/>
<path d="M251.506 330.514C250.622 330.26 249.977 329.948 249.573 329.58C249.172 329.207 248.971 328.749 248.971 328.205C248.971 327.589 249.216 327.08 249.707 326.679C250.201 326.275 250.842 326.072 251.63 326.072C252.167 326.072 252.645 326.176 253.064 326.384C253.486 326.591 253.812 326.878 254.042 327.243C254.274 327.608 254.391 328.008 254.391 328.441H253.354C253.354 327.968 253.204 327.598 252.903 327.329C252.602 327.057 252.178 326.921 251.63 326.921C251.121 326.921 250.724 327.034 250.438 327.259C250.155 327.481 250.013 327.791 250.013 328.188C250.013 328.507 250.147 328.778 250.416 329C250.688 329.218 251.148 329.418 251.796 329.601C252.448 329.784 252.957 329.986 253.322 330.208C253.691 330.426 253.963 330.682 254.138 330.976C254.317 331.27 254.407 331.615 254.407 332.013C254.407 332.646 254.16 333.155 253.666 333.538C253.171 333.918 252.511 334.107 251.684 334.107C251.146 334.107 250.645 334.005 250.18 333.801C249.714 333.594 249.354 333.311 249.1 332.953C248.849 332.595 248.724 332.188 248.724 331.733H249.761C249.761 332.206 249.934 332.58 250.282 332.856C250.633 333.128 251.1 333.264 251.684 333.264C252.228 333.264 252.645 333.153 252.935 332.931C253.225 332.709 253.37 332.407 253.37 332.023C253.37 331.64 253.236 331.345 252.967 331.137C252.699 330.926 252.212 330.718 251.506 330.514ZM257.909 333.296C258.263 333.296 258.573 333.189 258.838 332.974C259.103 332.759 259.25 332.491 259.278 332.168H260.218C260.2 332.501 260.086 332.818 259.875 333.119C259.663 333.42 259.38 333.66 259.026 333.839C258.675 334.018 258.303 334.107 257.909 334.107C257.117 334.107 256.487 333.844 256.018 333.318C255.553 332.788 255.32 332.065 255.32 331.148V330.981C255.32 330.416 255.424 329.913 255.631 329.472C255.839 329.032 256.136 328.69 256.523 328.446C256.913 328.203 257.373 328.081 257.903 328.081C258.555 328.081 259.096 328.276 259.525 328.667C259.959 329.057 260.19 329.563 260.218 330.187H259.278C259.25 329.811 259.106 329.503 258.849 329.263C258.594 329.019 258.279 328.897 257.903 328.897C257.398 328.897 257.006 329.08 256.727 329.445C256.451 329.807 256.313 330.332 256.313 331.019V331.207C256.313 331.877 256.451 332.392 256.727 332.754C257.003 333.116 257.397 333.296 257.909 333.296ZM264.923 334C264.866 333.885 264.819 333.681 264.784 333.388C264.322 333.868 263.77 334.107 263.129 334.107C262.556 334.107 262.086 333.946 261.717 333.624C261.352 333.298 261.169 332.886 261.169 332.389C261.169 331.784 261.398 331.314 261.856 330.981C262.318 330.645 262.966 330.477 263.801 330.477H264.768V330.02C264.768 329.673 264.664 329.397 264.456 329.193C264.248 328.985 263.942 328.881 263.538 328.881C263.183 328.881 262.886 328.971 262.646 329.15C262.406 329.329 262.286 329.546 262.286 329.8H261.287C261.287 329.51 261.389 329.23 261.593 328.962C261.801 328.69 262.08 328.475 262.431 328.317C262.786 328.16 263.174 328.081 263.597 328.081C264.266 328.081 264.791 328.249 265.17 328.586C265.55 328.919 265.747 329.379 265.761 329.966V332.641C265.761 333.175 265.829 333.599 265.965 333.914V334H264.923ZM263.274 333.243C263.586 333.243 263.881 333.162 264.161 333.001C264.44 332.84 264.642 332.63 264.768 332.373V331.18H263.989C262.771 331.18 262.163 331.536 262.163 332.249C262.163 332.561 262.266 332.804 262.474 332.979C262.682 333.155 262.949 333.243 263.274 333.243ZM268.259 328.188L268.291 328.919C268.735 328.36 269.315 328.081 270.031 328.081C271.259 328.081 271.879 328.774 271.89 330.16V334H270.896V330.154C270.892 329.735 270.796 329.426 270.606 329.225C270.42 329.025 270.128 328.924 269.73 328.924C269.408 328.924 269.125 329.01 268.882 329.182C268.638 329.354 268.449 329.58 268.312 329.859V334H267.319V328.188H268.259ZM282.245 330.342C282.245 331.098 282.125 331.75 281.885 332.297C281.645 332.842 281.309 333.268 280.875 333.576L282.272 334.671L281.568 335.321L279.919 334.011C279.662 334.075 279.389 334.107 279.103 334.107C278.487 334.107 277.941 333.957 277.465 333.656C276.989 333.352 276.618 332.92 276.353 332.362C276.092 331.8 275.957 331.15 275.95 330.412V329.848C275.95 329.096 276.081 328.432 276.342 327.855C276.604 327.279 276.972 326.839 277.449 326.534C277.929 326.226 278.476 326.072 279.092 326.072C279.722 326.072 280.276 326.224 280.752 326.529C281.232 326.833 281.601 327.272 281.858 327.845C282.116 328.414 282.245 329.08 282.245 329.843V330.342ZM281.214 329.837C281.214 328.917 281.029 328.208 280.661 327.71C280.295 327.209 279.773 326.958 279.092 326.958C278.444 326.958 277.932 327.207 277.556 327.705C277.184 328.199 276.992 328.887 276.981 329.768V330.342C276.981 331.237 277.168 331.943 277.54 332.458C277.916 332.974 278.437 333.232 279.103 333.232C279.769 333.232 280.285 332.99 280.65 332.507C281.015 332.02 281.203 331.323 281.214 330.417V329.837ZM286.703 330.836H284.866V334H283.83V326.18H286.418C287.299 326.18 287.976 326.38 288.449 326.781C288.925 327.182 289.163 327.766 289.163 328.532C289.163 329.019 289.031 329.444 288.766 329.805C288.504 330.167 288.139 330.437 287.67 330.616L289.507 333.936V334H288.4L286.703 330.836ZM284.866 329.993H286.451C286.963 329.993 287.369 329.861 287.67 329.596C287.974 329.331 288.126 328.976 288.126 328.532C288.126 328.049 287.981 327.678 287.691 327.42C287.405 327.163 286.99 327.032 286.445 327.028H284.866V329.993Z" fill="#1A264A"/>
<path d="M48.1699 83.9185H44.2915V88H43.0728V78.7578H48.7983V79.7607H44.2915V82.9219H48.1699V83.9185ZM53.229 82.1855C53.0513 82.1559 52.8587 82.1411 52.6514 82.1411C51.8812 82.1411 51.3586 82.4691 51.0835 83.125V88H49.9092V81.1318H51.0518L51.0708 81.9253C51.4559 81.3117 52.0018 81.0049 52.7085 81.0049C52.937 81.0049 53.1105 81.0345 53.229 81.0938V82.1855ZM53.8765 84.5024C53.8765 83.8296 54.0076 83.2244 54.27 82.687C54.5366 82.1496 54.9048 81.7349 55.3745 81.4429C55.8485 81.1509 56.388 81.0049 56.9932 81.0049C57.9284 81.0049 58.6838 81.3286 59.2593 81.9761C59.839 82.6235 60.1289 83.4847 60.1289 84.5596V84.6421C60.1289 85.3107 59.9998 85.9116 59.7417 86.4448C59.4878 86.9738 59.1217 87.3864 58.6436 87.6826C58.1696 87.9788 57.6237 88.127 57.0059 88.127C56.0749 88.127 55.3195 87.8032 54.7397 87.1558C54.1642 86.5083 53.8765 85.6514 53.8765 84.585V84.5024ZM55.0571 84.6421C55.0571 85.4038 55.2327 86.0153 55.584 86.4766C55.9395 86.9378 56.4134 87.1685 57.0059 87.1685C57.6025 87.1685 58.0765 86.9357 58.4277 86.4702C58.779 86.0005 58.9546 85.3446 58.9546 84.5024C58.9546 83.7492 58.7747 83.1398 58.415 82.6743C58.0596 82.2046 57.5856 81.9697 56.9932 81.9697C56.4134 81.9697 55.9458 82.2004 55.5903 82.6616C55.2349 83.1229 55.0571 83.783 55.0571 84.6421ZM62.7061 81.1318L62.7378 81.8936C63.2414 81.3011 63.9206 81.0049 64.7754 81.0049C65.736 81.0049 66.3898 81.373 66.7368 82.1094C66.9653 81.7793 67.2616 81.5127 67.6255 81.3096C67.9937 81.1064 68.4274 81.0049 68.9268 81.0049C70.4333 81.0049 71.1992 81.8026 71.2246 83.3979V88H70.0503V83.4678C70.0503 82.9769 69.9382 82.6108 69.7139 82.3696C69.4896 82.1242 69.113 82.0015 68.584 82.0015C68.1481 82.0015 67.7863 82.1326 67.4985 82.395C67.2108 82.6532 67.0436 83.0023 66.9971 83.4424V88H65.8164V83.4995C65.8164 82.5008 65.3276 82.0015 64.3501 82.0015C63.5799 82.0015 63.0531 82.3294 62.7695 82.9854V88H61.5952V81.1318H62.7061ZM72.9639 87.3843C72.9639 87.1812 73.0231 87.0119 73.1416 86.8765C73.2643 86.741 73.4463 86.6733 73.6875 86.6733C73.9287 86.6733 74.1107 86.741 74.2334 86.8765C74.3604 87.0119 74.4238 87.1812 74.4238 87.3843C74.4238 87.5789 74.3604 87.7419 74.2334 87.873C74.1107 88.0042 73.9287 88.0698 73.6875 88.0698C73.4463 88.0698 73.2643 88.0042 73.1416 87.873C73.0231 87.7419 72.9639 87.5789 72.9639 87.3843ZM72.9702 81.7793C72.9702 81.5762 73.0295 81.4069 73.1479 81.2715C73.2707 81.1361 73.4526 81.0684 73.6938 81.0684C73.9351 81.0684 74.117 81.1361 74.2397 81.2715C74.3667 81.4069 74.4302 81.5762 74.4302 81.7793C74.4302 81.974 74.3667 82.1369 74.2397 82.2681C74.117 82.3993 73.9351 82.4648 73.6938 82.4648C73.4526 82.4648 73.2707 82.3993 73.1479 82.2681C73.0295 82.1369 72.9702 81.974 72.9702 81.7793Z" fill="#1A264A"/>
<path d="M273.839 358.839C268.965 363.713 268.965 371.643 273.839 376.517C278.713 381.39 286.643 381.39 291.517 376.517C296.39 371.643 296.39 363.713 291.517 358.839C286.643 353.965 278.713 353.965 273.839 358.839ZM290.409 365.792L290.409 369.563L284.563 369.563L284.563 375.409L280.792 375.409L280.792 369.564H274.946L274.946 365.792L280.792 365.792L280.792 359.946L284.564 359.946V365.792L290.409 365.792Z" fill="url(#paint0_radial)"/>
<defs>
<filter id="filter0_d" x="10" y="503" width="300" height="65" filterUnits="userSpaceOnUse" color-interpolation-filters="sRGB">
<feFlood flood-opacity="0" result="BackgroundImageFix"/>
<feColorMatrix in="SourceAlpha" type="matrix" values="0 0 0 0 0 0 0 0 0 0 0 0 0 0 0 0 0 0 127 0"/>
<feOffset dy="10"/>
<feGaussianBlur stdDeviation="5"/>
<feColorMatrix type="matrix" values="0 0 0 0 0 0 0 0 0 0 0 0 0 0 0 0 0 0 0.25 0"/>
<feBlend mode="darken" in2="BackgroundImageFix" result="effect1_dropShadow"/>
<feBlend mode="normal" in="SourceGraphic" in2="effect1_dropShadow" result="shape"/>
</filter>
<radialGradient id="paint0_radial" cx="0" cy="0" r="1" gradientUnits="userSpaceOnUse" gradientTransform="translate(282.678 367.678) rotate(40.8621) scale(19.5988 19.7401)">
<stop stop-color="#A485FD"/>
<stop offset="1" stop-color="#5E2CD6"/>
</radialGradient>
</defs>
</svg>
