<svg width="320" height="568" viewBox="0 0 320 568" fill="none" xmlns="http://www.w3.org/2000/svg">
<path d="M0 0H320V568H0V0Z" fill="#121212"/>
<line y1="-0.5" x2="87.2779" y2="-0.5" transform="matrix(0.916077 -0.401002 0.370286 0.928918 31.374 96.5112)" stroke="#77DD77" stroke-opacity="0.5"/>
<line y1="-0.5" x2="78.7446" y2="-0.5" transform="matrix(0.244198 -0.969725 0.963826 0.266531 39.4707 504.829)" stroke="#FED6BC" stroke-opacity="0.5"/>
<line y1="-0.5" x2="52.7193" y2="-0.5" transform="matrix(-0.729497 -0.683984 0.649335 -0.760503 267.186 380.743)" stroke="#C6D8FF" stroke-opacity="0.5"/>
<line y1="-0.5" x2="52.6079" y2="-0.5" transform="matrix(-0.46171 -0.887031 0.868182 -0.496246 228.728 513.313)" stroke="#EFA94A" stroke-opacity="0.5"/>
<line y1="-0.5" x2="62.427" y2="-0.5" transform="matrix(-0.308028 0.951377 -0.942218 -0.335 223.667 68.9368)" stroke="#FF7514" stroke-opacity="0.5"/>
<line y1="-0.5" x2="91.2896" y2="-0.5" transform="matrix(-0.986684 -0.162647 0.148447 -0.98892 179.136 504.829)" stroke="#FF7514" stroke-opacity="0.5"/>
<path d="M80.086 154.596L82.0059 133.994L97.2203 147.196L80.086 154.596Z" stroke="#FFD1DC" stroke-opacity="0.5"/>
<path d="M186.733 309.154C186.733 313.294 183.536 316.609 179.642 316.609C175.748 316.609 172.552 313.294 172.552 309.154C172.552 305.015 175.748 301.7 179.642 301.7C183.536 301.7 186.733 305.015 186.733 309.154Z" stroke="#EFA94A" stroke-opacity="0.5"/>
<path d="M115.987 398.555L132.301 386.882L132.396 407.582L115.987 398.555Z" stroke="#5D9B9B" stroke-opacity="0.5"/>
<path d="M282.982 217.682L273.544 235.865L264.452 217.49L282.982 217.682Z" stroke="#A18594" stroke-opacity="0.5"/>
<path d="M20.7533 7.95423C20.7533 12.0934 17.557 15.4085 13.6628 15.4085C9.76859 15.4085 6.57227 12.0934 6.57227 7.95423C6.57227 3.81506 9.76859 0.5 13.6628 0.5C17.557 0.5 20.7533 3.81506 20.7533 7.95423Z" stroke="#77DD77" stroke-opacity="0.5"/>
<path d="M54.1517 293.246C54.1517 297.385 50.9554 300.7 47.0612 300.7C43.167 300.7 39.9707 297.385 39.9707 293.246C39.9707 289.107 43.167 285.792 47.0612 285.792C50.9554 285.792 54.1517 289.107 54.1517 293.246Z" stroke="#03C03C" stroke-opacity="0.5"/>
<path d="M280.855 545.66C280.855 549.799 277.659 553.115 273.764 553.115C269.87 553.115 266.674 549.799 266.674 545.66C266.674 541.521 269.87 538.206 273.764 538.206C277.659 538.206 280.855 541.521 280.855 545.66Z" stroke="#C6D8FF" stroke-opacity="0.5"/>
<path d="M186.733 188.25C186.733 192.389 183.536 195.704 179.642 195.704C175.748 195.704 172.552 192.389 172.552 188.25C172.552 184.111 175.748 180.796 179.642 180.796C183.536 180.796 186.733 184.111 186.733 188.25Z" stroke="#C6D8FF" stroke-opacity="0.5"/>
<path d="M183.809 17.594C177.201 12.1857 167.661 13.4144 162.5 20.3385L164.422 21.9115C168.747 16.1088 176.77 15.0754 182.308 19.6079C187.845 24.1403 188.831 32.5482 184.506 38.3509L186.428 39.9239C191.589 32.9999 190.416 23.0023 183.809 17.594Z" fill="#EFA94A" fill-opacity="0.5"/>
<path d="M111.836 251.886C116.785 249.164 118.691 242.753 116.093 237.567L114.654 238.358C116.831 242.705 115.228 248.096 111.08 250.378C106.932 252.659 101.787 250.979 99.6102 246.632L98.1707 247.424C100.768 252.611 106.886 254.608 111.836 251.886Z" fill="#C6D8FF" fill-opacity="0.5"/>
<path d="M85.7011 560.107C89.4344 564.466 95.8332 564.828 99.9931 560.916L98.9072 559.648C95.4211 562.927 90.0397 562.622 86.911 558.969C83.7823 555.316 84.0731 549.677 87.5593 546.398L86.4735 545.13C82.3136 549.042 81.9678 555.748 85.7011 560.107Z" fill="#B5F2EA" fill-opacity="0.5"/>
<path d="M28.0127 388.295C31.746 392.655 38.1447 393.017 42.3046 389.105L41.2188 387.837C37.7326 391.116 32.3513 390.811 29.2225 387.158C26.0938 383.504 26.3846 377.865 29.8708 374.586L28.785 373.319C24.6251 377.231 24.2793 383.936 28.0127 388.295Z" fill="#B5F2EA" fill-opacity="0.5"/>
<path d="M0.974773 214.145C1.51294 219.975 6.45939 224.244 12.0229 223.681L11.8663 221.985C7.20385 222.457 3.04392 218.867 2.59291 213.981C2.1419 209.095 5.56801 204.736 10.2305 204.263L10.074 202.568C4.5105 203.132 0.436606 208.315 0.974773 214.145Z" fill="#5D9B9B" fill-opacity="0.5"/>
<path d="M273.14 101.382C268.175 104.072 266.23 110.47 268.797 115.674L270.241 114.891C268.09 110.531 269.725 105.15 273.886 102.895C278.047 100.641 283.183 102.354 285.334 106.715L286.778 105.933C284.211 100.729 278.105 98.6921 273.14 101.382Z" fill="#5D9B9B" fill-opacity="0.5"/>
<path d="M287.382 445.104C284.612 450.192 286.303 456.669 291.158 459.571L291.964 458.092C287.895 455.659 286.473 450.212 288.794 445.948C291.115 441.684 296.313 440.194 300.382 442.627L301.187 441.147C296.332 438.245 290.151 440.016 287.382 445.104Z" fill="#C3FBD8" fill-opacity="0.5"/>
<path d="M316.761 28.3171L305.644 42.0563L316.761 44.6005" stroke="#7FB5B5" stroke-opacity="0.5"/>
<rect width="320" height="568" fill="#121212" fill-opacity="0.5"/>
</svg>
