<svg width="320" height="568" viewBox="0 0 320 568" fill="none" xmlns="http://www.w3.org/2000/svg">
<rect width="320" height="568" fill="white"/>
<path d="M0 0H320V568H0V0Z" fill="white"/>
<line y1="-0.5" x2="87.2779" y2="-0.5" transform="matrix(0.916077 -0.401002 0.370285 0.928918 31.374 96.5112)" stroke="#77DD77" stroke-opacity="0.5"/>
<line y1="-0.5" x2="78.7446" y2="-0.5" transform="matrix(0.244198 -0.969725 0.963826 0.266531 39.4705 504.829)" stroke="#FED6BC" stroke-opacity="0.5"/>
<line y1="-0.5" x2="52.7193" y2="-0.5" transform="matrix(-0.729497 -0.683984 0.649335 -0.760503 267.186 380.743)" stroke="#C6D8FF" stroke-opacity="0.5"/>
<line y1="-0.5" x2="52.6079" y2="-0.5" transform="matrix(-0.46171 -0.887031 0.868182 -0.496246 228.727 513.313)" stroke="#EFA94A" stroke-opacity="0.5"/>
<line y1="-0.5" x2="62.427" y2="-0.5" transform="matrix(-0.308028 0.951377 -0.942218 -0.335 223.667 68.9368)" stroke="#FF7514" stroke-opacity="0.5"/>
<line y1="-0.5" x2="91.2896" y2="-0.5" transform="matrix(-0.986685 -0.162646 0.148447 -0.98892 179.136 504.829)" stroke="#FF7514" stroke-opacity="0.5"/>
<path d="M80.0857 154.596L82.0056 133.994L97.22 147.196L80.0857 154.596Z" stroke="#FFD1DC" stroke-opacity="0.5"/>
<path d="M186.732 309.154C186.732 313.294 183.536 316.609 179.642 316.609C175.748 316.609 172.551 313.294 172.551 309.154C172.551 305.015 175.748 301.7 179.642 301.7C183.536 301.7 186.732 305.015 186.732 309.154Z" stroke="#EFA94A" stroke-opacity="0.5"/>
<path d="M115.987 398.555L132.301 386.882L132.396 407.582L115.987 398.555Z" stroke="#5D9B9B" stroke-opacity="0.5"/>
<path d="M282.981 217.682L273.544 235.865L264.451 217.49L282.981 217.682Z" stroke="#A18594" stroke-opacity="0.5"/>
<path d="M20.7533 7.95423C20.7533 12.0934 17.557 15.4085 13.6628 15.4085C9.76859 15.4085 6.57227 12.0934 6.57227 7.95423C6.57227 3.81506 9.76859 0.5 13.6628 0.5C17.557 0.5 20.7533 3.81506 20.7533 7.95423Z" stroke="#77DD77" stroke-opacity="0.5"/>
<path d="M54.1515 293.246C54.1515 297.385 50.9551 300.7 47.061 300.7C43.1668 300.7 39.9705 297.385 39.9705 293.246C39.9705 289.107 43.1668 285.792 47.061 285.792C50.9551 285.792 54.1515 289.107 54.1515 293.246Z" stroke="#03C03C" stroke-opacity="0.5"/>
<path d="M280.855 545.66C280.855 549.799 277.658 553.115 273.764 553.115C269.87 553.115 266.674 549.799 266.674 545.66C266.674 541.521 269.87 538.206 273.764 538.206C277.658 538.206 280.855 541.521 280.855 545.66Z" stroke="#C6D8FF" stroke-opacity="0.5"/>
<path d="M186.732 188.25C186.732 192.389 183.536 195.704 179.642 195.704C175.748 195.704 172.551 192.389 172.551 188.25C172.551 184.111 175.748 180.796 179.642 180.796C183.536 180.796 186.732 184.111 186.732 188.25Z" stroke="#C6D8FF" stroke-opacity="0.5"/>
<path d="M183.809 17.5942C177.201 12.1859 167.661 13.4147 162.5 20.3387L164.422 21.9117C168.747 16.109 176.77 15.0756 182.308 19.6081C187.845 24.1406 188.831 32.5484 184.506 38.3512L186.428 39.9242C191.589 33.0001 190.416 23.0026 183.809 17.5942Z" fill="#EFA94A" fill-opacity="0.5"/>
<path d="M111.835 251.886C116.784 249.164 118.691 242.753 116.093 237.566L114.654 238.358C116.831 242.704 115.227 248.096 111.08 250.377C106.932 252.659 101.787 250.979 99.61 246.632L98.1705 247.424C100.768 252.61 106.886 254.608 111.835 251.886Z" fill="#C6D8FF" fill-opacity="0.5"/>
<path d="M85.7009 560.107C89.4342 564.466 95.833 564.828 99.9928 560.916L98.907 559.648C95.4208 562.927 90.0395 562.622 86.9108 558.969C83.7821 555.316 84.0729 549.677 87.559 546.398L86.4732 545.13C82.3134 549.042 81.9676 555.748 85.7009 560.107Z" fill="#B5F2EA" fill-opacity="0.5"/>
<path d="M28.0131 388.295C31.7464 392.655 38.1452 393.017 42.3051 389.105L41.2193 387.837C37.7331 391.116 32.3517 390.811 29.223 387.158C26.0943 383.504 26.3851 377.865 29.8713 374.586L28.7855 373.319C24.6256 377.231 24.2798 383.936 28.0131 388.295Z" fill="#B5F2EA" fill-opacity="0.5"/>
<path d="M0.974529 214.145C1.5127 219.975 6.45915 224.244 12.0226 223.681L11.8661 221.985C7.20361 222.457 3.04368 218.867 2.59266 213.981C2.14165 209.095 5.56777 204.736 10.2303 204.263L10.0737 202.568C4.51026 203.132 0.436362 208.315 0.974529 214.145Z" fill="#5D9B9B" fill-opacity="0.5"/>
<path d="M273.14 101.382C268.175 104.072 266.23 110.47 268.797 115.674L270.241 114.891C268.09 110.531 269.725 105.15 273.886 102.895C278.047 100.641 283.183 102.354 285.334 106.715L286.778 105.933C284.211 100.729 278.105 98.6921 273.14 101.382Z" fill="#5D9B9B" fill-opacity="0.5"/>
<path d="M287.381 445.104C284.612 450.192 286.303 456.669 291.158 459.571L291.963 458.092C287.894 455.659 286.472 450.212 288.793 445.948C291.114 441.684 296.313 440.194 300.381 442.627L301.187 441.147C296.332 438.245 290.151 440.016 287.381 445.104Z" fill="#C3FBD8" fill-opacity="0.5"/>
<path d="M316.761 28.3171L305.644 42.0563L316.761 44.6005" stroke="#7FB5B5" stroke-opacity="0.5"/>
</svg>
